<svg width="56" height="56" viewBox="0 0 56 56" fill="none" xmlns="http://www.w3.org/2000/svg">
<path d="M41.0986 36.2012C44.4875 31.5762 46.0054 25.8419 45.3485 20.1456C44.6916 14.4493 41.9085 9.21115 37.5559 5.47904C33.2033 1.74692 27.6022 -0.203893 21.8732 0.016886C16.1443 0.237665 10.7099 2.61375 6.65733 6.66978C2.60477 10.7258 0.232911 16.1627 0.0162623 21.8926C-0.200386 27.6225 1.75416 33.223 5.48886 37.5735C9.22357 41.9241 14.463 44.7039 20.159 45.3567C25.8549 46.0096 31.5873 44.4874 36.2093 41.0948H36.2058C36.3108 41.2348 36.4228 41.3678 36.5488 41.4973L50.0233 54.9737C50.6795 55.6305 51.5698 55.9997 52.4982 56C53.4266 56.0003 54.3171 55.6318 54.9738 54.9754C55.6305 54.3191 55.9997 53.4287 56 52.5002C56.0003 51.5716 55.6318 50.681 54.9756 50.0242L41.5011 36.5478C41.376 36.4211 41.2414 36.3041 41.0986 36.1978V36.2012ZM42.0016 22.7459C42.0016 25.2741 41.5037 27.7775 40.5363 30.1133C39.5689 32.449 38.151 34.5714 36.3636 36.3591C34.5761 38.1468 32.4541 39.5649 30.1187 40.5324C27.7832 41.4999 25.2801 41.9978 22.7523 41.9978C20.2244 41.9978 17.7213 41.4999 15.3859 40.5324C13.0505 39.5649 10.9285 38.1468 9.14099 36.3591C7.35353 34.5714 5.93564 32.449 4.96828 30.1133C4.00091 27.7775 3.50301 25.2741 3.50301 22.7459C3.50301 17.6399 5.53105 12.7431 9.14099 9.13265C12.7509 5.52221 17.6471 3.49388 22.7523 3.49388C27.8575 3.49388 32.7536 5.52221 36.3636 9.13265C39.9735 12.7431 42.0016 17.6399 42.0016 22.7459V22.7459Z" fill="#DA3B01"/>
</svg>
