<svg width="56" height="56" viewBox="0 0 56 56" fill="none" xmlns="http://www.w3.org/2000/svg">
<g clip-path="url(#clip0)">
<path d="M7.00001 21.0007C6.9999 17.5329 7.85855 14.1191 9.49929 11.064C11.14 8.009 13.5118 5.40781 16.4028 3.49274C19.2938 1.57768 22.614 0.408343 26.0671 0.0891534C29.5201 -0.230036 32.9984 0.310853 36.1915 1.66352C39.3846 3.0162 42.193 5.13855 44.3659 7.84107C46.5389 10.5436 48.0087 13.7422 48.6443 17.1512C49.2799 20.5602 49.0613 24.0735 48.0082 27.3775C46.9551 30.6815 45.1001 33.6733 42.609 36.0857C41.8985 36.7717 41.3525 37.4857 41.0235 38.2522L38.3565 44.4437C38.2212 44.7575 37.9969 45.0248 37.7115 45.2126C37.426 45.4004 37.0917 45.5006 36.75 45.5007C37.2141 45.5007 37.6593 45.685 37.9875 46.0132C38.3156 46.3414 38.5 46.7865 38.5 47.2507C38.5 47.7148 38.3156 48.1599 37.9875 48.4881C37.6593 48.8163 37.2141 49.0007 36.75 49.0007C37.2141 49.0007 37.6593 49.185 37.9875 49.5132C38.3156 49.8414 38.5 50.2865 38.5 50.7507C38.5 51.2148 38.3156 51.6599 37.9875 51.9881C37.6593 52.3163 37.2141 52.5007 36.75 52.5007L35.966 54.0652C35.6755 54.6464 35.229 55.1354 34.6764 55.4772C34.1237 55.8191 33.4868 56.0003 32.837 56.0007H23.163C22.5132 56.0003 21.8763 55.8191 21.3237 55.4772C20.771 55.1354 20.3245 54.6464 20.034 54.0652L19.25 52.5007C18.7859 52.5007 18.3408 52.3163 18.0126 51.9881C17.6844 51.6599 17.5 51.2148 17.5 50.7507C17.5 50.2865 17.6844 49.8414 18.0126 49.5132C18.3408 49.185 18.7859 49.0007 19.25 49.0007C18.7859 49.0007 18.3408 48.8163 18.0126 48.4881C17.6844 48.1599 17.5 47.7148 17.5 47.2507C17.5 46.7865 17.6844 46.3414 18.0126 46.0132C18.3408 45.685 18.7859 45.5007 19.25 45.5007C18.9077 45.5013 18.5727 45.4014 18.2865 45.2136C18.0004 45.0257 17.7756 44.758 17.64 44.4437L14.9765 38.2487C14.5951 37.4306 14.0564 36.6956 13.391 36.0857C11.3667 34.1297 9.75742 31.7858 8.65934 29.194C7.56126 26.6021 6.99691 23.8155 7.00001 21.0007V21.0007ZM28 3.50066C24.5146 3.50007 21.1084 4.54027 18.2179 6.48796C15.3275 8.43564 13.0844 11.2021 11.7763 14.4327C10.4682 17.6633 10.1546 21.211 10.8756 24.621C11.5967 28.0311 13.3196 31.1481 15.8235 33.5727C16.744 34.4617 17.6225 35.5467 18.1895 36.8662L20.405 42.0007H35.602L37.814 36.8662C38.381 35.5467 39.2595 34.4617 40.18 33.5727C42.6842 31.1479 44.4071 28.0305 45.1281 24.6202C45.849 21.2098 45.5351 17.6619 44.2266 14.4311C42.918 11.2003 40.6744 8.4339 37.7834 6.48649C34.8924 4.53907 31.4857 3.49938 28 3.50066V3.50066Z" fill="#DA3B01"/>
</g>
<defs>
<clipPath id="clip0">
<rect width="56" height="56" fill="white"/>
</clipPath>
</defs>
</svg>
