<svg width="56" height="56" viewBox="0 0 56 56" fill="none" xmlns="http://www.w3.org/2000/svg">
<path d="M1.75 34.6484C2.21413 34.6484 2.65925 34.8328 2.98744 35.161C3.31563 35.4892 3.5 35.9343 3.5 36.3984V45.1484C3.5 46.0767 3.86875 46.9669 4.52513 47.6233C5.1815 48.2797 6.07174 48.6484 7 48.6484H49C49.9283 48.6484 50.8185 48.2797 51.4749 47.6233C52.1313 46.9669 52.5 46.0767 52.5 45.1484V36.3984C52.5 35.9343 52.6844 35.4892 53.0126 35.161C53.3408 34.8328 53.7859 34.6484 54.25 34.6484C54.7141 34.6484 55.1592 34.8328 55.4874 35.161C55.8156 35.4892 56 35.9343 56 36.3984V45.1484C56 47.005 55.2625 48.7854 53.9497 50.0982C52.637 51.4109 50.8565 52.1484 49 52.1484H7C5.14348 52.1484 3.36301 51.4109 2.05025 50.0982C0.737498 48.7854 0 47.005 0 45.1484V36.3984C0 35.9343 0.184375 35.4892 0.512563 35.161C0.840752 34.8328 1.28587 34.6484 1.75 34.6484V34.6484Z" fill="#DA3B01"/>
<path d="M26.7593 4.01022C26.9219 3.84725 27.115 3.71795 27.3276 3.62973C27.5402 3.54151 27.7681 3.49609 27.9983 3.49609C28.2285 3.49609 28.4564 3.54151 28.669 3.62973C28.8816 3.71795 29.0747 3.84725 29.2373 4.01022L39.7373 14.5102C40.0659 14.8388 40.2505 15.2845 40.2505 15.7492C40.2505 16.2139 40.0659 16.6596 39.7373 16.9882C39.4087 17.3168 38.963 17.5014 38.4983 17.5014C38.0336 17.5014 37.5879 17.3168 37.2593 16.9882L29.7483 9.47372V40.2492C29.7483 40.7134 29.5639 41.1585 29.2357 41.4867C28.9076 41.8148 28.4624 41.9992 27.9983 41.9992C27.5342 41.9992 27.0891 41.8148 26.7609 41.4867C26.4327 41.1585 26.2483 40.7134 26.2483 40.2492V9.47372L18.7373 16.9882C18.5746 17.1509 18.3814 17.28 18.1688 17.3681C17.9563 17.4561 17.7284 17.5014 17.4983 17.5014C17.2682 17.5014 17.0404 17.4561 16.8278 17.3681C16.6152 17.28 16.422 17.1509 16.2593 16.9882C16.0966 16.8255 15.9675 16.6324 15.8795 16.4198C15.7914 16.2072 15.7461 15.9793 15.7461 15.7492C15.7461 15.5191 15.7914 15.2913 15.8795 15.0787C15.9675 14.8661 16.0966 14.6729 16.2593 14.5102L26.7593 4.01022Z" fill="#DA3B01"/>
</svg>
