<?xml version="1.0" encoding="utf-8"?>
<!-- Generator: Adobe Illustrator 24.0.3, SVG Export Plug-In . SVG Version: 6.00 Build 0)  -->
<svg version="1.1"
	 id="svg3310" inkscape:version="0.48.2 r9819" sodipodi:docname="cbd-logo-white-en.svg" xmlns:cc="http://creativecommons.org/ns#" xmlns:dc="http://purl.org/dc/elements/1.1/" xmlns:inkscape="http://www.inkscape.org/namespaces/inkscape" xmlns:rdf="http://www.w3.org/1999/02/22-rdf-syntax-ns#" xmlns:sodipodi="http://sodipodi.sourceforge.net/DTD/sodipodi-0.dtd" xmlns:svg="http://www.w3.org/2000/svg"
	 xmlns="http://www.w3.org/2000/svg" xmlns:xlink="http://www.w3.org/1999/xlink" x="0px" y="0px" viewBox="0 0 83.2 106.1"
	 style="enable-background:new 0 0 83.2 106.1;" xml:space="preserve">
<style type="text/css">
	.st0{clip-path:url(#SVGID_2_);}
	.st1{clip-path:url(#SVGID_4_);}
	.st2{fill-rule:evenodd;clip-rule:evenodd;fill:#666666;}
	.st3{clip-path:url(#SVGID_6_);}
	.st4{fill:#009B48;}
</style>
<sodipodi:namedview  bordercolor="#666666" borderopacity="1" fit-margin-bottom="0" fit-margin-left="0" fit-margin-right="0" fit-margin-top="0" gridtolerance="10" guidetolerance="10" id="namedview3807" inkscape:current-layer="svg3310" inkscape:cx="127.2302" inkscape:cy="48.870803" inkscape:pageopacity="0" inkscape:pageshadow="2" inkscape:window-height="1099" inkscape:window-maximized="1" inkscape:window-width="1920" inkscape:window-x="1440" inkscape:window-y="22" inkscape:zoom="3.2526912" objecttolerance="10" pagecolor="#ffffff" showgrid="false">
	</sodipodi:namedview>
<g id="g3320" transform="matrix(1.25,0,0,-1.25,-0.075,106.13625)">
</g>
<g id="g3322" transform="matrix(1.25,0,0,-1.25,-0.075,106.13625)">
	<g>
		<defs>
			<rect id="SVGID_1_" x="-23.2" y="-3.7" width="232.4" height="88.3"/>
		</defs>
		<clipPath id="SVGID_2_">
			<use xlink:href="#SVGID_1_"  style="overflow:visible;"/>
		</clipPath>
		<g id="g3324" class="st0">
			<g>
				<defs>
					<rect id="SVGID_3_" x="-23.3" y="-3.7" width="233" height="88.4"/>
				</defs>
				<clipPath id="SVGID_4_">
					<use xlink:href="#SVGID_3_"  style="overflow:visible;"/>
				</clipPath>
				<g id="g3330" class="st1">
					
						<path id="path3336" inkscape:connector-curvature="0" sodipodi:nodetypes="ccccccccsccccccccccccccccccccccccc" class="st2" d="
						M39,48.9l5.9,0.3c10.4,0.6,10.6,8.4,10.6,8.5v18l-0.9,0.1c0,0-1.6-8-9-8.4L38.8,67c-5.7-0.3-8.6-3.8-10-7.2
						c-1.4-3.4-1.4-6.7-1.4-6.7V40.5c-0.2,0.6-0.3,1.1-0.6,1.6c-1.4,3.4-4.3,6.9-10,7.2l-6.8,0.3c-4.5,0.2-7.3,3.3-8.7,7.2
						C1,57.5,0.9,58,0.9,58L0,57.9v-18c0,0,0-0.5,0.2-1.3c1.2-4.9,5.6-7,10.4-7.2l5.9-0.3c8.7-0.5,10.7-10.1,10.8-11.7V5.1h0.9
						c0,1,1.8,11.4,10.8,11.9l5.9,0.3c10.4,0.6,10.6,8.4,10.6,8.5v18l-0.9,0.1c0,0-1.6-8-9-8.4l-6.8-0.3c-5.7-0.3-8.6-3.8-10-7.2
						c-0.2-0.5-0.4-1-0.6-1.5l0,10.5C28.1,37.8,30.5,48.9,39,48.9"/>
				</g>
			</g>
		</g>
	</g>
</g>
<g id="g3338" transform="matrix(1.3297839,0,0,-1.3297839,-17.903263,107.10937)">
	<g>
		<defs>
			<rect id="SVGID_5_" x="-28.5" y="-6.7" width="247.9" height="94.1"/>
		</defs>
		<clipPath id="SVGID_6_">
			<use xlink:href="#SVGID_5_"  style="overflow:visible;"/>
		</clipPath>
		<g id="g3340" class="st3">
			<path id="path3346" inkscape:connector-curvature="0" class="st4" d="M83.5,42.5v0.2c0,1.3-0.4,1.9-1.3,1.9c-0.4,0-0.8-0.2-1-0.5
				c-0.2-0.4-0.3-0.7-0.3-1.6v-3.7c0-0.8,0-1.3,0.2-1.6c0.2-0.4,0.6-0.7,1.1-0.7c0.9,0,1.3,0.7,1.3,2.2c0,0,0,0.2,0,0.3h1.7v-0.4
				c0-2.4-1-3.7-3-3.7c-1.1,0-2,0.4-2.5,1.2c-0.4,0.7-0.5,1.3-0.5,3v3.1c0,1.7,0.1,2.4,0.6,3.1c0.5,0.7,1.3,1,2.3,1
				c1.9,0,3-1.3,3-3.4v-0.3H83.5"/>
			<path id="path3348" inkscape:connector-curvature="0" class="st4" d="M88.5,37.8c0-1,0.3-1.5,1-1.5c0.7,0,1,0.5,1,1.5v2.7
				c0,1-0.3,1.5-1,1.5c-0.7,0-1-0.5-1-1.5V37.8z M92,37.9c0-1.3-0.1-1.9-0.6-2.3c-0.4-0.4-1.1-0.7-1.9-0.7c-0.8,0-1.4,0.2-1.9,0.7
				c-0.5,0.5-0.6,1-0.6,2.3v2.5c0,1.3,0.2,1.9,0.6,2.4c0.4,0.4,1.1,0.7,1.9,0.7c0.8,0,1.4-0.2,1.9-0.7c0.5-0.5,0.6-1.1,0.6-2.4V37.9
				"/>
			<path id="path3350" inkscape:connector-curvature="0" class="st4" d="M95.5,42.2c0.7,0.8,1.3,1.2,2.1,1.2c0.9,0,1.3-0.6,1.3-1.9
				V35h-1.5v6c0,0.7-0.1,1-0.6,1c-0.4,0-0.9-0.3-1.3-0.8V35H94v8.2h1.5V42.2"/>
			<path id="path3352" inkscape:connector-curvature="0" class="st4" d="M102.6,35l-2,8.2h1.6l1.2-5.2l1,5.2h1.6l-1.8-8.2H102.6"/>
			<path id="path3354" inkscape:connector-curvature="0" class="st4" d="M111.2,40.7c0,1-0.3,1.4-1,1.4c-0.7,0-1-0.4-1-1.4v-0.4h2
				V40.7z M109.1,38.9v-0.7c0-0.8,0-1.2,0.2-1.4c0.1-0.3,0.5-0.4,0.8-0.4c0.7,0,1,0.4,1,1.4v0.2h1.5c0-1.1-0.1-1.5-0.3-1.9
				c-0.4-0.7-1.2-1.1-2.2-1.1c-0.9,0-1.7,0.3-2.1,0.9c-0.4,0.5-0.5,1.1-0.5,2.2v2.5c0,1.3,0.1,1.9,0.7,2.3c0.4,0.4,1.1,0.7,1.9,0.7
				c0.8,0,1.5-0.3,1.9-0.8c0.5-0.5,0.6-1.1,0.6-2.4v-1.4H109.1"/>
			<path id="path3356" inkscape:connector-curvature="0" class="st4" d="M116.1,42.2c0.7,0.8,1.3,1.2,2.1,1.2c0.9,0,1.3-0.6,1.3-1.9
				V35H118v6c0,0.7-0.1,1-0.6,1c-0.4,0-0.9-0.3-1.3-0.8V35h-1.5v8.2h1.5V42.2"/>
			<path id="path3358" inkscape:connector-curvature="0" class="st4" d="M125.1,41.9h-1.4v-4.4c0-0.8,0.3-1.2,1-1.2
				c0.2,0,0.3,0,0.6,0.1V35c-0.4-0.1-0.7-0.1-1-0.1c-0.8,0-1.3,0.2-1.7,0.6c-0.3,0.4-0.4,0.8-0.4,1.8v4.6H121v1.4h1.2v2.3h1.5v-2.3
				h1.4L125.1,41.9"/>
			<path id="path3360" inkscape:connector-curvature="0" class="st4" d="M126.8,43.3h1.5V35h-1.5V43.3z M126.8,46.1h1.5v-1.6h-1.5
				V46.1z"/>
			<path id="path3362" inkscape:connector-curvature="0" class="st4" d="M131.8,37.8c0-1,0.3-1.5,1-1.5c0.7,0,1,0.5,1,1.5v2.7
				c0,1-0.3,1.5-1,1.5c-0.7,0-1-0.5-1-1.5V37.8z M135.3,37.9c0-1.3-0.1-1.9-0.6-2.3c-0.4-0.4-1.1-0.7-1.9-0.7
				c-0.8,0-1.4,0.2-1.9,0.7c-0.5,0.5-0.6,1-0.6,2.3v2.5c0,1.3,0.2,1.9,0.6,2.4c0.4,0.4,1.1,0.7,1.9,0.7c0.8,0,1.4-0.2,1.9-0.7
				c0.5-0.5,0.6-1.1,0.6-2.4V37.9"/>
			<path id="path3364" inkscape:connector-curvature="0" class="st4" d="M138.8,42.2c0.7,0.8,1.3,1.2,2.1,1.2c0.9,0,1.3-0.6,1.3-1.9
				V35h-1.5v6c0,0.7-0.1,1-0.6,1c-0.4,0-0.9-0.3-1.3-0.8V35h-1.5v8.2h1.5V42.2"/>
			<path id="path3366" inkscape:connector-curvature="0" class="st4" d="M149.3,37.8c0-1,0.3-1.5,1-1.5c0.7,0,1,0.5,1,1.5v2.7
				c0,1-0.3,1.5-1,1.5c-0.7,0-1-0.5-1-1.5V37.8z M152.8,37.9c0-1.3-0.1-1.9-0.6-2.3c-0.4-0.4-1.1-0.7-1.9-0.7
				c-0.8,0-1.4,0.2-1.9,0.7c-0.5,0.5-0.6,1-0.6,2.3v2.5c0,1.3,0.2,1.9,0.6,2.4c0.4,0.4,1.1,0.7,1.9,0.7c0.8,0,1.4-0.2,1.9-0.7
				c0.5-0.5,0.6-1.1,0.6-2.4V37.9"/>
			<path id="path3368" inkscape:connector-curvature="0" class="st4" d="M156,42.2c0.7,0.8,1.3,1.2,2.1,1.2c0.9,0,1.3-0.6,1.3-1.9
				V35h-1.5v6c0,0.7-0.1,1-0.6,1c-0.4,0-0.9-0.3-1.3-0.8V35h-1.5v8.2h1.5V42.2"/>
			<path id="path3370" inkscape:connector-curvature="0" class="st4" d="M81.9,19.6c1.1,0,1.7,0.6,1.7,1.6c0,1.1-0.8,1.8-2,1.8H81
				v-3.4C81,19.6,81.9,19.6,81.9,19.6z M81.6,24.6c1,0,1.7,0.6,1.7,1.6c0,0.4-0.1,0.8-0.4,1c-0.3,0.2-0.6,0.3-1.3,0.3H81v-2.9
				C81,24.6,81.6,24.6,81.6,24.6z M79.3,29.1h2.6c2.1,0,3.2-1,3.2-2.8c0-1.3-0.6-2.1-1.8-2.5c1.5-0.4,2.1-1.2,2.1-2.7
				c0-2-1.2-3.1-3.3-3.1h-2.8L79.3,29.1"/>
			<path id="path3372" inkscape:connector-curvature="0" class="st4" d="M87.2,26.2h1.5V18h-1.5V26.2z M87.2,29.1h1.5v-1.6h-1.5
				V29.1z"/>
			<path id="path3374" inkscape:connector-curvature="0" class="st4" d="M92.2,20.8c0-1,0.3-1.5,1-1.5c0.7,0,1,0.5,1,1.5v2.7
				c0,1-0.3,1.5-1,1.5c-0.7,0-1-0.5-1-1.5V20.8z M95.7,20.9c0-1.3-0.1-1.9-0.6-2.3c-0.4-0.4-1.1-0.7-1.9-0.7c-0.8,0-1.4,0.2-1.9,0.7
				c-0.5,0.5-0.6,1-0.6,2.3v2.5c0,1.3,0.2,1.9,0.6,2.4c0.4,0.4,1.1,0.7,1.9,0.7c0.8,0,1.4-0.2,1.9-0.7c0.5-0.5,0.6-1.1,0.6-2.4V20.9
				"/>
			<path id="path3376" inkscape:connector-curvature="0" class="st4" d="M97.6,29.1h1.5V18h-1.5V29.1z"/>
			<path id="path3378" inkscape:connector-curvature="0" class="st4" d="M102.5,20.8c0-1,0.3-1.5,1-1.5c0.7,0,1,0.5,1,1.5v2.7
				c0,1-0.3,1.5-1,1.5c-0.7,0-1-0.5-1-1.5V20.8z M106.1,20.9c0-1.3-0.1-1.9-0.6-2.3c-0.4-0.4-1.1-0.7-1.9-0.7
				c-0.8,0-1.4,0.2-1.9,0.7c-0.5,0.5-0.6,1-0.6,2.3v2.5c0,1.3,0.2,1.9,0.6,2.4c0.4,0.4,1.1,0.7,1.9,0.7c0.8,0,1.4-0.2,1.9-0.7
				c0.5-0.5,0.6-1.1,0.6-2.4V20.9"/>
			<path id="path3380" inkscape:connector-curvature="0" class="st4" d="M109.4,22.8c0-0.9,0.3-1.3,0.9-1.3c0.6,0,0.9,0.4,0.9,1.3
				v0.9c0,0.9-0.3,1.3-0.9,1.3c-0.6,0-0.9-0.4-0.9-1.3V22.8z M109.5,17.7c-0.2-0.2-0.4-0.5-0.4-0.7c0-0.5,0.4-0.7,1.5-0.7
				c1.1,0,1.6,0.2,1.6,0.7c0,0.3-0.2,0.5-0.6,0.5c-0.2,0-0.4,0-1.2,0.1C110.1,17.7,109.9,17.7,109.5,17.7
				C109.5,17.8,109.5,17.8,109.5,17.7z M113.8,24.7c-0.2,0.2-0.3,0.2-0.5,0.2c-0.3,0-0.4-0.1-0.6-0.3c0.1-0.4,0.2-0.8,0.2-1.4
				c0-2.1-0.9-3.2-2.5-3.2c-0.2,0-0.3,0-0.6,0.1c-0.2-0.1-0.4-0.3-0.4-0.5c0-0.2,0.1-0.3,0.3-0.4c0.2,0,0.3,0,1.3-0.1
				c1-0.1,1.5-0.2,1.9-0.4c0.5-0.3,0.8-0.9,0.8-1.6c0-1.4-1-2.1-3.3-2.1c-1.9,0-2.8,0.5-2.8,1.5c0,0.6,0.4,1,1.3,1.4
				c-0.7,0.3-1,0.6-1,1.1c0,0.6,0.3,1,1.3,1.3c-1,0.5-1.4,1.4-1.4,2.9c0,2.1,0.9,3.1,2.5,3.1c0.9,0,1.5-0.3,2-1c0.2,0.7,0.6,1,1.4,1
				L113.8,24.7"/>
			<path id="path3382" inkscape:connector-curvature="0" class="st4" d="M115.1,26.2h1.5V18h-1.5V26.2z M115.1,29.1h1.5v-1.6h-1.5
				V29.1z"/>
			<path id="path3384" inkscape:connector-curvature="0" class="st4" d="M122.1,23.4v0.2c0,0.9-0.3,1.4-1,1.4
				c-0.4,0-0.7-0.2-0.8-0.4c-0.1-0.3-0.2-0.6-0.2-1.4v-2c0-0.8,0.1-1.1,0.2-1.4c0.1-0.3,0.5-0.4,0.8-0.4c0.7,0,1,0.4,1,1.4v0.2h1.5
				v-0.3c0-1-0.2-1.6-0.6-2c-0.4-0.5-1.1-0.8-2-0.8c-0.9,0-1.7,0.3-2.1,0.9c-0.4,0.5-0.5,1.1-0.5,2.2v2.4c0,1.1,0.1,1.7,0.5,2.2
				c0.4,0.6,1.1,0.9,2.1,0.9c0.8,0,1.5-0.2,2-0.7c0.4-0.4,0.6-1,0.6-2v-0.3H122.1"/>
			<path id="path3386" inkscape:connector-curvature="0" class="st4" d="M128.5,22.3c-1.4-0.7-1.9-1.3-1.9-2.1
				c0-0.5,0.3-0.9,0.8-0.9c0.4,0,0.8,0.3,1.1,0.7V22.3z M128.7,18c-0.1,0.2-0.1,0.6-0.1,1c-0.7-0.8-1.2-1.1-1.9-1.1
				c-1,0-1.7,0.8-1.7,2.2c0,1,0.4,1.7,1.3,2.3c0.4,0.2,0.8,0.4,2.2,1v0.4c0,0.8-0.2,1.2-0.8,1.2c-0.6,0-0.8-0.3-0.9-1.2h-1.6
				c0.1,1.6,1.1,2.5,2.8,2.5c0.8,0,1.3-0.2,1.7-0.6c0.3-0.4,0.4-0.8,0.4-1.8v-3.7c0-1.2,0-1.6,0.2-2.2H128.7"/>
			<path id="path3388" inkscape:connector-curvature="0" class="st4" d="M132.1,29.1h1.5V18h-1.5V29.1z"/>
			<path id="path3390" inkscape:connector-curvature="0" class="st4" d="M141.7,19.6c1.2,0,1.6,0.6,1.6,2.4v3.2
				c0,1.7-0.4,2.4-1.6,2.4h-0.8v-7.9C140.8,19.6,141.7,19.6,141.7,19.6z M139.1,29.1h2.7c2.2,0,3.2-1.1,3.2-3.5v-4.1
				c0-2.4-1-3.5-3.2-3.5h-2.7V29.1"/>
			<path id="path3392" inkscape:connector-curvature="0" class="st4" d="M146.9,26.2h1.5V18h-1.5V26.2z M146.9,29.1h1.5v-1.6h-1.5
				V29.1z"/>
			<path id="path3394" inkscape:connector-curvature="0" class="st4" d="M152,18l-2,8.2h1.6l1.2-5.2l1,5.2h1.6l-1.8-8.2H152"/>
			<path id="path3396" inkscape:connector-curvature="0" class="st4" d="M160.3,23.7c0,1-0.3,1.4-1,1.4c-0.7,0-1-0.4-1-1.4v-0.4h2
				V23.7z M158.3,21.9v-0.7c0-0.8,0-1.2,0.2-1.4c0.1-0.3,0.5-0.4,0.8-0.4c0.7,0,1,0.4,1,1.4v0.2h1.5c0-1.1-0.1-1.5-0.3-1.9
				c-0.4-0.7-1.2-1.1-2.2-1.1c-0.9,0-1.7,0.3-2.1,0.9c-0.4,0.5-0.5,1.1-0.5,2.2v2.5c0,1.3,0.1,1.9,0.7,2.3c0.4,0.4,1.1,0.7,1.9,0.7
				c0.8,0,1.5-0.3,1.9-0.8c0.5-0.5,0.6-1.1,0.6-2.4v-1.4H158.3"/>
			<path id="path3398" inkscape:connector-curvature="0" class="st4" d="M165.2,26.2v-1.4c0.4,1.1,1,1.5,2,1.5v-1.8
				c-0.3,0.1-0.5,0.1-0.7,0.1c-0.4,0-0.7-0.1-1-0.4c-0.2-0.3-0.3-0.5-0.3-1.3v-5h-1.5v8.2H165.2"/>
			<path id="path3400" inkscape:connector-curvature="0" class="st4" d="M171.6,23.8c-0.3,0.9-0.7,1.2-1.3,1.2
				c-0.5,0-0.8-0.3-0.8-0.7c0-0.4,0.2-0.7,1.4-1.3c0.9-0.5,1.3-0.8,1.7-1.1c0.4-0.4,0.6-0.9,0.6-1.6c0-1.5-1-2.4-2.5-2.4
				c-1.4,0-2.3,0.7-2.8,2.3l1.4,0.5c0.3-1,0.7-1.4,1.4-1.4c0.5,0,0.9,0.3,0.9,0.8c0,0.5-0.3,0.8-1.2,1.2c-1.2,0.6-1.4,0.8-1.8,1.2
				c-0.4,0.4-0.6,1-0.6,1.6c0,1.3,1,2.3,2.4,2.3c1.3,0,2.2-0.6,2.7-2L171.6,23.8"/>
			<path id="path3402" inkscape:connector-curvature="0" class="st4" d="M174.7,26.2h1.5V18h-1.5V26.2z M174.7,29.1h1.5v-1.6h-1.5
				V29.1z"/>
			<path id="path3404" inkscape:connector-curvature="0" class="st4" d="M181.7,24.9h-1.4v-4.4c0-0.8,0.3-1.2,1-1.2
				c0.2,0,0.3,0,0.6,0.1V18c-0.4-0.1-0.7-0.1-1-0.1c-0.8,0-1.3,0.2-1.7,0.6c-0.3,0.4-0.4,0.8-0.4,1.8v4.6h-1.2v1.4h1.2v2.3h1.5v-2.3
				h1.4L181.7,24.9"/>
			<path id="path3406" inkscape:connector-curvature="0" class="st4" d="M188.2,26.2l-1.8-7.9c-0.6-2.7-1.2-3.3-3.5-3.3v1.6
				c0.1,0,0.2,0,0.2,0c0.9,0,1.4,0.5,1.4,1.4c0,0.2,0,0.4-0.1,0.7l-1.8,7.5h1.6l1.2-5.6l1.1,5.6L188.2,26.2"/>
		</g>
	</g>
</g>
</svg>
