<svg xmlns="http://www.w3.org/2000/svg" width="55.89" height="47.37"><defs><style>.a{fill:#fff}</style></defs><path class="a" d="M51.88 33.41c-2.3 1.72-5.07 2.31-7.19 4.43-.23.15-.46.38-.72.39a9.52 9.52 0 0 0 2-2.43c1.3-2.21.81-5.17 1.95-7.45a26.55 26.55 0 0 0-1.78 2.4c-1.87 2.83-1.71 6.55-4.52 9 1.66-.56 3.48-.71 5.18-1.17 3.29-1 6.79-4.34 7.22-7.85a6.84 6.84 0 0 1-2.14 2.68zm1.59-11.99a29 29 0 0 0-1.21 4.46l-.12.14v-.05a6.62 6.62 0 0 0 .31-2c.17-3-2.5-4.91-3.11-7.63v1A32.55 32.55 0 0 0 51 24.89a8.4 8.4 0 0 1 .21 3.77c1-1.5 2.22-2.87 3.26-4.35A11 11 0 0 0 55 15c.44 2.39-.65 4.41-1.53 6.42z"/><path class="a" d="M52.62 18.24a.08.08 0 0 1-.08.07 10 10 0 0 0-.48-1.9c-.74-2.26-3.47-3.32-4.58-5.36a13.05 13.05 0 0 0 .77 2.56c1 2.51 3.55 4.41 4.25 7.07.08.25.1.54.19.76a15.6 15.6 0 0 1 1-3.66 9.28 9.28 0 0 0-.86-8.87c-.31-.39-.51-.88-.95-1.14a5.86 5.86 0 0 1 .83 3.41 25.67 25.67 0 0 0-.09 7.06z"/><path class="a" d="M49.26 6.39A42.27 42.27 0 0 0 51 12.13h-.06a6.26 6.26 0 0 0-1-1.56c-1.47-1.92-4-2.42-5-4.71a7.18 7.18 0 0 0 1.66 3.76c1.65 1.78 4.06 2.83 5.19 5.05-.42-2.1.25-4.13-.21-6.21a5.81 5.81 0 0 0-4-4.24 4.44 4.44 0 0 1 1.68 2.17z"/><path class="a" d="M49.21 9L49 8.4a8.7 8.7 0 0 0-2.52-4.71c-1.24-1.11-2.79-1.48-4.24-2.09l1.64 1.66A21 21 0 0 0 49.21 9zm-42.85.28a30.28 30.28 0 0 0 3.3-3 23.88 23.88 0 0 1 3.55-4.39c-2 .77-4.2 1.5-5.39 3.58C7 6.59 7 8.06 6.36 9.28z"/><path class="a" d="M4 15a8.83 8.83 0 0 1 2.15-2.6c2.11-1.48 4.32-3.56 4.35-6.2-.69 1.9-2.74 2.7-4.14 4a6.83 6.83 0 0 0-1.61 2.38c.17-.76.51-1.45.71-2.19.62-2 .5-4.42 2.46-5.76a5 5 0 0 0-2.67 1.69C3.62 8 3.79 10.66 4 13c.07.68-.08 1.35 0 2z"/><path class="a" d="M3.16 21.82c.42-2.83 2.77-4.86 4-7.33a10.87 10.87 0 0 0 .91-3.14 4 4 0 0 1-.83 1.24c-1.63 1.48-3.49 3-3.85 5.15-.06.31-.08.62-.16.92-.07 0-.07-.05-.1-.07l.19-2.66c.07-2.6-1.17-5.48.33-7.76-.05 0-.08 0-.12.05a9.14 9.14 0 0 0-2.27 6c-.16 2.86 1.74 4.88 1.9 7.6z"/><path class="a" d="M4.51 28.87l.15.12a7.71 7.71 0 0 1 .07-3.28c.46-1.65 1-3.26 1.36-5a17 17 0 0 0 .35-4.11 7.29 7.29 0 0 1-.74 2c-1.47 2.23-2.94 4.87-1.92 7.72 0 0-.06.07-.1.05a26.67 26.67 0 0 1-.76-3c-.68-2.68-2.76-4.9-2.16-8a11 11 0 0 0-.61 2.15 12.12 12.12 0 0 0 .51 5.63c.64 2.18 2.77 3.73 3.85 5.72z"/><path class="a" d="M8.82 35.45c-.28-.7-.71-1.36-.92-2.09-.8-3.35-.36-7.21-1.8-10.3.27 1.76-.43 3.31-.59 5a7.08 7.08 0 0 0 .64 3.87c.12.35.45.65.53 1a9 9 0 0 1-1.24-1.64C3.81 28.56.29 26.83.05 23.56a9.18 9.18 0 0 0 .49 4.29c1.31 3.68 5.33 5.59 8.28 7.6z"/><path class="a" d="M14.32 39.86c-2.29-1.84-2.67-4.59-3.65-7a18.39 18.39 0 0 0-2.77-4.2c1.21 2.42.65 5.56 2.26 7.81a9.35 9.35 0 0 0 1.81 2 6.68 6.68 0 0 1-1.61-1.1c-2.76-2.26-6.88-2.57-8.52-6.28a10.38 10.38 0 0 0 5 6.67c2.16 1.52 5 1.29 7.48 2.1z"/><path class="a" d="M20.21 41.34a13.25 13.25 0 0 0 1.31-.22 9.12 9.12 0 0 1-4.4-1.94 41.12 41.12 0 0 0-5.27-4.63c1.5 2 1.9 5 4.65 6 .46.24 1 .21 1.46.48a4.89 4.89 0 0 1-1.48-.19C13 40 8.67 41 6 38a8.91 8.91 0 0 0 5 4.16c3.13 1.04 6.33-.16 9.21-.82z"/><path class="a" d="M38.61 43.23l-2.31-.92a11.08 11.08 0 0 0-7.76-1c-.52.46-1.05-.09-1.59-.1-3.49-.76-6.5.84-9.4 2.09a7.75 7.75 0 0 1-6.88-.59A8 8 0 0 0 21.44 44c1.71-1 3.18-2.85 5.44-2.13a21.35 21.35 0 0 0-6.29 4.48l1.18 1a19.05 19.05 0 0 1 5.09-4.54 3.91 3.91 0 0 1 1.28-.55 22.46 22.46 0 0 1 6.17 5 9.28 9.28 0 0 0 1.13-1 22.51 22.51 0 0 0-6.26-4.34 4.15 4.15 0 0 1 1.24-.12c1.22-.08 2 .78 3 1.38 2.32 1.75 5.42 2.91 8.39 1.8a8 8 0 0 0 3.56-2.49 7.59 7.59 0 0 1-6.76.74z"/><path class="a" d="M40.6 40.45a20.6 20.6 0 0 1-2.58.39 16.46 16.46 0 0 0 2-.76c2.44-1.22 2.6-3.91 4.07-5.8a43.57 43.57 0 0 0-5.37 4.85A9 9 0 0 1 34.47 41l.62.07c3.19.52 6.55 2.07 9.88.81a8.81 8.81 0 0 0 4.92-4.25c-2.29 2.84-6.03 2.31-9.29 2.82zm8.69-16.57c-1.19 3.55-.24 8-2.18 11.19v.12c1.26-1 2.6-1.78 3.91-2.64 3.2-2.18 5.36-5.55 4.77-9.4-.22 2.31-2 4-3.7 5.67a44.65 44.65 0 0 0-2.8 3.76h-.12A7 7 0 0 0 50.38 29c.07-2.22-.89-4.09-.64-6.29zM18.63 37.15a19.9 19.9 0 0 0 9.65 2.5 19.4 19.4 0 0 0 17.16-10.2A20.06 20.06 0 0 0 37.26 2.5 19.9 19.9 0 0 0 27.61 0a19.39 19.39 0 0 0-17.16 10.2 20.05 20.05 0 0 0 8.18 26.95zm-9-12.07a19.43 19.43 0 0 1-.83-4.93h.7a3.21 3.21 0 0 0-.11 1.37l.08.39.08.53.07.26a3.47 3.47 0 0 1 .05-1c.08-.28.2-.33.2-.66l.05.26c.11-.11.1-.2.26-.27a.88.88 0 0 1 .11.24 1.52 1.52 0 0 0 .09.28c.06.1.1.12.15.2a.7.7 0 0 1 .11.23c.05.15.1.37.27.42a1.24 1.24 0 0 0 .05-.51s0-.16.06-.19.14.15.15.22a2.18 2.18 0 0 0 .2.5c.1.18.18.15.31.43v-.11c.06.14 0 .25.14.34a2.08 2.08 0 0 1 0-.5h.12l.1.7a.5.5 0 0 0 .09.24.26.26 0 0 0 .2.06 16 16 0 0 0 3.9 7.26l-2.14 2.14c-.38-.41-.76-.83-1.11-1.27a19.77 19.77 0 0 1-3.37-6.63zm31 3.49l-.15-.47c0-.16-.09-.45-.26-.51 0-.05.07-.11.06-.18s-.35-.13-.46 0 0 .22-.05.3a2.33 2.33 0 0 1-.11.65c-.07.15-.26.36-.26.53a.28.28 0 0 0 .25.2v.41c0 .05.18.07.27.05q-.46.57-1 1.11l-.55-.56a1 1 0 0 0 .18-.44c0-.18-.16-.19-.23-.27s-.05-.09-.1-.11-.22 0-.31 0h-.35a2.14 2.14 0 0 1 .19-1.07c.08-.25.16-.5.23-.75a12.28 12.28 0 0 0 1.77-3.2 12.65 12.65 0 0 0 .79-4h2.83a15.65 15.65 0 0 1-1 5 15.08 15.08 0 0 1-1.8 3.42.09.09 0 0 0 .01-.11zm-2.84-15.65A12.07 12.07 0 0 1 40 19.61h-2.37v-.06c0-.06-.08-.14-.08-.18s.05-.13.1-.2.08-.28.17-.37.14 0 .18-.1-.18-.31-.08-.51a.55.55 0 0 1 .31-.25h.22c.08 0 .08-.2.12-.28s.2-.21.23-.5a.6.6 0 0 0 0-.33.15.15 0 0 0-.26.06.56.56 0 0 0 0 .38.79.79 0 0 1-.1.4c-.09.16-.26.05-.31 0s0-.08 0-.12a2 2 0 0 1 0-.42 2 2 0 0 0 .07-.36 1.79 1.79 0 0 0-.25-.33c-.09-.09-.26-.31-.41-.21s-.11.34-.14.49 0 .19-.1.19-.11 0-.15-.06a.56.56 0 0 1-.21-.38c.06 0 .23.06.25 0s-.11-.22-.19-.21-.1.07-.21 0-.29-.41-.39-.52a1.43 1.43 0 0 0-.47-.38h-.08a8.85 8.85 0 0 0-1.23-1.65L36 12.16h.08v-.1l.57-.57a12.07 12.07 0 0 1 1.11 1.35 1.26 1.26 0 0 0-.17-.13 3.51 3.51 0 0 0-.49-.33 1.45 1.45 0 0 0 .69.54zm.29 13.39l-.08-.46c0-.06-.08-.14-.16-.11s-.23.39-.28.5l-.27.51a2.5 2.5 0 0 1-.21.35 1.46 1.46 0 0 1-.3.17c0-.1-.09-.08-.17-.05l-.37.2a1.06 1.06 0 0 1-.33.18h-.06l-.59-.6.42-.1c.2 0 .29.18.5 0a1.76 1.76 0 0 0 .4-.72l.18-.46.07-.31a1.19 1.19 0 0 0 .12-.62v-.39c0-.16-.06-.28-.23-.12s-.17.28-.38.26c-.06.25 0 .58-.28.73-.09.07-.2 0-.3.07s-.14.07-.18.06a.1.1 0 0 1-.11-.1c0-.08.15-.14.21-.16a.82.82 0 0 0 .44-.29c.09-.13.1-.24.17-.35s.14-.07.21-.16.16-.29.21-.37l.25-.75c.12-.22.33-.26.38-.54v.1c.22-.1.22-.31.18-.51a3.54 3.54 0 0 0 .47 0l.47-.29c.11-.08.31-.22.33-.34s-.1-.37-.15-.43a.11.11 0 0 0-.09-.07c-.1 0-.25 0-.32-.14a4.8 4.8 0 0 1-.28-.68.73.73 0 0 1-.06-.14H40a12.15 12.15 0 0 1-1.89 6.1zm-19.77-7c0-.15-.13-.22-.14-.28s.08-.07.15-.16a.52.52 0 0 0 .12-.3v-.36a.55.55 0 0 1 .35-.44.5.5 0 0 1 .33.1 9.21 9.21 0 0 0-.22 1.74h-.55zm1.19-.22v-.19a9 9 0 0 1 .37-1.69 1.12 1.12 0 0 1 .19.15l.12.14h.1a.84.84 0 0 0 .11-.53c0-.08-.12-.16-.15-.26a.29.29 0 0 1 .06-.19.9.9 0 0 1 .17-.37.62.62 0 0 1 .78-.07c.11.09.1.16.14.22s.18.06.21.18a.52.52 0 0 1 0 .21.44.44 0 0 1 0 .3 2.3 2.3 0 0 0-.23.37c-.06.17 0 .18 0 .33s-.16.26-.21.41 0 .17-.14.24a.66.66 0 0 1-.28.05 1.57 1.57 0 0 0-.32.15.28.28 0 0 0 0 .13c0 .12.13.11.23.08s.38-.16.54 0 .18.52.3.66a.63.63 0 0 0 .32.12.59.59 0 0 1 .22.12h-2.57c.01-.25.02-.42.04-.6zm14.35 7.67a.8.8 0 0 1 .07.2c0 .27-.3.32-.47.46s-.21.25-.32.3a3.57 3.57 0 0 1-.8.34l-.42.08a.51.51 0 0 0-.25.23c0 .08 0 .18-.08.23a2.05 2.05 0 0 1-.61.1c-.17 0-.11-.07-.36-.05a2.9 2.9 0 0 1-.66 0 9.14 9.14 0 0 0 3.9-2zm-4.17-3.3c0-.06 0-.13.07-.13s.16.13.17.23l-.17.08c-.02-.1-.06-.16-.07-.22zm-1.44 4.84V28c.1-.08.27-.12.36-.19s0-.19.16-.24.21 0 .35 0 .25-.17.37-.2.2.13.37.17l.68.15a.18.18 0 0 1 .09 0c.09.07.07.13 0 .17l-.35.1a8 8 0 0 1-2.03.34zm2.63-.73c0-.05.12-.05.19-.06-.1-.12-.18-.07-.3-.08s-.09-.05-.16-.07-.11.06-.2 0-.13-.07-.2-.08-.23-.07-.22-.17 0-.07.07-.07h.06v.09c.22-.09.15 0 .34.05a4.93 4.93 0 0 1 .54 0c.11 0 .08.1.17.2s.28 0 .42 0a7.35 7.35 0 0 1-.77.32v-.06c.03.04.01-.02.06-.07zm1.87-1.21a2.33 2.33 0 0 1-.25.19c-.06.07 0 .11-.13.18l.07-.15c-.07 0-.15 0-.2-.07a.37.37 0 0 1 0-.18 2.11 2.11 0 0 1 .13-.55 1.38 1.38 0 0 1 .24-.11v.13a1 1 0 0 0 .2 0c.07 0 .14-.13.19-.22l.32.32a1 1 0 0 0-.31.1c-.12.14-.15.25-.26.36zm.14-.88l-.15.05s0-.08.06-.14zM32 27.26a.63.63 0 0 1-.32-.1.26.26 0 0 0 .2-.08V27l.34-.18c-.1.17 0 .13 0 .28zm1.81-1.93l-.1.16-.22-.23h.08c.06 0 .18-.08.22 0s.05.03.04.07zm-5.25-.78a.19.19 0 0 0 .05.1c0 .13-.05.09.09.27l-.07.09h.08c0 .15.05.24.19.21a.43.43 0 0 0 .24-.27l.28.46c.05.06.06.16.14.17s.12-.07.15-.14l.12-.11c.05-.11-.05-.27 0-.37a2.46 2.46 0 0 0 .07-.24c0-.14-.12-.17-.19-.25a.3.3 0 0 1-.08-.17l.3-.13c.05.06.06.12.1.16a.45.45 0 0 0 .11 0 .28.28 0 0 0 .13 0c.1 0 .2-.23.3-.3s.14 0 .2 0-.13.18-.16.23-.22.08-.23.2.18.15.18.3-.17 0-.22.1 0 .21.05.31a.43.43 0 0 1 0 .19c-.09.15-.16.06-.28.13s-.2.2-.3.23-.15 0-.21 0-.15.14-.29 0 0-.21 0-.33l-.09-.21c-.11.08-.23.17-.19.33s.19.26.12.37-.18 0-.27.13-.24.29-.28.31-.12.05-.18.1l-.17.17v-.16h.09l.06-.19-.1-.06v-1.59zm.51-8.78zM28 15.61h.24-.09a.35.35 0 0 0-.18.06c-.06.05 0 .17 0 .23l.1.14c-.2.05-.18.2-.16.38A4.44 4.44 0 0 0 28 17a.4.4 0 0 0 .27.22.38.38 0 0 0 .23 0v-.25h.06l.06.2h.08l.26.06v.23c0 .06.18.17.3.16a2.3 2.3 0 0 1 0 .23c0 .1-.05.11.07.32 0 0 .08.14.14.14s.19-.17.33-.24c0 .1 0 .12.12.18v.1l.24-.14c-.07.31-.21.24-.35.44s0 .21-.05.32l.08-.05h.06c.18 0 0 .19.05.23s.05.08.09.09l-.1.07.06.14h-.37a1.25 1.25 0 0 0-.49.29h.06l-.35.17h.62v.08l.45.15h.26c.07 0 .05.16.2.19a1 1 0 0 0 .45-.08l-.17.18.08.14.2-.06c-.15.15-.14 0-.43.06.07 0 .26.12.31.13s.16 0 .31 0 .28.12.33-.07a.23.23 0 0 0 .07.09.37.37 0 0 0 .17 0 .5.5 0 0 1 .25.16l-.05.12a.39.39 0 0 0-.08-.14c-.12-.14-.3-.08-.45-.11l-.3-.08h-.23c-.12 0-.19-.08-.32-.07s-.1 0-.09.07.05.08.07.1a1.4 1.4 0 0 1 .28.14.7.7 0 0 0 .26.08l.11.05h.19a.45.45 0 0 1 .16 0l-.35.16h-.28c.06.12.08.14 0 .25l-.05-.08a1.74 1.74 0 0 1-.11.18l-.09.11s-.07.11-.11.11-.13-.07-.18-.11a.24.24 0 0 0-.23 0c.08.12.12.1.23.15a2.3 2.3 0 0 1 .38.32h-.05c-.05 0 0 .23.05.29a.2.2 0 0 0 .15.05l-.25.23h.16l-.08.07h-.05l-.27-.2-.28-.12a.77.77 0 0 0 .37 0c.18-.1.09-.3 0-.41a.55.55 0 0 0-.26-.06 2.65 2.65 0 0 0-.3-.06l-.22.05v-.07h-.15c-.06 0-.07-.07-.15-.09v.11l-.1-.1v.11c-.06-.08-.06-.1-.14-.14l.07.27v.06a.55.55 0 0 0-.1.43 1.54 1.54 0 0 1-.05.5 1.4 1.4 0 0 1 0 .42s0 .14-.07.22a4 4 0 0 1-2.47-.14 4.22 4.22 0 0 1-2.68-3.26l.05-.08c.1-.11.28-.15.44-.35 0 0-.17-.07-.16-.13s.16-.1.24-.15a.71.71 0 0 0 .23-.39h-.61l-.2-.15a.63.63 0 0 1 0-.19.08.08 0 0 0 .07 0c.08 0 .07-.12.13-.16s.27-.17.3-.34h.28c.08 0 .23.38.31.54-.21-.07-.17.12-.18.26.08 0 .17-.16.25-.18h.27c.06 0 .08 0 .14-.05s.23.06.31.18c.08-.05.07-.09 0-.17h.11l-.06-.16c-.11 0-.13 0-.16.1a.28.28 0 0 0-.19-.07l.07-.07c-.18-.09 0-.15.05-.25a.18.18 0 0 0 0-.15l.26-.1c.11-.14.2 0 .25-.19.21 0 .14-.22.3-.28a.33.33 0 0 1 .14 0l.18-.08a.71.71 0 0 0 .2 0 1.45 1.45 0 0 0 .21-.22c0-.05.11-.12.13-.16a1.31 1.31 0 0 0 0-.23.17.17 0 0 0 .2-.06c.06 0 .05-.13 0-.16h-.1l.28-.25.06-.26h-.08v-.13h-.23l.19-.22c.09-.07.2-.06.24-.19a1.25 1.25 0 0 0-.58.38l-.2.27v-.08c-.2.06-.19.18-.27.23a1.4 1.4 0 0 0-.29 0 .83.83 0 0 1-.42 0c-.06-.06-.11-.11-.19-.07l-.25-.19a4.28 4.28 0 0 1 2.44-.73zm-4.86-.82h-.17l-.24-.23.44.13c.15 0 .3 0 .39.17-.31.02-.26-.03-.47-.07zm-3.48 5.4h2.94l.2.34.21-.19c.07.08.16.07.16 0a.6.6 0 0 0 0-.12.3.3 0 0 1 .05.16.53.53 0 0 1 0 .13v.12a.54.54 0 0 0 0 .1 4.78 4.78 0 0 0 1 2.15l-2.63 2.64a8.65 8.65 0 0 1-2.13-4.9 2.08 2.08 0 0 0 .15-.43zm5.05 3.09a4.68 4.68 0 0 0 1.61 1 4.54 4.54 0 0 0 1.37.29v.64a.29.29 0 0 0-.18.08c-.11.13-.11.3.06.37 0 .17.05.13.12.18V26h-.08l-.07.11-.09.11.24.07c-.12 0-.19 0-.28.16h.28v.25a.12.12 0 0 0-.12.07c0 .05.06.09.12.11v.55c-.19 0-.49-.1-.67-.11s-.17.18-.22.31-.09.13-.1.2a.07.07 0 0 0 0 .06s.07.25.07.22a9.29 9.29 0 0 1-1.77-.34 8.51 8.51 0 0 1-3-1.86zm10.2 4.28a2.72 2.72 0 0 1-.74-.12s.08 0 .07-.07-.13-.27.07-.33h.17l.51.51zm.07-12v.15c0 .03-.1 0-.15 0a.8.8 0 0 0-.26-.14 1.28 1.28 0 0 0 .11.24c.12.15.2.15.18.36a1.42 1.42 0 0 1-.49-.29l.16-.06c-.07 0-.29-.2-.3-.28s.07-.07.07-.14-.05-.09 0-.18.17-.12.16-.2-.05-.08-.09-.1-.25-.16-.34-.07 0 .21-.06.4a1.69 1.69 0 0 0-.24-.08h-.29a.53.53 0 0 1-.15-.08l.57-.57h.21c.08 0 .07.08.15.07s.07-.13 0-.19-.24-.15-.26.06a.12.12 0 0 1 0-.08l.24-.24a7.49 7.49 0 0 1 1 1.27c-.2-.13-.26.02-.27.12zm-1.58-1.69l-.17-.08a1.43 1.43 0 0 0-.39-.15c-.13 0-.16.08-.26.13s-.12.05-.17.1 0 .19 0 .27c.29 0 .24-.11.41-.12a.58.58 0 0 1 .29 0v.08h.08l-.64.64h-.18a1.15 1.15 0 0 0-.36.07.41.41 0 0 0-.15.18c-.09.11-.27.17-.25.34s.1.13.15.16l-.33.33-.3.07c-.25 0-.33-.14-.48-.21s-.15 0-.22-.06a.72.72 0 0 1-.09-.14.52.52 0 0 0-.32-.07 2.28 2.28 0 0 0-.36-.15l.21-.13c.07-.05.19-.1.25-.15a1 1 0 0 0 .16-.8c-.32.13-.23.15-.45.27a1.22 1.22 0 0 1-.17.08.24.24 0 0 0-.09.17c-.23 0-.08.24-.11.34a.27.27 0 0 1-.1.12 5.52 5.52 0 0 0-1.05-.19v-3.62a8.46 8.46 0 0 1 5.45 2.24zm-5.76 1.19a4.78 4.78 0 0 0-2.48.89.6.6 0 0 1-.12-.38.75.75 0 0 0-.09-.31.6.6 0 0 0-.08-.16 2.31 2.31 0 0 0-.23-.18.62.62 0 0 0-.31-.18c-.15 0-.26.06-.39 0s-.24-.16-.37-.21a.82.82 0 0 0-.27 0s0-.12-.06-.14-.19 0-.27 0-.11 0-.17-.06a.92.92 0 0 0-.29 0l-.51-.51a8.59 8.59 0 0 1 5.69-2.47zm-5.53-.24h-.15c-.15 0-.18-.11-.27-.15a.21.21 0 0 0-.24 0A1.57 1.57 0 0 0 21 15l-.1.06a7.64 7.64 0 0 1 .61-.77zm-3.77 5.34l.07.07v-.07h.47a9.07 9.07 0 0 0 .82 3.41 9 9 0 0 0 1.5 2.3l-1.77 1.76-.14-.17-.2-.31L19 27a.84.84 0 0 1-.07-.24l-.23-.58c-.1-.2-.31-.18-.44-.46a1.2 1.2 0 0 0 .4.31 2.85 2.85 0 0 0-.28-.55l-.21-.21a.77.77 0 0 0 .35.2v-.17c.07-.18.13-.2.13-.41s-.35-.86-.39-1.29a2.73 2.73 0 0 1 0-.57v-.75a.75.75 0 0 0 0-.29l-.1-.35v-.57c0-.24.11-.36.13-.53a.58.58 0 0 0-.14-.34H18zm2.1 9c-.05-.16-.3-.33-.43-.59s-.14-.26-.21-.39l1.83-1.83a8.84 8.84 0 0 0 3.15 2 8.44 8.44 0 0 0 1.74.46.52.52 0 0 0-.15.07c-.14.1-.07.18-.23.25a3.14 3.14 0 0 1-.45 0 1.28 1.28 0 0 0-.54.18l-.22.08c-.08 0-.24.06-.28.13s0 .14 0 .2a1.11 1.11 0 0 1 0 .19c-.11.16-.39.29-.34.51s.12.16.28.29a5.44 5.44 0 0 0 .59.67 4 4 0 0 0 .43.27 11.6 11.6 0 0 1-1.89-.54 11.79 11.79 0 0 1-3.29-1.86.24.24 0 0 0 .01-.14zm15.28-17.6l-.35-.41s-.12-.16-.11-.22a.42.42 0 0 1 .19-.06l-.4-.36s-.11-.11-.19-.08-.11.13-.15.2-.09.13-.08.19a.81.81 0 0 0 .17.23l.37.3a.62.62 0 0 0 .27.21l-.06-.1a.41.41 0 0 1 .23.15v.05l-1.54 1.53a9.1 9.1 0 0 0-5.85-2.4v-3a12.17 12.17 0 0 1 3.92.76 12 12 0 0 1 4.05 2.53zm-8.08-.77a9.14 9.14 0 0 0-6.08 2.63l-2.12-2.11a12.11 12.11 0 0 1 8.21-3.52zm-6.49 3.07a9.08 9.08 0 0 0-1.64 2.7v.05a2.1 2.1 0 0 0-.18.39 2 2 0 0 1-.35.21l-.16.06a.59.59 0 0 0-.13.18l-.2.22a3.22 3.22 0 0 0-.28.51c0 .14.23.2.11.4l-.06.07c-.13.1-.17 0-.27-.06s-.32.13-.44 0 0-.18-.05-.27a2.09 2.09 0 0 0-.1-.21c-.05-.1 0-.29-.16-.49s-.16-.15-.23 0v.13c-.09-.18 0-.33-.19-.36s-.25.21-.36.35a1.2 1.2 0 0 1-.35.33 12 12 0 0 1 3-6.37zm-7.6 10.88v.27a1.87 1.87 0 0 0 .11.51 3.43 3.43 0 0 0 .3.68 3.63 3.63 0 0 0 .46.41 5.16 5.16 0 0 0 .6.53l.27.18.22.15c.2.11.22-.08.34-.09a1.81 1.81 0 0 1 .36.23 3 3 0 0 1 .47.52l.54.58c.14.13.31.39.5.41h.19l-1.23 1.23a15.41 15.41 0 0 1-2.79-4.16c-.16-.36-.31-.72-.44-1.08a.79.79 0 0 0 0-.09c.08-.02.04-.19.1-.28zm.18-4.58h1.18a.39.39 0 0 1-.21.24.81.81 0 0 1-.31 0c-.07 0-.12-.1-.18-.11a.83.83 0 0 1-.38-.05zM19 29l.34.13.2.1a12.49 12.49 0 0 0 4 2.44 12.63 12.63 0 0 0 4.1.79v2.83a15.55 15.55 0 0 1-10.52-4.43zm9.26 3.46a12.81 12.81 0 0 0 2.24-.26c-.05.13-.17.28-.05.38a2.62 2.62 0 0 0 .64.17 1.39 1.39 0 0 1 .51.27c.05 0 .05.08.1.14s.15.08.16.15-.13.17-.16.22-.33.4-.21.58a.84.84 0 0 0 .24.14l.6.18a.48.48 0 0 1 .22.16 15.46 15.46 0 0 1-4.29.7zm9.89-1a.21.21 0 0 0-.08-.17h-.32a3.46 3.46 0 0 1 .3-.57l.45.45zm2.4-11.78A12.67 12.67 0 0 0 37 11.1l.69-.67a1.26 1.26 0 0 0 .2.2 1.28 1.28 0 0 0 .32.12 2.51 2.51 0 0 1 .29.2c.18.09.19 0 .4.19a10 10 0 0 1 .74.71 1.65 1.65 0 0 0 .43.33h.06l.23-.12v-.21c0-.06 0-.09.06-.17s0-.19.06-.22.18.07.22.09a1.6 1.6 0 0 0-.48-.83l-.37-.3a7.19 7.19 0 0 0-.5-.6c-.22-.19-.4-.23-.6-.38l.25-.33a15.58 15.58 0 0 1 4.36 10.49zM38.31 9l-.46-.38a3.64 3.64 0 0 1-.46-.5c-.13-.17-.09-.24-.16-.32a.89.89 0 0 0-.31-.14v-.08l-.15-.07c.09-.17 0-.12-.15-.28a.48.48 0 0 1-.08-.16 14.43 14.43 0 0 1 2 1.64zm-4.75-2.2l.32.33c.09.09.12.15.22.27a2.2 2.2 0 0 1 .34.28c.07.1 0 .13.05.27s.25.26.31.38 0 .21.11.26.14 0 .2 0 .4-.19.49-.13a3.81 3.81 0 0 1 .46.44s.14.13.13.19-.32 0-.24.13.22.14.29.2l.25.23.3.22c.07.06.14.17.21.21s.17-.07.26-.05l-.66.66A12.53 12.53 0 0 0 32.35 8a12.71 12.71 0 0 0-4.11-.8V4.52h.09a2 2 0 0 0 .64.23l-.3-.32a15.36 15.36 0 0 1 4.62 1c.41.15.81.32 1.2.5A2.72 2.72 0 0 0 34 6c-.18 0-.58 0-.7.21s.14.48.26.59zm-5.91.43a12.59 12.59 0 0 0-4.93 1.14 12.3 12.3 0 0 0-3.67 2.54l-2-2a15.48 15.48 0 0 1 10.6-4.51zm-9 4.11a12.66 12.66 0 0 0-2.48 4.08 12.38 12.38 0 0 0-.74 3.23 1.48 1.48 0 0 0-.2.42l-.12.49h-2.52l-.06-.12a15.5 15.5 0 0 1 4.11-10.09zm-4 22l2.14-2.13a15.91 15.91 0 0 0 5.62 3.58 15.69 15.69 0 0 0 5.29 1V39a19.55 19.55 0 0 1-8.7-2.41 19.29 19.29 0 0 1-4.41-3.26zM28.28 39v-3.2a16.1 16.1 0 0 0 5-.92l.54.13c.22.07.13.2.29.22a2.28 2.28 0 0 0 1.2-.48l.59-.3c.23-.12.44-.27.66-.41a3.07 3.07 0 0 0 .93-1.16c.05-.1.17-.29.23-.42.41-.31.79-.64 1.17-1l2.39 2.38a18.09 18.09 0 0 1-3.44 2.58A19 19 0 0 1 28.28 39zm16.59-9.86a19 19 0 0 1-3.18 4.3l-2.38-2.39a16 16 0 0 0 4.6-10.85h3.21c0 .56 0 1.13-.08 1.7a18.77 18.77 0 0 1-2.17 7.24zm1.41-14.57a19.31 19.31 0 0 1 .83 5h-3.2a16 16 0 0 0-4.49-10.85l2.14-2.14c.44.46.87.93 1.27 1.43a19.67 19.67 0 0 1 3.45 6.56zm-5.14-8.41L39 8.29A16.16 16.16 0 0 0 30.2 4a2.33 2.33 0 0 0 .8-.14c-.1-.14-.16-.13-.31-.18a1.3 1.3 0 0 0-.73 0c-.22.06-.21.15-.5.17H28.3V.66a19.69 19.69 0 0 1 12.89 5.5zM18.06 3.22A19 19 0 0 1 27.61.65v3.2a16 16 0 0 0-11 4.67l-2.34-2.38a18.59 18.59 0 0 1 3.79-2.92zm-4.2 3.34L16.24 9A16.07 16.07 0 0 0 13 14.23a16.27 16.27 0 0 0-1 4.94c-.09-.06-.22-.18-.3-.22s-.09-.08-.13-.05-.05.08-.07.13a.4.4 0 0 0 .14.32s.09.09 0 .14-.23-.25-.34-.1 0 .07 0 .09l-.1-.34V19l-.2-.32-.17.16v-.19l-.06-.14c0-.1-.11-.09-.19 0s-.26.29-.36.36-.2 0-.28.05a.47.47 0 0 0-.2.29l-.07.38h-.9c0-.6 0-1.2.08-1.8A18.7 18.7 0 0 1 11 10.5a18.46 18.46 0 0 1 2.86-3.94z"/><path class="a" d="M38.47 14.17a3 3 0 0 0-.36-.48 1.13 1.13 0 0 0 .21.35c.05.1.03.17.15.13zm-.47-.64c-.1-.18-.23-.44-.42-.5a1.08 1.08 0 0 0 .42.5zm1 1.97l.21.65a.46.46 0 0 0 0-.44c-.09-.28-.23-.56-.34-.82a1.1 1.1 0 0 0-.25-.37 2.41 2.41 0 0 0 .18.65zm-28.49 8.81c0 .31.08.3.15.57a1.39 1.39 0 0 0 .09.47c0 .12.09.24.22.29a3.31 3.31 0 0 0-.2-.88 3.15 3.15 0 0 1-.26-.45zm14.33-4.43s-.05.07-.07.11a.09.09 0 0 0 .12.1c.06 0 .13-.14.18-.19l.14-.07c.06 0 .13-.12.19-.16s.18-.06.24-.27v-.11c0-.04-.38 0-.4-.05h-.13a1.41 1.41 0 0 0-.18 0c.14.13.14.15.33.14 0 .13-.2.33-.33.24s-.1-.14-.14-.16-.07.11-.11.16-.23.14-.25.39l.08-.05c.09.15.24-.03.33-.08zm.78-.52zm10.02-4.52h-.12v.1l.07.06c.14.07.2-.06.15-.14s-.05-.02-.1-.02zM37 13.37a.34.34 0 0 0-.29-.14l.26.29a3 3 0 0 0 .32.39.41.41 0 0 0 .34.09c.08 0 .32-.28.12-.38s-.16 0-.22 0a1.5 1.5 0 0 0 0-.37s0-.13-.1-.1 0 .35-.14.26h-.06l-.07-.06c-.07.09 0 .12.08.2a.36.36 0 0 1 .18.27c-.26-.15-.28-.27-.42-.45zm2.06 2.79c-.23 0-.13.28-.15.34a.34.34 0 0 1 0 .15 1.47 1.47 0 0 0 0 .69l-.05.75.06.33a2.08 2.08 0 0 0 .18-.66c.09-.45.3-.65.24-1.21-.08-.12-.13-.36-.28-.39zm-.91-1.69a.84.84 0 0 0-.45-.19l-.24-.1v.23l-.28-.1a.72.72 0 0 0 .18.48l.22.17a5 5 0 0 1 .53.49 1.39 1.39 0 0 1 .2.32c.05 0 .09.07.15.05s.05-.13.07-.17l.07-.14a.62.62 0 0 0-.1-.36l-.14-.3a1.35 1.35 0 0 0-.21-.38zM26.1 19c0-.12 0-.1.12-.09v-.21a1.67 1.67 0 0 0-.2.08c-.1.15-.09.22.08.22zm-.1.8v-.1a.65.65 0 0 0-.22.08s0 .13-.1.2a.81.81 0 0 1-.29.19c-.06 0 0 .09-.13.16s-.22 0-.3.07a1.35 1.35 0 0 0-.33.26.8.8 0 0 0-.18.37s-.05.1 0 .14a.09.09 0 0 0 .13 0 1.11 1.11 0 0 1 .32-.11c.06 0 .08 0 .13.05s.1 0 .14 0a.67.67 0 0 1 .14.11c.11 0 .22-.08.25-.17a.29.29 0 0 0 0-.14l.07.05a2.29 2.29 0 0 0 .29-.36c.09-.11.15-.11.21-.16s0-.09 0-.15.1-.11.08-.26-.09-.26-.21-.23z"/><path class="a" d="M26.16 19.39a.26.26 0 0 0-.21 0 .24.24 0 0 0-.05-.1c-.16-.15-.36.28-.1.2.05.12.25.24.37.34a.2.2 0 0 0 .07-.09c.05-.09.03-.3-.08-.35zm-.33-.59l.05-.09c.12 0 .13-.12.08-.21l-.09-.06c-.22-.12-.24.06-.29.15l-.09.18.07.07a.58.58 0 0 1 .32 0zm13.01 2.09a.21.21 0 0 0-.12.22.14.14 0 0 0 .19.15c.09-.05.16-.41-.07-.37zm-11.26 2.24a.14.14 0 0 0-.11 0V23h-.07v.14l-.05-.05v.25c0 .14.2.08.23 0a.21.21 0 0 0 .05-.15.16.16 0 0 0-.05-.06zM26 18.7a.53.53 0 0 0 .12 0 .24.24 0 0 0 0-.31c-.06 0-.1.05-.09.09v.25z"/><path class="a" d="M26 19.07c-.1 0-.12 0-.13.12h-.1v.06c.16-.03.23-.03.23-.18zm.85 7.14a1 1 0 0 0 .41-.06c.07-.07 0-.15.08-.22l.07-.09c0-.1-.21-.23-.33-.15s-.13 0-.21.1 0 .1-.06.19-.08.07-.08.11.06.1.12.12zm2.76 1.56h-.2l.05.12s0 .06.05.06.33-.14.1-.18zm-9.46-9.9a1.05 1.05 0 0 1-.07.53 4.88 4.88 0 0 0-.32.65l-.05-.05a.76.76 0 0 0 0 .57 1.6 1.6 0 0 0 .2-.39 3.84 3.84 0 0 0 .39-.85.86.86 0 0 0 0-.39s-.11-.05-.15-.07zm9.44 9.86v-.23c-.12.09-.16.16 0 .23zM32 14.46c.11-.05.13-.09.21-.12s.3 0 .24-.13l-.07-.05v.06a.86.86 0 0 0-.24-.17 1.92 1.92 0 0 0-.48 0l.2.14zm-.46.75c.07-.07.08-.17.13-.26s.25-.25.27-.46h-.19c0 .08 0 .21-.12.24a.33.33 0 0 1-.13 0l-.08.24a.93.93 0 0 0-.09.3c-.01.04.13.03.21-.06z"/></svg>