<?xml version="1.0" encoding="UTF-8" standalone="no"?>
<!-- Created with Inkscape (http://www.inkscape.org/) -->

<svg
   xmlns:svg="http://www.w3.org/2000/svg"
   xmlns="http://www.w3.org/2000/svg"
   version="1.1"
   width="183"
   height="215"
   id="svg4888">
  <defs
     id="defs4890" />
  <g
     transform="translate(-668.39198,-497.89655)"
     id="layer1">
    <path
       d="m 747.01006,622.40619 c -19.48,-5.89 -33.66,-23.97 -33.66,-45.365 0,-3.865 0.465,-7.62 1.345,-11.21 l 30.75,3.945 c 0,0 11.815,0.52 11.38,21.43 -0.43,20.3 -9.815,31.2 -9.815,31.2"
       id="path234"
       style="fill:#000;fill-opacity:1;fill-rule:nonzero;stroke:none" />
    <path
       d="m 774.50006,622.40619 c 19.48,-5.89 33.665,-23.97 33.665,-45.365 0,-3.865 -0.46,-7.62 -1.335,-11.21 l -30.765,3.945 c 0,0 -11.815,0.52 -11.37,21.43 0.415,20.3 9.805,31.2 9.805,31.2"
       id="path236"
       style="fill:#000;fill-opacity:1;fill-rule:nonzero;stroke:none" />
    <path
       d="m 760.76006,543.12119 c 3.95,0 7.175,3.21 7.175,7.18 0,3.075 -2.125,5.38 -4.7,6.745 -0.3,0.17 -0.605,0.31 -0.54,0.8 0.07,0.505 1.535,0.78 2.165,0.93 l 41.37,4.8 c -5.81,-19.61 -23.96,-33.915 -45.445,-33.915 l -0.06,0 c -21.49,0 -39.635,14.305 -45.435,33.915 l 41.355,-4.8 c 0.63,-0.15 2.105,-0.425 2.17,-0.93 0.06,-0.49 -0.2352,-0.63 -0.545,-0.8 -2.575,-1.365 -4.69,-3.67 -4.69,-6.745 0,-3.97 3.215,-7.18 7.18,-7.18"
       id="path238"
       style="fill:#000;fill-opacity:1;fill-rule:nonzero;stroke:none" />
    <path
       d="m 779.65006,655.93619 2.8,-1.75 c 0,0 -13.3,-18.015 -43.035,-18.015 -15.225,0 -23.095,6.12 -33.765,6.12 0,0 -4.38,0.535 -8.57,-2.095 0,0 5.07,7.345 23.44,7.345 13.465,0 23.085,-7.87 32.535,-7.87 12.955,0 22.575,11.55 26.595,16.265"
       id="path240"
       style="fill:#000;fill-opacity:1;fill-rule:nonzero;stroke:none" />
    <path
       d="m 738.35506,655.93619 -2.795,-1.75 c 0,0 13.295,-18.015 43.045,-18.015 15.215,0 23.085,6.12 33.76,6.12 0,0 4.38,0.535 8.565,-2.095 0,0 -5.065,7.345 -23.435,7.345 -13.475,0 -23.095,-7.87 -32.545,-7.87 -12.93,0 -22.57,11.55 -26.595,16.265"
       id="path242"
       style="fill:#000;fill-opacity:1;fill-rule:nonzero;stroke:none" />
    <path
       d="m 724.19006,634.60119 c -0.515,1.395 -6.21,-0.27 -10.05,0.87 -4.295,1.27 -27.035,4.025 -37.005,-19.585 0,0 9.455,10.135 16.79,10.835 7.345,0.7 15.395,2.45 22.225,6.3 l 1.57,0.3552 c 0,0 -0.22,-0.705 -0.88,-1.05 -0.895,-0.48 -7.965,-2.77 -11.37,-14 -1.74,-5.775 -1.39,-9.975 -2.095,-12.94 0,0 7.7,8.57 10.845,13.99 3.145,5.425 3.5,11.545 9.97,15.225"
       id="path244"
       style="fill:#000;fill-opacity:1;fill-rule:nonzero;stroke:none" />
    <path
       d="m 701.01506,622.69619 c -0.58,0.57 -2.01,-0.3452 -2.535,-0.61 -0.52,-0.26 -4.305,-1.985 -10.765,-4.285 -6.385,-2.27 -18.28,-12.335 -17.145,-29.565 0,0 1.665,6.47 6.565,10.76 4.885,4.285 6.655,4.81 9.62,8.305 2.97,3.5 9.71,11.46 9.97,11.38 0.2648,-0.09 0.3552,-0.53 -0.17,-0.965 -0.525,-0.435 -2.275,-4.805 -3.42,-6.3 -1.13,-1.485 -4.54,-11.725 0.445,-24.315 0,0 5.335,9.18 4.98,18.455 -0.3448,9.27 -0.79,7.085 1.485,14.785 0,0 1.225,2.1 0.97,2.355"
       id="path246"
       style="fill:#000;fill-opacity:1;fill-rule:nonzero;stroke:none" />
    <path
       d="m 686.13506,600.22619 c -0.3,0.31 -1.66,-1.665 -2.7,-3.5 -1.055,-1.84 -8.395,-9.71 -9.365,-11.29 -0.955,-1.575 -9.185,-11.55 -2.975,-26.33 0,0 0.615,-0.1748 0.615,3.325 0,3.495 3.24,11.285 5.86,14.61 2.62,3.32 4.985,8.66 5.51,14.345 0,0 0.3552,1.05 0.79,1.135 0.435,0.09 0.435,-1.045 0.435,-1.045 0,0 -0.3448,-5.25 -0.3448,-8.84 0,-3.59 1.57,-9.71 4.98,-13.21 0,0 1.575,-1.75 2.54,-3.845 0,0 0.605,-1.405 1.485,-2.095 0,0 0.7,10.055 -2.71,19.415 -3.41,9.365 -4.545,10.935 -4.025,16.01 0,0 0.09,1.135 -0.0948,1.315"
       id="path248"
       style="fill:#000;fill-opacity:1;fill-rule:nonzero;stroke:none" />
    <path
       d="m 680.36006,572.58119 c -0.3452,0 -0.605,-1.225 -0.77,-2.19 -0.18,-0.965 -1.225,-6.56 -1.94,-7.785 -0.69,-1.225 -3.31,-6.82 -3.4,-13.385 -0.09,-6.56 2.885,-15.475 9.54,-22.565 0,0 -0.2648,2.1 -2.015,6.735 -1.76,4.635 -0.705,9.005 -0.535,9.795 0.18,0.785 0.78,6.205 0.78,8.745 0,2.015 -0.515,8.925 -0.95,10.33 0,0 -0.1752,0.96 0.17,0.96 0.3552,0 0.7,-0.79 0.7,-0.79 0,0 0.36,-5.42 4.38,-10.32 4.015,-4.9 11.275,-7.875 12.42,-10.065 0,0 -0.525,7.705 -9.015,16.715 -7.55,8.02 -5.33,3.935 -7.785,10.49 0,0 -1.045,2.45 -1.045,2.975 0,0.525 -0.535,0.3552 -0.535,0.3552"
       id="path250"
       style="fill:#000;fill-opacity:1;fill-rule:nonzero;stroke:none" />
    <path
       d="m 685.01506,546.68619 c 0,0 -0.1848,-1.05 1.12,-3.41 1.325,-2.36 -0.08,-6.565 1.67,-12.685 1.74,-6.125 4.985,-16.62 17.32,-22.915 0,0 -1.225,1.135 -1.84,2.005 -0.62,0.875 -3.935,7.18 -4.9,11.55 -0.96,4.38 -5.155,11.72 -6.735,13.385 -1.57,1.66 -0.87,1.84 -0.87,1.84 0,0 0.78,-0.18 1.57,-1.405 0.785,-1.225 4.81,-5.775 9.265,-6.82 4.47,-1.05 11.55,-3.15 11.995,-3.59 0,0 -7.705,7.88 -14.79,11.905 -7.08,4.015 -7.86,2.79 -12.065,8.215 0,0 -1.395,1.925 -1.74,1.925"
       id="path252"
       style="fill:#000;fill-opacity:1;fill-rule:nonzero;stroke:none" />
    <path
       d="m 701.97506,523.33119 c 0,0 0,-0.695 1.31,-1.925 1.315,-1.225 2.62,-4.895 4.905,-8.31 2.265,-3.415 7.425,-12.33 20.81,-14.43 0,0 -4.02,2.975 -4.635,3.94 -0.605,0.955 -4.545,6.12 -6.29,7.865 -1.755,1.75 -6.74,5.425 -8.41,6.21 0,0 -0.87,0.705 -0.695,0.96 0.18,0.2652 1.05,-0.2548 1.05,-0.2548 0,0 4.645,-3.59 10.24,-3.765 5.59,-0.17 11.45,0.0852 12.33,0.1748 0,0 -5.25,3.59 -17.755,5.86 -12.505,2.275 -10.155,2.365 -12.07,3.59 0,0 -0.435,0.3452 -0.79,0.0852"
       id="path254"
       style="fill:#000;fill-opacity:1;fill-rule:nonzero;stroke:none" />
    <path
       d="m 724.27506,508.81119 c 0,0 0.27,-0.695 2.285,-1.315 2.005,-0.61 1.83,-2.54 7.95,-5.77 6.13,-3.235 12.515,-4.73 18.98,-2.01 0,0 -2.7,0.3452 -3.14,0.525 -0.44,0.17 -5.075,1.4 -6.39,2.095 -1.315,0.705 -8.045,3.68 -10.755,4.2 -2.71,0.525 -1.395,0.705 -1.395,0.705 0,0 0.61,0.2552 1.13,0.2552 0.53,0 6.56,-0.61 10.495,0.79 3.935,1.395 3.85,1.925 5.43,2.45 1.57,0.525 3.41,0.875 3.67,1.485 0,0 -3.935,0.3552 -6.31,0.3552 -2.355,0 -8.555,-0.61 -11.54,-2.02 -2.975,-1.395 -6.385,-2.01 -7.52,-1.745 -1.14,0.26 -2.535,0.26 -2.89,0"
       id="path256"
       style="fill:#000;fill-opacity:1;fill-rule:nonzero;stroke:none" />
    <path
       d="m 749.12006,505.74619 c 0,0 0.27,-0.3452 2.02,-0.695 1.74,-0.35 2.185,-1.4 6.295,-2.275 4.105,-0.875 10.5,-1.665 16.355,2.36 0,0 -3.59,-0.0852 -4.38,-0.0852 -0.78,0 -7.61,1.22 -9.175,1.22 -1.58,0 -4.725,-0.695 -5.17,-0.17 -0.425,0.52 2.895,1.225 3.42,1.395 0.515,0.18 2.885,0.3552 5.86,3.24 2.97,2.885 5.065,4.46 5.42,4.635 0,0 -8.75,-2.01 -10.935,-3.235 -2.185,-1.225 -5.95,-4.985 -6.555,-5.25 -0.615,-0.2652 -3.155,-1.14 -3.155,-1.14"
       id="path258"
       style="fill:#000;fill-opacity:1;fill-rule:nonzero;stroke:none" />
    <path
       d="m 769.33006,509.33619 c 0,0 5.515,-0.1748 9.54,2.365 4.015,2.53 7.255,5.855 7.605,7.87 0,0 -2.275,-1.93 -3.76,-2.36 -1.49,-0.44 -5.695,-2.8 -6.565,-3.325 -0.875,-0.525 -5.95,-3.765 -6.82,-4.55"
       id="path260"
       style="fill:#000;fill-opacity:1;fill-rule:nonzero;stroke:none" />
    <path
       d="m 795.22506,635.56119 c 0,0 0.78,-0.79 3.4,-3.065 2.63,-2.275 3.32,-5.595 6.22,-10.76 2.885,-5.16 5.325,-8.75 11.19,-13.995 0,0 -1.04,3.935 -1.135,5.17 -0.08,1.225 -1.05,8.035 -4.37,11.98 -3.325,3.935 -3.5,4.815 -7.355,7.17 0,0 -1.485,1.045 -1.395,1.4 0.0848,0.35 2.63,-0.0852 2.63,-0.0852 0,0 2.795,-1.05 3.665,-1.575 0.87,-0.53 4.815,-2.54 6.39,-3.15 1.57,-0.615 2.885,-1.23 6.385,-2.275 3.5,-1.05 16.175,-4.29 21.165,-12.34 0,0 -1.48,4.725 -3.32,6.91 -1.84,2.195 -12.24,15.93 -26.685,15.66 0,0 -5.685,-0.435 -8.66,-0.96 -2.965,-0.52 -4.025,-0.52 -4.46,-0.435 -0.435,0.08 -3.24,0.605 -3.665,0.35"
       id="path262"
       style="fill:#000;fill-opacity:1;fill-rule:nonzero;stroke:none" />
    <path
       d="m 827.50006,586.48119 c 0,0 -5.435,8.495 -6.65,20.735 -1.225,12.25 0.87,8.58 -1.135,14 0,0 -0.705,1.39 -0.435,1.48 0.2548,0.09 1.31,-0.525 5.16,-2.875 3.845,-2.375 7.6,-1.67 15.82,-9.54 8.23,-7.87 9.895,-23.53 10.06,-24.845 0,0 -1.225,1.225 -1.83,3.325 -0.61,2.1 -1.925,3.76 -2.185,4.03 -0.2648,0.2552 -9.19,10.055 -10.24,10.925 -1.05,0.88 -6.295,7.265 -7.425,9.095 -1.14,1.84 -4.47,5.17 -5.08,4.905 0,0 0.09,-0.79 0.3552,-1.395 0.2552,-0.615 2.71,-3.945 3.755,-7.79 1.05,-3.85 1.315,-6.21 1.405,-8.66 0.08,-2.455 -1.5,-11.46 -1.575,-13.39"
       id="path264"
       style="fill:#000;fill-opacity:1;fill-rule:nonzero;stroke:none" />
    <path
       d="m 834.85006,598.29619 c 0,0 -0.55,-1.27 -0.09,-2.185 0.2548,-0.525 0.525,-4.725 -1.05,-8.135 -1.57,-3.41 -4.99,-12.865 -4.725,-19.16 0.26,-6.3 0.96,-7.17 0.96,-7.17 0,0 1.75,5.16 2.275,6.03 0.53,0.88 5.775,10.155 5.34,15.225 -0.445,5.075 -0.705,6.645 -0.445,6.735 0.2752,0.09 0.88,-0.615 0.96,-1.225 0.0952,-0.615 0.965,-4.115 2.625,-8.225 1.665,-4.105 8.395,-13.205 9.89,-19.24 0,0 2.185,10.5 -3.68,20.29 -5.855,9.805 -6.475,7.61 -8.915,12.075 -2.445,4.46 -2.8,4.985 -3.145,4.985"
       id="path266"
       style="fill:#000;fill-opacity:1;fill-rule:nonzero;stroke:none" />
    <path
       d="m 840.18006,570.56619 c -0.435,-0.09 -0.18,-4.115 -1.23,-5.425 -1.045,-1.31 -10.055,-11.98 -11.97,-22.655 0,0 5.675,5.775 6.64,6.385 0.96,0.615 4.81,4.465 5.945,7.79 1.135,3.32 0.87,6.125 1.315,6.205 0.445,0.0852 0.445,-3.67 0.445,-3.67 0,0 0.08,-7.345 0.69,-10.845 0.615,-3.5 2.195,-9.36 1.495,-12.34 0,0 3.4,5.425 3.225,13.13 -0.17,7.69 -3.405,13.81 -3.84,14.69 -0.445,0.88 -1.66,4.64 -1.66,5.42 0,0.79 -1.055,1.315 -1.055,1.315"
       id="path268"
       style="fill:#000;fill-opacity:1;fill-rule:nonzero;stroke:none" />
    <path
       d="m 829.51006,515.80619 c 0,0 11.815,7 9.965,30.445 0,0 0,1.045 -0.69,-0.0852 -0.71,-1.14 -3.235,-4.38 -4.38,-5.085 -1.14,-0.69 -11.63,-7.075 -16.095,-16.875 0,0 0.7,-0.18 1.75,0.785 1.055,0.965 4.29,2.625 4.815,2.89 0.525,0.26 4.2,1.23 6.91,4.195 2.71,2.975 3.675,5.16 4.46,6.915 0,0 0.78,0.61 0.2552,-1.14 -0.515,-1.745 -0.605,-2.885 -2.005,-5.075 -1.405,-2.185 -2.62,-6.12 -2.8,-8.83 -0.17,-2.715 -0.96,-6.735 -2.185,-8.14"
       id="path270"
       style="fill:#000;fill-opacity:1;fill-rule:nonzero;stroke:none" />
    <path
       d="m 827.50006,524.02619 c 0,0 0.26,-1.57 -0.875,-3.755 -1.14,-2.19 -0.25,-4.62 -3.85,-10.41 -2.015,-3.24 -9.015,-5.775 -9.015,-5.775 0,0 2.015,2.8 3.33,4.37 1.31,1.58 1.745,2.715 2.19,3.51 0.435,0.78 2.855,3.12 3.755,4.455 0.1752,0.26 0.525,0.965 0.525,1.4 0,0.435 -0.96,-0.2652 -1.225,-0.525 -0.27,-0.2648 -4.54,-3.5 -7.26,-4.025 -2.71,-0.525 -7.87,-1.05 -9.275,-1.75 0,0 6.13,5.51 12.775,7.175 6.655,1.665 8.925,5.33 8.925,5.33"
       id="path272"
       style="fill:#000;fill-opacity:1;fill-rule:nonzero;stroke:none" />
    <path
       d="m 813.67006,509.59619 c 0,0 -6.12,-8.305 -17.055,-8.13 0,0 0.615,0.61 1.84,0.87 1.22,0.2652 3.41,2.45 4.55,3.155 1.135,0.7 3.5,2.44 10.665,4.105"
       id="path274"
       style="fill:#000;fill-opacity:1;fill-rule:nonzero;stroke:none" />
    <path
       d="m 714.08006,668.61119 c -4.905,0.535 -5.985,1.535 -5.985,8.545 l 0,17.44 c 0,5.335 0,17.895 -16.48,17.895 -15.775,0 -15.775,-13.02 -15.775,-17.025 l 0,-20.84 c 0,-4.95 -0.89,-5.675 -5.73,-6.015 l 0,-1.27 18.005,0 0,1.27 c -5.025,0.4 -5.79,1.27 -5.79,6.015 l 0,21.37 c 0,4.275 0,13.555 11.065,13.555 4.97,0 8.6,-2.13 10.44,-5.265 0.835,-1.475 1.465,-3.68 1.465,-9.09 l 0,-18.04 c 0,-7.14 -1.53,-8.28 -5.98,-8.545 l 0,-1.27 14.765,0 0,1.27 z"
       id="path276"
       style="fill:#000;fill-opacity:1;fill-rule:nonzero;stroke:none" />
    <path
       d="m 765.87506,668.61119 c -4.015,0.47 -6.05,0.74 -6.05,8.555 l 0,35.12 -1.075,0 -28,-36.595 -0.12,0 0,26.055 c 0,6.875 1.33,8.35 5.975,8.545 l 0,1.27 -14.94,0 0,-1.27 c 4.825,-0.33 6.155,-1.335 6.155,-8.545 l 0.008,-29.455 c -2.62,-3.34 -3.635,-3.68 -6.165,-3.68 l 0,-1.26 10.875,0 24.365,32.12 0.13,0 0,-22.305 c 0,-7.685 -1.785,-8.215 -6.11,-8.555 l 0,-1.26 14.95,0 0,1.26 z"
       id="path278"
       style="fill:#000;fill-opacity:1;fill-rule:nonzero;stroke:none" />
    <path
       d="m 807.39006,711.56119 -34.355,0 0,-1.27 c 4.065,-0.27 5.535,-0.865 5.535,-6.005 l 0,-29.66 c 0,-5.275 -1.53,-5.675 -5.535,-6.015 l 0,-1.26 33.78,0 0.1848,9.55 -1.58,0 c -0.96,-5.945 -2.61,-7.02 -9.675,-7.02 l -8.585,0 c -1.345,0 -2.11,0 -2.11,2.275 l 0,14.825 9.81,0 c 5.655,0 6.29,-1.6 7,-6.34 l 1.455,0 0,15.49 -1.455,0 c -0.775,-5.34 -1.725,-6.27 -7,-6.345 l -9.81,-0.13 0,16.555 c 0,2.745 0,2.815 9.49,2.815 7.95,0 11.13,-2.005 13.935,-8.755 l 1.78,0 -2.865,11.29 z"
       id="path280"
       style="fill:#000;fill-opacity:1;fill-rule:nonzero;stroke:none" />
    <path
       d="m 816.59506,667.35119 16.79,0 c 8.785,0 16.67,3.535 16.67,12.015 0,5.21 -2.805,7.955 -3.88,9.02 -2.735,2.735 -6.815,3.945 -13.495,3.945 -1.525,0 -2.735,-0.0748 -4.265,-0.2048 l 0,12.16 c 0,4.865 1.095,5.87 5.98,6.005 l 0,1.27 -17.8,0 0,-1.27 c 5.34,-0.4 5.34,-1.94 5.34,-6.745 l 0,-28.92 c 0,-4.745 -0.705,-5.545 -5.34,-6.015 l 0,-1.26 z m 11.82,22.11 c 1.21,0.12 2.48,0.1952 3.82,0.1952 2.355,0 10.885,0 10.885,-10.155 0,-9.55 -9.295,-9.68 -12.09,-9.68 -1.91,0 -2.615,0.06 -2.615,2.275 l 0,17.365 z"
       id="path282"
       style="fill:#000;fill-opacity:1;fill-rule:nonzero;stroke:none" />
  </g>
</svg>
