<?xml version="1.0" encoding="UTF-8" standalone="no"?>
<!-- Created with Inkscape (http://www.inkscape.org/) -->

<svg
   xmlns:dc="http://purl.org/dc/elements/1.1/"
   xmlns:cc="http://creativecommons.org/ns#"
   xmlns:rdf="http://www.w3.org/1999/02/22-rdf-syntax-ns#"
   xmlns:svg="http://www.w3.org/2000/svg"
   xmlns="http://www.w3.org/2000/svg"
   xmlns:sodipodi="http://sodipodi.sourceforge.net/DTD/sodipodi-0.dtd"
   xmlns:inkscape="http://www.inkscape.org/namespaces/inkscape"
   id="svg3390"
   version="1.1"
   inkscape:version="0.91 r13725"
   width="435.1875"
   height="227.04724"
   viewBox="0 0 435.1875 227.04724"
   sodipodi:docname="new unep.svg">
  <metadata
     id="metadata3396">
    <rdf:RDF>
      <cc:Work
         rdf:about="">
        <dc:format>image/svg+xml</dc:format>
        <dc:type
           rdf:resource="http://purl.org/dc/dcmitype/StillImage" />
        <dc:title></dc:title>
      </cc:Work>
    </rdf:RDF>
  </metadata>
  <defs
     id="defs3394" />
  <sodipodi:namedview
     pagecolor="#ffffff"
     bordercolor="#666666"
     borderopacity="1"
     objecttolerance="10"
     gridtolerance="10"
     guidetolerance="10"
     inkscape:pageopacity="0"
     inkscape:pageshadow="2"
     inkscape:window-width="1169"
     inkscape:window-height="938"
     id="namedview3392"
     showgrid="false"
     showguides="true"
     inkscape:guide-bbox="true"
     inkscape:zoom="1"
     inkscape:cx="271.21223"
     inkscape:cy="98.646508"
     inkscape:window-x="0"
     inkscape:window-y="0"
     inkscape:window-maximized="0"
     inkscape:current-layer="svg3390"
     fit-margin-top="0"
     fit-margin-left="0"
     fit-margin-right="0"
     fit-margin-bottom="0" />
  <path
     style="fill:#000000;fill-rule:evenodd;stroke:#000000;stroke-width:1px;stroke-linecap:butt;stroke-linejoin:miter;stroke-opacity:1"
     d="m 0.6875,0.92224 27.625,0 c 0,0 0,70.126268 0,96.125 0,25.99873 48.8125,25.79384 48.8125,0 0,-25.793842 0,-96.1875 0,-96.1875 l 28.5625,0 0,97.625 c 0,52.2436 -105.1875,56.63161 -105.1875,0 0,-28.070236 0.1875,-97.5625 0.1875,-97.5625 z"
     id="path3400"
     inkscape:connector-curvature="0"
     sodipodi:nodetypes="cczzccssc" />
  <path
     style="fill:#000000;fill-rule:evenodd;stroke:#000000;stroke-width:1px;stroke-linecap:butt;stroke-linejoin:miter;stroke-opacity:1"
     d="m 128.91825,0.5 28.28427,0 55.50789,90.15612 0,-90.15612 27.93071,0 0,137.00194 -27.93071,0 -55.50789,-88.03479 0,88.03479 -28.28427,0 z"
     id="path3418"
     inkscape:connector-curvature="0" />
  <path
     style="fill:#000000;fill-rule:evenodd;stroke:#000000;stroke-width:1px;stroke-linecap:butt;stroke-linejoin:miter;stroke-opacity:1"
     mask="none"
     clip-path="none"
     d="m 19.126953,184.59997 c -9.186212,0.14321 -18.371094,5.97707 -18.371094,17.07227 l 0,6.75 c 0,17.11449 16.578147,18.125 19.306641,18.125 11.898737,0 16.599609,-7.4082 16.599609,-7.4082 l -4.755859,-5.62305 c -7.959296,7.9593 -20.53125,4.03125 -20.53125,-5.09375 l 26.125,0 0,-6.75 c 0,-11.668 -9.186834,-17.21547 -18.373047,-17.07227 z m 0.02734,8.91797 c 3.863642,0 7.675271,2.71841 7.470703,8.1543 l -15.25,0 c 0,-5.43588 3.915655,-8.1543 7.779297,-8.1543 z"
     id="path3515"
     inkscape:connector-curvature="0" />
  <path
     style="fill:#000000;fill-rule:evenodd;stroke:#000000;stroke-width:1px;stroke-linecap:butt;stroke-linejoin:miter;stroke-opacity:1"
     d="m 43.711886,184.42224 0,41.11449 10.783379,0 0,-29.31899 c 5.297967,-5.41763 12.454485,-3.80995 13.258255,-0.17678 l 0,29.49577 10.6066,0 0,-33.17699 c 0,-6.25812 -16.05421,-14.18378 -23.864855,-2.79706 l 0,-5.14044 z"
     id="path3551"
     inkscape:connector-curvature="0"
     sodipodi:nodetypes="cccccccsccc" />
  <path
     style="fill:#000000;fill-rule:evenodd;stroke:#000000;stroke-width:1px;stroke-linecap:butt;stroke-linejoin:miter;stroke-opacity:1"
     d="m 83.66342,184.42224 11.64908,0 7.26603,25.9117 7.35897,-25.9117 11.55613,0 -13.11863,41.11449 -11.4375,0 z"
     id="path3553"
     inkscape:connector-curvature="0" />
  <path
     style="fill:#000000;fill-rule:evenodd;stroke:#000000;stroke-width:1px;stroke-linecap:butt;stroke-linejoin:miter;stroke-opacity:1"
     d="m 126.6875,184.42224 11.625,0 0,41.11449 -11.625,0 z"
     id="path3555"
     inkscape:connector-curvature="0" />
  <circle
     style="fill:#000000"
     id="path3566"
     cx="132.5"
     cy="174.17224"
     r="5.8125" />
  <path
     style="fill:#000000;fill-rule:evenodd;stroke:#000000;stroke-width:1px;stroke-linecap:butt;stroke-linejoin:miter;stroke-opacity:1"
     d="m 147,184.42224 0,41.11449 10.75,0 0,-26.42699 c 4.14655,-5.36716 8.4392,-4.89018 12.75,-3.6875 l 0,-11 c -4.13903,-1.10759 -8.28496,-2.04263 -12.75,5 l 0,-5 z"
     id="path3570"
     inkscape:connector-curvature="0"
     sodipodi:nodetypes="ccccccccc" />
  <ellipse
     style="fill:none"
     id="path3576"
     cx="191.71875"
     cy="204.97949"
     rx="19.28125"
     ry="20.557245" />
  <path
     style="fill:#000000;fill-opacity:1;stroke:#000000;stroke-opacity:1"
     d="m 191.71875,184.42224 c -10.64852,0 -18.90625,7.9375 -18.90625,20.55664 0,12.61914 8.25702,21.24609 18.90625,21.24609 10.64923,0 19.28125,-8.62695 19.28125,-21.24609 0,-12.61914 -8.63273,-20.55664 -19.28125,-20.55664 z m 0.3125,7.9375 c 4.64264,0 8.40625,5.63841 8.40625,12.59375 0,6.95534 -3.76361,12.59375 -8.40625,12.59375 -4.64264,0 -8.40625,-5.63841 -8.40625,-12.59375 0,-6.95534 3.76361,-12.59375 8.40625,-12.59375 z"
     id="path4385"
     inkscape:connector-curvature="0"
     sodipodi:nodetypes="szszssssss" />
  <path
     sodipodi:nodetypes="cccccccsccc"
     inkscape:connector-curvature="0"
     id="path4410"
     d="m 217.68784,184.42224 0,41.11449 10.78337,0 0,-29.31899 c 5.29797,-5.41763 12.45449,-3.80995 13.25826,-0.17678 l 0,29.49577 10.6066,0 0,-33.17699 c 0,-6.25812 -16.05421,-14.18378 -23.86486,-2.79706 l 0,-5.14044 z"
     style="fill:#000000;fill-rule:evenodd;stroke:#000000;stroke-width:1px;stroke-linecap:butt;stroke-linejoin:miter;stroke-opacity:1" />
  <path
     style="fill:#000000;fill-rule:evenodd;stroke:#000000;stroke-width:1px;stroke-linecap:butt;stroke-linejoin:miter;stroke-opacity:1"
     d="m 283.58008,183.79333 c -3.96617,-0.0552 -8.05538,1.49951 -10.98438,5.76953 l 0,-5.14062 -10.7832,0 0,41.11523 10.7832,0 0,-29.32031 c 5.29797,-5.41763 12.45405,-3.80895 13.25782,-0.17578 l 0,29.49609 10.60742,0 0,-29.74023 c 5.24435,-4.88581 12.02153,-3.287 12.80273,0.24414 l 0,29.49609 10.60742,0 0,-33.17773 c 0,-6.25812 -16.05458,-14.1836 -23.86523,-2.79688 l 0,0.90626 c -1.54868,-3.35614 -6.86436,-6.59835 -12.42578,-6.67579 z"
     id="path4412"
     inkscape:connector-curvature="0" />
  <path
     id="path4417"
     d="m 345.81028,184.59997 c -9.18621,0.14321 -18.37109,5.97707 -18.37109,17.07227 l 0,6.75 c 0,17.11449 16.57815,18.125 19.30664,18.125 11.89874,0 16.59961,-7.4082 16.59961,-7.4082 l -4.75586,-5.62305 c -7.95929,7.9593 -20.53125,4.03125 -20.53125,-5.09375 l 26.125,0 0,-6.75 c 0,-11.668 -9.18683,-17.21547 -18.37305,-17.07227 z m 0.0274,8.91797 c 3.86364,0 7.67527,2.71841 7.4707,8.1543 l -15.25,0 c 0,-5.43588 3.91566,-8.1543 7.7793,-8.1543 z"
     clip-path="none"
     mask="none"
     style="fill:#000000;fill-rule:evenodd;stroke:#000000;stroke-width:1px;stroke-linecap:butt;stroke-linejoin:miter;stroke-opacity:1"
     inkscape:connector-curvature="0" />
  <path
     style="fill:#000000;fill-rule:evenodd;stroke:#000000;stroke-width:1px;stroke-linecap:butt;stroke-linejoin:miter;stroke-opacity:1"
     d="m 371.13001,184.42224 0,41.11449 10.78337,0 0,-29.31899 c 5.29797,-5.41763 12.45449,-3.80995 13.25826,-0.17678 l 0,29.49577 10.6066,0 0,-33.17699 c 0,-6.25812 -16.05421,-14.18378 -23.86486,-2.79706 l 0,-5.14044 z"
     id="path4419"
     inkscape:connector-curvature="0"
     sodipodi:nodetypes="cccccccsccc" />
  <path
     style="fill:#000000;fill-rule:evenodd;stroke:#000000;stroke-width:1px;stroke-linecap:butt;stroke-linejoin:miter;stroke-opacity:1"
     d="m 416.53394,174.60974 11.13693,0 0,9.8125 7.01663,0 0,7.9375 -7.01663,0 c 0,0 0,17.9742 0,23.80783 0,2.38366 7.01663,1.37967 7.01663,1.37967 l 0,7.98949 c 0,0 -18.15356,3.82331 -18.15356,-7.98949 0,-8.39583 0,-25.1875 0,-25.1875 l -6.09644,0 0,-7.9375 6.09644,0 z"
     id="path4427"
     inkscape:connector-curvature="0"
     sodipodi:nodetypes="ccccccsccsccccc" />
  <g
     id="layer1"
     transform="matrix(0.88581165,0,0,0.88581165,-318.83582,-440.60903)">
    <path
       style="fill:#000000;fill-opacity:1;fill-rule:nonzero;stroke:none"
       id="path234"
       d="m 747.01006,622.40619 c -19.48,-5.89 -33.66,-23.97 -33.66,-45.365 0,-3.865 0.465,-7.62 1.345,-11.21 l 30.75,3.945 c 0,0 11.815,0.52 11.38,21.43 -0.43,20.3 -9.815,31.2 -9.815,31.2"
       inkscape:connector-curvature="0" />
    <path
       style="fill:#000000;fill-opacity:1;fill-rule:nonzero;stroke:none"
       id="path236"
       d="m 774.50006,622.40619 c 19.48,-5.89 33.665,-23.97 33.665,-45.365 0,-3.865 -0.46,-7.62 -1.335,-11.21 l -30.765,3.945 c 0,0 -11.815,0.52 -11.37,21.43 0.415,20.3 9.805,31.2 9.805,31.2"
       inkscape:connector-curvature="0" />
    <path
       style="fill:#000000;fill-opacity:1;fill-rule:nonzero;stroke:none"
       id="path238"
       d="m 760.76006,543.12119 c 3.95,0 7.175,3.21 7.175,7.18 0,3.075 -2.125,5.38 -4.7,6.745 -0.3,0.17 -0.605,0.31 -0.54,0.8 0.07,0.505 1.535,0.78 2.165,0.93 l 41.37,4.8 c -5.81,-19.61 -23.96,-33.915 -45.445,-33.915 l -0.06,0 c -21.49,0 -39.635,14.305 -45.435,33.915 l 41.355,-4.8 c 0.63,-0.15 2.105,-0.425 2.17,-0.93 0.06,-0.49 -0.2352,-0.63 -0.545,-0.8 -2.575,-1.365 -4.69,-3.67 -4.69,-6.745 0,-3.97 3.215,-7.18 7.18,-7.18"
       inkscape:connector-curvature="0" />
    <path
       style="fill:#000000;fill-opacity:1;fill-rule:nonzero;stroke:none"
       id="path240"
       d="m 779.65006,655.93619 2.8,-1.75 c 0,0 -13.3,-18.015 -43.035,-18.015 -15.225,0 -23.095,6.12 -33.765,6.12 0,0 -4.38,0.535 -8.57,-2.095 0,0 5.07,7.345 23.44,7.345 13.465,0 23.085,-7.87 32.535,-7.87 12.955,0 22.575,11.55 26.595,16.265"
       inkscape:connector-curvature="0" />
    <path
       style="fill:#000000;fill-opacity:1;fill-rule:nonzero;stroke:none"
       id="path242"
       d="m 738.35506,655.93619 -2.795,-1.75 c 0,0 13.295,-18.015 43.045,-18.015 15.215,0 23.085,6.12 33.76,6.12 0,0 4.38,0.535 8.565,-2.095 0,0 -5.065,7.345 -23.435,7.345 -13.475,0 -23.095,-7.87 -32.545,-7.87 -12.93,0 -22.57,11.55 -26.595,16.265"
       inkscape:connector-curvature="0" />
    <path
       style="fill:#000000;fill-opacity:1;fill-rule:nonzero;stroke:none"
       id="path244"
       d="m 724.19006,634.60119 c -0.515,1.395 -6.21,-0.27 -10.05,0.87 -4.295,1.27 -27.035,4.025 -37.005,-19.585 0,0 9.455,10.135 16.79,10.835 7.345,0.7 15.395,2.45 22.225,6.3 l 1.57,0.3552 c 0,0 -0.22,-0.705 -0.88,-1.05 -0.895,-0.48 -7.965,-2.77 -11.37,-14 -1.74,-5.775 -1.39,-9.975 -2.095,-12.94 0,0 7.7,8.57 10.845,13.99 3.145,5.425 3.5,11.545 9.97,15.225"
       inkscape:connector-curvature="0" />
    <path
       style="fill:#000000;fill-opacity:1;fill-rule:nonzero;stroke:none"
       id="path246"
       d="m 701.01506,622.69619 c -0.58,0.57 -2.01,-0.3452 -2.535,-0.61 -0.52,-0.26 -4.305,-1.985 -10.765,-4.285 -6.385,-2.27 -18.28,-12.335 -17.145,-29.565 0,0 1.665,6.47 6.565,10.76 4.885,4.285 6.655,4.81 9.62,8.305 2.97,3.5 9.71,11.46 9.97,11.38 0.2648,-0.09 0.3552,-0.53 -0.17,-0.965 -0.525,-0.435 -2.275,-4.805 -3.42,-6.3 -1.13,-1.485 -4.54,-11.725 0.445,-24.315 0,0 5.335,9.18 4.98,18.455 -0.3448,9.27 -0.79,7.085 1.485,14.785 0,0 1.225,2.1 0.97,2.355"
       inkscape:connector-curvature="0" />
    <path
       style="fill:#000000;fill-opacity:1;fill-rule:nonzero;stroke:none"
       id="path248"
       d="m 686.13506,600.22619 c -0.3,0.31 -1.66,-1.665 -2.7,-3.5 -1.055,-1.84 -8.395,-9.71 -9.365,-11.29 -0.955,-1.575 -9.185,-11.55 -2.975,-26.33 0,0 0.615,-0.1748 0.615,3.325 0,3.495 3.24,11.285 5.86,14.61 2.62,3.32 4.985,8.66 5.51,14.345 0,0 0.3552,1.05 0.79,1.135 0.435,0.09 0.435,-1.045 0.435,-1.045 0,0 -0.3448,-5.25 -0.3448,-8.84 0,-3.59 1.57,-9.71 4.98,-13.21 0,0 1.575,-1.75 2.54,-3.845 0,0 0.605,-1.405 1.485,-2.095 0,0 0.7,10.055 -2.71,19.415 -3.41,9.365 -4.545,10.935 -4.025,16.01 0,0 0.09,1.135 -0.0948,1.315"
       inkscape:connector-curvature="0" />
    <path
       style="fill:#000000;fill-opacity:1;fill-rule:nonzero;stroke:none"
       id="path250"
       d="m 680.36006,572.58119 c -0.3452,0 -0.605,-1.225 -0.77,-2.19 -0.18,-0.965 -1.225,-6.56 -1.94,-7.785 -0.69,-1.225 -3.31,-6.82 -3.4,-13.385 -0.09,-6.56 2.885,-15.475 9.54,-22.565 0,0 -0.2648,2.1 -2.015,6.735 -1.76,4.635 -0.705,9.005 -0.535,9.795 0.18,0.785 0.78,6.205 0.78,8.745 0,2.015 -0.515,8.925 -0.95,10.33 0,0 -0.1752,0.96 0.17,0.96 0.3552,0 0.7,-0.79 0.7,-0.79 0,0 0.36,-5.42 4.38,-10.32 4.015,-4.9 11.275,-7.875 12.42,-10.065 0,0 -0.525,7.705 -9.015,16.715 -7.55,8.02 -5.33,3.935 -7.785,10.49 0,0 -1.045,2.45 -1.045,2.975 0,0.525 -0.535,0.3552 -0.535,0.3552"
       inkscape:connector-curvature="0" />
    <path
       style="fill:#000000;fill-opacity:1;fill-rule:nonzero;stroke:none"
       id="path252"
       d="m 685.01506,546.68619 c 0,0 -0.1848,-1.05 1.12,-3.41 1.325,-2.36 -0.08,-6.565 1.67,-12.685 1.74,-6.125 4.985,-16.62 17.32,-22.915 0,0 -1.225,1.135 -1.84,2.005 -0.62,0.875 -3.935,7.18 -4.9,11.55 -0.96,4.38 -5.155,11.72 -6.735,13.385 -1.57,1.66 -0.87,1.84 -0.87,1.84 0,0 0.78,-0.18 1.57,-1.405 0.785,-1.225 4.81,-5.775 9.265,-6.82 4.47,-1.05 11.55,-3.15 11.995,-3.59 0,0 -7.705,7.88 -14.79,11.905 -7.08,4.015 -7.86,2.79 -12.065,8.215 0,0 -1.395,1.925 -1.74,1.925"
       inkscape:connector-curvature="0" />
    <path
       style="fill:#000000;fill-opacity:1;fill-rule:nonzero;stroke:none"
       id="path254"
       d="m 701.97506,523.33119 c 0,0 0,-0.695 1.31,-1.925 1.315,-1.225 2.62,-4.895 4.905,-8.31 2.265,-3.415 7.425,-12.33 20.81,-14.43 0,0 -4.02,2.975 -4.635,3.94 -0.605,0.955 -4.545,6.12 -6.29,7.865 -1.755,1.75 -6.74,5.425 -8.41,6.21 0,0 -0.87,0.705 -0.695,0.96 0.18,0.2652 1.05,-0.2548 1.05,-0.2548 0,0 4.645,-3.59 10.24,-3.765 5.59,-0.17 11.45,0.0852 12.33,0.1748 0,0 -5.25,3.59 -17.755,5.86 -12.505,2.275 -10.155,2.365 -12.07,3.59 0,0 -0.435,0.3452 -0.79,0.0852"
       inkscape:connector-curvature="0" />
    <path
       style="fill:#000000;fill-opacity:1;fill-rule:nonzero;stroke:none"
       id="path256"
       d="m 724.27506,508.81119 c 0,0 0.27,-0.695 2.285,-1.315 2.005,-0.61 1.83,-2.54 7.95,-5.77 6.13,-3.235 12.515,-4.73 18.98,-2.01 0,0 -2.7,0.3452 -3.14,0.525 -0.44,0.17 -5.075,1.4 -6.39,2.095 -1.315,0.705 -8.045,3.68 -10.755,4.2 -2.71,0.525 -1.395,0.705 -1.395,0.705 0,0 0.61,0.2552 1.13,0.2552 0.53,0 6.56,-0.61 10.495,0.79 3.935,1.395 3.85,1.925 5.43,2.45 1.57,0.525 3.41,0.875 3.67,1.485 0,0 -3.935,0.3552 -6.31,0.3552 -2.355,0 -8.555,-0.61 -11.54,-2.02 -2.975,-1.395 -6.385,-2.01 -7.52,-1.745 -1.14,0.26 -2.535,0.26 -2.89,0"
       inkscape:connector-curvature="0" />
    <path
       style="fill:#000000;fill-opacity:1;fill-rule:nonzero;stroke:none"
       id="path258"
       d="m 749.12006,505.74619 c 0,0 0.27,-0.3452 2.02,-0.695 1.74,-0.35 2.185,-1.4 6.295,-2.275 4.105,-0.875 10.5,-1.665 16.355,2.36 0,0 -3.59,-0.0852 -4.38,-0.0852 -0.78,0 -7.61,1.22 -9.175,1.22 -1.58,0 -4.725,-0.695 -5.17,-0.17 -0.425,0.52 2.895,1.225 3.42,1.395 0.515,0.18 2.885,0.3552 5.86,3.24 2.97,2.885 5.065,4.46 5.42,4.635 0,0 -8.75,-2.01 -10.935,-3.235 -2.185,-1.225 -5.95,-4.985 -6.555,-5.25 -0.615,-0.2652 -3.155,-1.14 -3.155,-1.14"
       inkscape:connector-curvature="0" />
    <path
       style="fill:#000000;fill-opacity:1;fill-rule:nonzero;stroke:none"
       id="path260"
       d="m 769.33006,509.33619 c 0,0 5.515,-0.1748 9.54,2.365 4.015,2.53 7.255,5.855 7.605,7.87 0,0 -2.275,-1.93 -3.76,-2.36 -1.49,-0.44 -5.695,-2.8 -6.565,-3.325 -0.875,-0.525 -5.95,-3.765 -6.82,-4.55"
       inkscape:connector-curvature="0" />
    <path
       style="fill:#000000;fill-opacity:1;fill-rule:nonzero;stroke:none"
       id="path262"
       d="m 795.22506,635.56119 c 0,0 0.78,-0.79 3.4,-3.065 2.63,-2.275 3.32,-5.595 6.22,-10.76 2.885,-5.16 5.325,-8.75 11.19,-13.995 0,0 -1.04,3.935 -1.135,5.17 -0.08,1.225 -1.05,8.035 -4.37,11.98 -3.325,3.935 -3.5,4.815 -7.355,7.17 0,0 -1.485,1.045 -1.395,1.4 0.0848,0.35 2.63,-0.0852 2.63,-0.0852 0,0 2.795,-1.05 3.665,-1.575 0.87,-0.53 4.815,-2.54 6.39,-3.15 1.57,-0.615 2.885,-1.23 6.385,-2.275 3.5,-1.05 16.175,-4.29 21.165,-12.34 0,0 -1.48,4.725 -3.32,6.91 -1.84,2.195 -12.24,15.93 -26.685,15.66 0,0 -5.685,-0.435 -8.66,-0.96 -2.965,-0.52 -4.025,-0.52 -4.46,-0.435 -0.435,0.08 -3.24,0.605 -3.665,0.35"
       inkscape:connector-curvature="0" />
    <path
       style="fill:#000000;fill-opacity:1;fill-rule:nonzero;stroke:none"
       id="path264"
       d="m 827.50006,586.48119 c 0,0 -5.435,8.495 -6.65,20.735 -1.225,12.25 0.87,8.58 -1.135,14 0,0 -0.705,1.39 -0.435,1.48 0.2548,0.09 1.31,-0.525 5.16,-2.875 3.845,-2.375 7.6,-1.67 15.82,-9.54 8.23,-7.87 9.895,-23.53 10.06,-24.845 0,0 -1.225,1.225 -1.83,3.325 -0.61,2.1 -1.925,3.76 -2.185,4.03 -0.2648,0.2552 -9.19,10.055 -10.24,10.925 -1.05,0.88 -6.295,7.265 -7.425,9.095 -1.14,1.84 -4.47,5.17 -5.08,4.905 0,0 0.09,-0.79 0.3552,-1.395 0.2552,-0.615 2.71,-3.945 3.755,-7.79 1.05,-3.85 1.315,-6.21 1.405,-8.66 0.08,-2.455 -1.5,-11.46 -1.575,-13.39"
       inkscape:connector-curvature="0" />
    <path
       style="fill:#000000;fill-opacity:1;fill-rule:nonzero;stroke:none"
       id="path266"
       d="m 834.85006,598.29619 c 0,0 -0.55,-1.27 -0.09,-2.185 0.2548,-0.525 0.525,-4.725 -1.05,-8.135 -1.57,-3.41 -4.99,-12.865 -4.725,-19.16 0.26,-6.3 0.96,-7.17 0.96,-7.17 0,0 1.75,5.16 2.275,6.03 0.53,0.88 5.775,10.155 5.34,15.225 -0.445,5.075 -0.705,6.645 -0.445,6.735 0.2752,0.09 0.88,-0.615 0.96,-1.225 0.0952,-0.615 0.965,-4.115 2.625,-8.225 1.665,-4.105 8.395,-13.205 9.89,-19.24 0,0 2.185,10.5 -3.68,20.29 -5.855,9.805 -6.475,7.61 -8.915,12.075 -2.445,4.46 -2.8,4.985 -3.145,4.985"
       inkscape:connector-curvature="0" />
    <path
       style="fill:#000000;fill-opacity:1;fill-rule:nonzero;stroke:none"
       id="path268"
       d="m 840.18006,570.56619 c -0.435,-0.09 -0.18,-4.115 -1.23,-5.425 -1.045,-1.31 -10.055,-11.98 -11.97,-22.655 0,0 5.675,5.775 6.64,6.385 0.96,0.615 4.81,4.465 5.945,7.79 1.135,3.32 0.87,6.125 1.315,6.205 0.445,0.0852 0.445,-3.67 0.445,-3.67 0,0 0.08,-7.345 0.69,-10.845 0.615,-3.5 2.195,-9.36 1.495,-12.34 0,0 3.4,5.425 3.225,13.13 -0.17,7.69 -3.405,13.81 -3.84,14.69 -0.445,0.88 -1.66,4.64 -1.66,5.42 0,0.79 -1.055,1.315 -1.055,1.315"
       inkscape:connector-curvature="0" />
    <path
       style="fill:#000000;fill-opacity:1;fill-rule:nonzero;stroke:none"
       id="path270"
       d="m 829.51006,515.80619 c 0,0 11.815,7 9.965,30.445 0,0 0,1.045 -0.69,-0.0852 -0.71,-1.14 -3.235,-4.38 -4.38,-5.085 -1.14,-0.69 -11.63,-7.075 -16.095,-16.875 0,0 0.7,-0.18 1.75,0.785 1.055,0.965 4.29,2.625 4.815,2.89 0.525,0.26 4.2,1.23 6.91,4.195 2.71,2.975 3.675,5.16 4.46,6.915 0,0 0.78,0.61 0.2552,-1.14 -0.515,-1.745 -0.605,-2.885 -2.005,-5.075 -1.405,-2.185 -2.62,-6.12 -2.8,-8.83 -0.17,-2.715 -0.96,-6.735 -2.185,-8.14"
       inkscape:connector-curvature="0" />
    <path
       style="fill:#000000;fill-opacity:1;fill-rule:nonzero;stroke:none"
       id="path272"
       d="m 827.50006,524.02619 c 0,0 0.26,-1.57 -0.875,-3.755 -1.14,-2.19 -0.25,-4.62 -3.85,-10.41 -2.015,-3.24 -9.015,-5.775 -9.015,-5.775 0,0 2.015,2.8 3.33,4.37 1.31,1.58 1.745,2.715 2.19,3.51 0.435,0.78 2.855,3.12 3.755,4.455 0.1752,0.26 0.525,0.965 0.525,1.4 0,0.435 -0.96,-0.2652 -1.225,-0.525 -0.27,-0.2648 -4.54,-3.5 -7.26,-4.025 -2.71,-0.525 -7.87,-1.05 -9.275,-1.75 0,0 6.13,5.51 12.775,7.175 6.655,1.665 8.925,5.33 8.925,5.33"
       inkscape:connector-curvature="0" />
    <path
       style="fill:#000000;fill-opacity:1;fill-rule:nonzero;stroke:none"
       id="path274"
       d="m 813.67006,509.59619 c 0,0 -6.12,-8.305 -17.055,-8.13 0,0 0.615,0.61 1.84,0.87 1.22,0.2652 3.41,2.45 4.55,3.155 1.135,0.7 3.5,2.44 10.665,4.105"
       inkscape:connector-curvature="0" />
  </g>
</svg>
