<svg version="1.1" id="Layer_1" xmlns="http://www.w3.org/2000/svg" x="0" y="0" viewBox="0 0 283.46 283.46" xml:space="preserve"><style>.st0{fill:#fff}</style><path class="st0" d="M205.37 116.34c-8.97-2.71-15.5-11.04-15.5-20.89 0-1.78.21-3.51.61-5.16l14.17 1.82s5.44.24 5.24 9.87c-.19 9.34-4.52 14.36-4.52 14.36zm12.67 0c8.97-2.71 15.5-11.04 15.5-20.89 0-1.78-.21-3.51-.61-5.16l-14.17 1.82s-5.44.24-5.24 9.87c.19 9.34 4.52 14.36 4.52 14.36zm-6.34-36.51c1.82 0 3.3 1.48 3.3 3.3 0 1.42-.98 2.48-2.16 3.11-.14.08-.28.14-.25.37.03.23.71.36 1 .43l19.05 2.21c-2.67-9.03-11.03-15.62-20.93-15.62h-.03c-9.9 0-18.25 6.59-20.93 15.62l19.05-2.21c.29-.07.97-.19 1-.43.03-.22-.11-.29-.25-.37-1.18-.63-2.16-1.69-2.16-3.11.01-1.82 1.49-3.3 3.31-3.3zm8.71 51.96l1.29-.81s-6.12-8.3-19.82-8.3c-7.01 0-10.64 2.82-15.55 2.82 0 0-2.01.24-3.95-.97 0 0 2.34 3.38 10.8 3.38 6.2 0 10.64-3.63 14.99-3.63 5.95.02 10.38 5.33 12.24 7.51z"/><path class="st0" d="M201.39 131.79l-1.29-.81s6.12-8.3 19.82-8.3c7.01 0 10.64 2.82 15.55 2.82 0 0 2.01.24 3.95-.97 0 0-2.34 3.38-10.8 3.38-6.2 0-10.64-3.63-14.99-3.63-5.95.02-10.39 5.33-12.24 7.51zm-6.53-9.83c-.24.64-2.86-.12-4.63.4-1.98.59-12.45 1.85-17.04-9.02 0 0 4.35 4.67 7.74 5 3.38.32 7.09 1.13 10.23 2.9l.73.16s-.1-.32-.4-.48c-.41-.22-3.67-1.28-5.24-6.45-.81-2.66-.64-4.59-.97-5.96 0 0 3.55 3.95 5 6.45 1.44 2.49 1.6 5.31 4.58 7z"/><path class="st0" d="M184.19 116.48c-.26.26-.93-.16-1.17-.28-.24-.12-1.98-.92-4.96-1.97-2.94-1.05-8.42-5.68-7.9-13.62 0 0 .77 2.98 3.02 4.96 2.26 1.97 3.06 2.22 4.43 3.83 1.37 1.61 4.47 5.28 4.59 5.24.12-.04.16-.24-.08-.44s-1.05-2.22-1.57-2.9c-.52-.68-2.09-5.4.2-11.2 0 0 2.46 4.23 2.3 8.5-.16 4.27-.36 3.26.68 6.81.02-.02.58.95.46 1.07z"/><path class="st0" d="M177.34 106.13c-.15.15-.77-.77-1.25-1.61-.48-.85-3.87-4.47-4.31-5.2-.44-.73-4.23-5.32-1.37-12.13 0 0 .28-.08.28 1.53s1.49 5.2 2.7 6.73c1.21 1.53 2.3 3.99 2.54 6.61 0 0 .16.48.36.52s.2-.48.2-.48-.16-2.42-.16-4.07c0-1.65.73-4.47 2.3-6.08 0 0 .73-.81 1.17-1.77 0 0 .28-.64.68-.97 0 0 .32 4.63-1.25 8.94s-2.09 5.04-1.85 7.37c0 0 .04.53-.04.61z"/><path class="st0" d="M174.68 93.4c-.16 0-.28-.56-.36-1.01-.08-.44-.56-3.02-.89-3.59-.32-.56-1.53-3.14-1.57-6.16-.04-3.02 1.33-7.13 4.39-10.39 0 0-.12.97-.93 3.1-.81 2.14-.32 4.15-.24 4.51.08.36.36 2.86.36 4.03 0 .93-.24 4.11-.44 4.75 0 0-.08.44.08.44s.32-.36.32-.36.16-2.5 2.01-4.75c1.85-2.26 5.2-3.63 5.72-4.63 0 0-.24 3.55-4.15 7.69-3.48 3.7-2.46 1.81-3.59 4.83 0 0-.48 1.13-.48 1.37.01.25-.23.17-.23.17z"/><path class="st0" d="M176.82 81.47s-.08-.48.52-1.57-.04-3.02.77-5.84 2.3-7.65 7.98-10.55c0 0-.56.52-.85.93-.28.4-1.81 3.3-2.26 5.32-.44 2.01-2.38 5.4-3.1 6.16-.73.77-.4.85-.4.85s.36-.08.73-.64c.36-.56 2.22-2.66 4.27-3.14 2.05-.48 5.32-1.45 5.52-1.65 0 0-3.55 3.63-6.81 5.48-3.26 1.85-3.63 1.29-5.56 3.79-.01-.02-.65.86-.81.86z"/><path class="st0" d="M184.63 70.72s0-.32.6-.89c.6-.56 1.21-2.26 2.26-3.83 1.05-1.57 3.42-5.68 9.59-6.65 0 0-1.85 1.37-2.14 1.81-.28.44-2.09 2.82-2.9 3.63s-3.1 2.5-3.87 2.86c0 0-.4.32-.32.44.08.12.48-.12.48-.12s2.14-1.65 4.71-1.73c2.58-.08 5.28.04 5.68.08 0 0-2.42 1.65-8.18 2.7-5.76 1.05-4.67 1.09-5.56 1.65.01.01-.19.17-.35.05z"/><path class="st0" d="M194.9 64.03s.12-.32 1.05-.6c.93-.28.85-1.17 3.67-2.66 2.82-1.49 5.76-2.18 8.74-.93 0 0-1.25.16-1.45.24-.2.08-2.34.64-2.94.97-.6.32-3.71 1.69-4.96 1.93s-.64.32-.64.32.28.12.52.12 3.02-.28 4.83.36 1.77.89 2.5 1.13c.73.24 1.57.4 1.69.68 0 0-1.81.16-2.9.16-1.09 0-3.95-.28-5.32-.93-1.37-.64-2.94-.93-3.46-.81-.52.14-1.16.14-1.33.02z"/><path class="st0" d="M206.35 62.62s.12-.16.93-.32 1.01-.64 2.9-1.05 4.83-.77 7.53 1.09c0 0-1.65-.04-2.01-.04-.36 0-3.5.56-4.23.56-.73 0-2.18-.32-2.38-.08-.2.24 1.33.56 1.57.64.24.08 1.33.16 2.7 1.49s2.34 2.05 2.5 2.14c0 0-4.03-.93-5.04-1.49-1.01-.56-2.74-2.3-3.02-2.42-.29-.12-1.45-.52-1.45-.52z"/><path class="st0" d="M215.65 64.27s2.54-.08 4.39 1.09 3.34 2.7 3.5 3.63c0 0-1.05-.89-1.73-1.09-.69-.2-2.62-1.29-3.02-1.53s-2.73-1.74-3.14-2.1zm11.93 58.13s.36-.36 1.57-1.41c1.21-1.05 1.53-2.58 2.86-4.96 1.33-2.38 2.46-4.03 5.16-6.45 0 0-.48 1.81-.52 2.38-.04.56-.48 3.71-2.01 5.52-1.53 1.81-1.61 2.22-3.38 3.3 0 0-.69.48-.64.64.04.16 1.21-.04 1.21-.04s1.29-.48 1.69-.73c.4-.24 2.22-1.17 2.94-1.45.73-.28 1.33-.56 2.94-1.05 1.61-.48 7.45-1.97 9.75-5.68 0 0-.68 2.18-1.53 3.18-.85 1.01-5.64 7.33-12.29 7.21 0 0-2.62-.2-3.99-.44s-1.85-.24-2.05-.2c-.22.06-1.51.3-1.71.18z"/><path class="st0" d="M242.44 99.8s-2.5 3.91-3.06 9.55c-.56 5.64.4 3.95-.52 6.45 0 0-.32.64-.2.68.12.04.6-.24 2.38-1.33 1.77-1.09 3.51-.77 7.29-4.39 3.79-3.63 4.55-10.84 4.63-11.44 0 0-.56.56-.85 1.53-.28.97-.89 1.73-1.01 1.85-.12.12-4.23 4.63-4.71 5.04-.48.4-2.9 3.34-3.42 4.19-.52.85-2.05 2.38-2.34 2.26 0 0 .04-.36.16-.64s1.25-1.81 1.73-3.59c.48-1.77.6-2.86.64-3.99.05-1.13-.68-5.28-.72-6.17z"/><path class="st0" d="M245.83 105.24s-.25-.59-.04-1.01c.12-.24.24-2.18-.48-3.75-.72-1.57-2.3-5.92-2.18-8.82.12-2.9.44-3.3.44-3.3s.81 2.38 1.05 2.78c.24.4 2.66 4.67 2.46 7.01s-.32 3.06-.2 3.1c.12.04.4-.28.44-.56.04-.28.44-1.89 1.21-3.79.77-1.89 3.87-6.08 4.55-8.86 0 0 1.01 4.83-1.69 9.35-2.7 4.51-2.98 3.5-4.11 5.56-1.13 2.05-1.29 2.29-1.45 2.29z"/><path class="st0" d="M248.28 92.47c-.2-.04-.08-1.89-.56-2.5-.48-.6-4.63-5.52-5.52-10.43 0 0 2.62 2.66 3.06 2.94.44.28 2.22 2.05 2.74 3.59.52 1.53.4 2.82.6 2.86s.2-1.69.2-1.69.04-3.38.32-5c.28-1.61 1.01-4.31.69-5.68 0 0 1.57 2.5 1.49 6.04-.08 3.55-1.57 6.37-1.77 6.77-.2.4-.77 2.14-.77 2.5s-.48.6-.48.6z"/><path class="st0" d="M243.37 67.25s5.44 3.22 4.59 14.02c0 0 0 .48-.32-.04s-1.49-2.01-2.01-2.34c-.52-.32-5.36-3.26-7.41-7.78 0 0 .32-.08.81.36.48.44 1.97 1.21 2.22 1.33.24.12 1.93.56 3.18 1.93 1.25 1.37 1.69 2.38 2.05 3.18 0 0 .36.28.12-.52-.24-.81-.28-1.33-.93-2.34-.64-1.01-1.21-2.82-1.29-4.07-.08-1.23-.45-3.08-1.01-3.73z"/><path class="st0" d="M242.44 71.04s.12-.73-.4-1.73c-.52-1.01-.11-2.13-1.77-4.79-.93-1.49-4.15-2.66-4.15-2.66s.93 1.29 1.53 2.01c.6.73.81 1.25 1.01 1.61.2.36 1.32 1.44 1.73 2.05.08.12.24.44.24.64s-.44-.12-.56-.24c-.12-.12-2.09-1.61-3.34-1.85s-3.63-.48-4.27-.81c0 0 2.82 2.54 5.88 3.3 3.06.78 4.1 2.47 4.1 2.47z"/><path class="st0" d="M236.08 64.39s-2.82-3.83-7.86-3.75c0 0 .28.28.85.4.56.12 1.57 1.13 2.09 1.45.53.33 1.61 1.14 4.92 1.9zM81.45 59.14v47.33c0 4.14-.69 7.79-2.07 10.96-1.38 3.17-3.28 5.82-5.71 7.95s-5.33 3.74-8.69 4.83c-3.37 1.08-7.03 1.63-11.01 1.63-4.01 0-7.69-.54-11.06-1.63-3.37-1.08-6.26-2.69-8.69-4.83-2.43-2.13-4.33-4.79-5.69-7.95-1.36-3.17-2.04-6.82-2.04-10.96V59.14h14.78v47.33c0 4.7 1.12 8.12 3.37 10.27 2.25 2.15 5.36 3.23 9.33 3.23 4.01 0 7.12-1.07 9.33-3.23 2.22-2.15 3.32-5.57 3.32-10.27V59.14h14.83zm70.43 71.71h-14.77l-28.76-47.18v47.18H93.57V59.14h14.77l28.81 47.28V59.14h14.73v71.71zM37.15 177.17c-3.1 0-5.63-.97-7.58-2.91s-2.92-4.53-2.92-7.76v-.56c0-2.17.41-4.1 1.23-5.81.82-1.71 1.98-3.03 3.49-3.95 1.5-.92 3.22-1.39 5.15-1.39 2.89 0 5.17.93 6.83 2.79 1.66 1.86 2.49 4.5 2.49 7.92v2.35H32.38c.18 1.41.73 2.54 1.65 3.39.92.85 2.08 1.28 3.49 1.28 2.18 0 3.88-.8 5.1-2.41l2.77 3.17c-.85 1.22-1.99 2.18-3.44 2.86-1.43.69-3.04 1.03-4.8 1.03zm-.64-17.72c-1.12 0-2.03.39-2.73 1.16-.7.78-1.14 1.88-1.34 3.33h7.86v-.46c-.03-1.28-.37-2.27-1.02-2.97-.65-.71-1.57-1.06-2.77-1.06zm17.99-4.25l.18 2.49c1.51-1.93 3.54-2.89 6.08-2.89 2.24 0 3.91.67 5 2.01s1.66 3.35 1.68 6.02v13.94h-5.65v-13.8c0-1.22-.26-2.11-.78-2.66-.52-.55-1.39-.83-2.6-.83-1.59 0-2.78.69-3.58 2.07v15.22h-5.65V155.2h5.32zm25.38 14.54l3.93-14.54h5.9l-7.14 21.58h-5.39l-7.14-21.58h5.9l3.94 14.54zm12.52-20.12c0-.86.28-1.58.85-2.14s1.34-.84 2.32-.84c.96 0 1.73.28 2.31.84.57.56.86 1.27.86 2.14 0 .88-.29 1.59-.87 2.15-.58.56-1.35.84-2.3.84-.95 0-1.72-.28-2.3-.84-.58-.56-.87-1.28-.87-2.15zm6 27.16h-5.67V155.2h5.67v21.58zm16.78-16.18c-.77-.11-1.45-.16-2.03-.16-2.14 0-3.54.74-4.2 2.21v14.12h-5.65V155.2h5.34l.16 2.57c1.13-1.98 2.7-2.97 4.71-2.97.63 0 1.21.09 1.76.26l-.09 5.54zm1.38 5.19c0-2.14.4-4.05 1.21-5.72.81-1.68 1.97-2.97 3.49-3.89 1.52-.92 3.28-1.38 5.29-1.38 2.85 0 5.18.89 6.99 2.67 1.81 1.78 2.81 4.2 3.02 7.26l.04 1.48c0 3.31-.91 5.97-2.72 7.97s-4.24 3-7.29 3-5.48-1-7.3-2.99-2.73-4.71-2.73-8.14v-.26zm5.65.41c0 2.05.38 3.62 1.13 4.7s1.84 1.63 3.25 1.63c1.37 0 2.44-.54 3.21-1.61s1.15-2.79 1.15-5.14c0-2.01-.38-3.57-1.15-4.67-.77-1.1-1.85-1.66-3.25-1.66-1.38 0-2.45.55-3.21 1.65-.75 1.09-1.13 2.79-1.13 5.1zm23.31-11l.18 2.49c1.51-1.93 3.54-2.89 6.08-2.89 2.24 0 3.91.67 5 2.01s1.66 3.35 1.68 6.02v13.94h-5.65v-13.8c0-1.22-.26-2.11-.78-2.66-.52-.55-1.39-.83-2.6-.83-1.59 0-2.78.69-3.58 2.07v15.22h-5.65V155.2h5.32zm22.76 0l.18 2.41c1.5-1.88 3.53-2.81 6.08-2.81 2.72 0 4.59 1.1 5.61 3.29 1.48-2.19 3.6-3.29 6.35-3.29 2.29 0 4 .68 5.12 2.04 1.12 1.36 1.68 3.41 1.68 6.15v13.78h-5.67v-13.76c0-1.22-.23-2.12-.7-2.68-.47-.57-1.3-.85-2.48-.85-1.69 0-2.87.82-3.52 2.47l.02 14.82h-5.65v-13.74c0-1.25-.24-2.15-.72-2.71s-1.3-.84-2.46-.84c-1.6 0-2.76.68-3.48 2.03v15.26h-5.65V155.2h5.29zm39.34 21.97c-3.1 0-5.63-.97-7.58-2.91-1.95-1.94-2.92-4.53-2.92-7.76v-.56c0-2.17.41-4.1 1.23-5.81.82-1.71 1.98-3.03 3.49-3.95 1.5-.92 3.22-1.39 5.15-1.39 2.89 0 5.17.93 6.83 2.79 1.66 1.86 2.49 4.5 2.49 7.92v2.35h-13.47c.18 1.41.73 2.54 1.65 3.39.92.85 2.08 1.28 3.49 1.28 2.18 0 3.88-.8 5.1-2.41l2.77 3.17c-.85 1.22-1.99 2.18-3.44 2.86-1.42.69-3.03 1.03-4.79 1.03zm-.64-17.72c-1.12 0-2.03.39-2.73 1.16-.7.78-1.14 1.88-1.34 3.33h7.86v-.46c-.03-1.28-.37-2.27-1.02-2.97-.65-.71-1.57-1.06-2.77-1.06zm17.99-4.25l.18 2.49c1.51-1.93 3.54-2.89 6.08-2.89 2.24 0 3.91.67 5 2.01 1.09 1.34 1.66 3.35 1.68 6.02v13.94h-5.65v-13.8c0-1.22-.26-2.11-.78-2.66-.52-.55-1.39-.83-2.6-.83-1.59 0-2.78.69-3.58 2.07v15.22h-5.65V155.2h5.32zm24.23-5.31v5.31h3.62v4.23h-3.62v10.77c0 .8.15 1.37.45 1.71.3.35.87.52 1.72.52.62 0 1.18-.05 1.66-.14v4.37c-1.11.35-2.25.52-3.42.52-3.96 0-5.98-2.04-6.06-6.12v-11.63h-3.09v-4.23h3.09v-5.31h5.65zM46.46 205c0 3.32-.74 5.99-2.22 7.99-1.48 2-3.48 3-5.99 3-2.14 0-3.87-.76-5.18-2.27v10.17h-5.65v-29.87h5.24l.2 2.11c1.37-1.68 3.15-2.51 5.36-2.51 2.61 0 4.63.99 6.08 2.95 1.45 1.97 2.17 4.68 2.17 8.14v.29zm-5.65-.42c0-2.01-.35-3.56-1.05-4.65-.7-1.09-1.71-1.64-3.04-1.64-1.77 0-2.99.69-3.66 2.07v8.84c.69 1.42 1.92 2.13 3.69 2.13 2.71.01 4.06-2.24 4.06-6.75zm21.28-5.16c-.77-.11-1.45-.16-2.03-.16-2.14 0-3.54.74-4.2 2.21v14.12H50.2v-21.58h5.34l.16 2.57c1.13-1.98 2.7-2.97 4.71-2.97.63 0 1.21.09 1.76.26l-.08 5.55zm1.37 5.18c0-2.14.4-4.05 1.21-5.72.81-1.68 1.97-2.97 3.49-3.89 1.52-.92 3.28-1.38 5.29-1.38 2.85 0 5.18.89 6.99 2.67 1.81 1.78 2.81 4.2 3.02 7.26l.04 1.48c0 3.31-.91 5.97-2.72 7.97s-4.24 3-7.29 3-5.48-1-7.3-2.99-2.73-4.71-2.73-8.14v-.26zm5.65.41c0 2.05.38 3.62 1.13 4.7.76 1.09 1.84 1.63 3.25 1.63 1.37 0 2.44-.54 3.21-1.61s1.15-2.79 1.15-5.14c0-2.01-.38-3.57-1.15-4.67-.77-1.1-1.85-1.66-3.25-1.66-1.38 0-2.45.55-3.21 1.65-.75 1.09-1.13 2.8-1.13 5.1zm17.29-.37c0-3.31.77-5.98 2.31-8 1.55-2.02 3.63-3.03 6.25-3.03 2.32 0 4.12.81 5.42 2.43l.23-2.03h5.12v20.86c0 1.89-.42 3.53-1.26 4.93-.84 1.4-2.02 2.46-3.55 3.19-1.53.73-3.31 1.1-5.36 1.1-1.55 0-3.06-.32-4.54-.95-1.47-.63-2.59-1.45-3.34-2.44l2.5-3.51c1.41 1.61 3.11 2.41 5.12 2.41 1.5 0 2.67-.41 3.5-1.23.83-.82 1.25-1.98 1.25-3.48v-1.16c-1.3 1.5-3.02 2.25-5.14 2.25-2.54 0-4.6-1.01-6.17-3.04-1.57-2.03-2.36-4.72-2.36-8.07v-.23zm5.65.43c0 1.96.38 3.49 1.15 4.6.77 1.11 1.82 1.67 3.17 1.67 1.72 0 2.95-.66 3.69-1.98v-9.09c-.76-1.32-1.97-1.98-3.66-1.98-1.35 0-2.42.57-3.2 1.7-.76 1.14-1.15 2.83-1.15 5.08zm30.15-5.65c-.77-.11-1.45-.16-2.03-.16-2.14 0-3.54.74-4.2 2.21v14.12h-5.65v-21.58h5.34l.16 2.57c1.13-1.98 2.7-2.97 4.71-2.97.63 0 1.21.09 1.76.26l-.09 5.55zm14.63 16.17c-.26-.52-.45-1.16-.57-1.93-1.37 1.56-3.15 2.33-5.34 2.33-2.07 0-3.79-.61-5.15-1.83-1.36-1.22-2.04-2.77-2.04-4.63 0-2.29.83-4.04 2.49-5.26 1.66-1.22 4.06-1.84 7.2-1.86h2.6v-1.24c0-1-.25-1.8-.75-2.39-.5-.6-1.29-.9-2.38-.9-.95 0-1.7.23-2.24.7-.54.46-.81 1.1-.81 1.91h-5.65c0-1.25.38-2.41 1.13-3.47.76-1.07 1.83-1.9 3.21-2.5 1.38-.61 2.93-.91 4.65-.91 2.61 0 4.68.67 6.21 2.01 1.53 1.34 2.3 3.21 2.3 5.63v9.35c.01 2.05.29 3.6.84 4.65v.34h-5.7zm-4.67-4.01c.83 0 1.6-.19 2.31-.57.7-.38 1.22-.89 1.56-1.53v-3.71h-2.11c-2.83 0-4.33 1-4.52 2.99l-.02.34c0 .72.25 1.31.74 1.77.5.48 1.18.71 2.04.71zm19.42-17.57l.18 2.41c1.5-1.88 3.53-2.81 6.08-2.81 2.72 0 4.59 1.1 5.61 3.29 1.48-2.19 3.6-3.29 6.35-3.29 2.29 0 4 .68 5.12 2.04 1.12 1.36 1.68 3.41 1.68 6.15v13.78h-5.67v-13.76c0-1.22-.23-2.12-.7-2.68-.47-.57-1.3-.85-2.48-.85-1.69 0-2.87.82-3.52 2.47l.02 14.82h-5.65v-13.74c0-1.25-.24-2.15-.72-2.71s-1.3-.84-2.46-.84c-1.6 0-2.76.68-3.48 2.03v15.26h-5.65V194h5.29zm34.9 0l.18 2.41c1.5-1.88 3.53-2.81 6.08-2.81 2.72 0 4.59 1.1 5.61 3.29 1.48-2.19 3.6-3.29 6.35-3.29 2.29 0 4 .68 5.12 2.04 1.12 1.36 1.68 3.41 1.68 6.15v13.78h-5.67v-13.76c0-1.22-.23-2.12-.7-2.68-.47-.57-1.3-.85-2.48-.85-1.69 0-2.87.82-3.52 2.47l.02 14.82h-5.65v-13.74c0-1.25-.24-2.15-.72-2.71s-1.3-.84-2.46-.84c-1.6 0-2.76.68-3.48 2.03v15.26h-5.65V194h5.29zm39.34 21.98c-3.1 0-5.63-.97-7.58-2.91-1.95-1.94-2.92-4.53-2.92-7.76v-.56c0-2.17.41-4.1 1.23-5.81.82-1.71 1.98-3.03 3.49-3.95 1.5-.92 3.22-1.39 5.15-1.39 2.89 0 5.17.93 6.83 2.79 1.66 1.86 2.49 4.5 2.49 7.92v2.35h-13.47c.18 1.41.73 2.54 1.65 3.39.92.85 2.08 1.28 3.49 1.28 2.18 0 3.88-.8 5.1-2.41l2.77 3.17c-.85 1.22-1.99 2.18-3.44 2.86-1.42.69-3.03 1.03-4.79 1.03zm-.64-17.73c-1.12 0-2.03.39-2.73 1.16-.7.78-1.14 1.88-1.34 3.33h7.86v-.46c-.03-1.28-.37-2.27-1.02-2.97s-1.57-1.06-2.77-1.06z"/></svg>