<?xml version="1.0" encoding="UTF-8" standalone="no"?>
<!-- Created with Inkscape (http://www.inkscape.org/) -->

<svg
   xmlns:dc="http://purl.org/dc/elements/1.1/"
   xmlns:cc="http://creativecommons.org/ns#"
   xmlns:rdf="http://www.w3.org/1999/02/22-rdf-syntax-ns#"
   xmlns:svg="http://www.w3.org/2000/svg"
   xmlns="http://www.w3.org/2000/svg"
   xmlns:sodipodi="http://sodipodi.sourceforge.net/DTD/sodipodi-0.dtd"
   xmlns:inkscape="http://www.inkscape.org/namespaces/inkscape"
   version="1.1"
   width="83.21125"
   height="106.06125"
   viewBox="0 0 100 100"
   id="svg3310"
   xml:space="preserve"
   inkscape:version="0.48.2 r9819"
   sodipodi:docname="cbd-logo-white-en.svg"><sodipodi:namedview
     pagecolor="#ffffff"
     bordercolor="#666666"
     borderopacity="1"
     objecttolerance="10"
     gridtolerance="10"
     guidetolerance="10"
     inkscape:pageopacity="0"
     inkscape:pageshadow="2"
     inkscape:window-width="1920"
     inkscape:window-height="1099"
     id="namedview3807"
     showgrid="false"
     inkscape:zoom="3.2526912"
     inkscape:cx="127.2302"
     inkscape:cy="48.870803"
     inkscape:window-x="1440"
     inkscape:window-y="22"
     inkscape:window-maximized="1"
     inkscape:current-layer="svg3310"
     fit-margin-top="0"
     fit-margin-left="0"
     fit-margin-right="0"
     fit-margin-bottom="0" /><metadata
     id="metadata3316"><rdf:RDF><cc:Work
         rdf:about=""><dc:format>image/svg+xml</dc:format><dc:type
           rdf:resource="http://purl.org/dc/dcmitype/StillImage" /><dc:title></dc:title></cc:Work></rdf:RDF></metadata><defs
     id="defs3314"><clipPath
       id="clipPath3326"><path
         d="m 0.06,84.909 223.397,0 0,-84.849 -223.397,0 0,84.849 z"
         id="path3328"
         inkscape:connector-curvature="0" /></clipPath><clipPath
       id="clipPath3332"><path
         d="M 0,0 224,0 224,85 0,85 0,0 z"
         id="path3334"
         inkscape:connector-curvature="0" /></clipPath><clipPath
       id="clipPath3342"><path
         d="M 0,0 224,0 224,85 0,85 0,0 z"
         id="path3344"
         inkscape:connector-curvature="0" /></clipPath></defs><g
     id="g3320"
     transform="matrix(1.25,0,0,-1.25,-0.075,106.13625)" /><g
     id="g3322"
     transform="matrix(1.25,0,0,-1.25,-0.075,106.13625)"
     style="fill:#009b48"><g
       id="g3324"
       clip-path="url(#clipPath3326)"
       style="fill:#009b48"><g
         id="g3330"
         clip-path="url(#clipPath3332)"
         style="fill:#009b48"><path
           inkscape:connector-curvature="0"
           style="fill:#009b48;fill-opacity:1;fill-rule:evenodd;stroke:none"
           id="path3336"
           d="m 46.83,52.569 7.109,0.377 c 12.439,0.686 12.687,10.143 12.69,10.227 l 0,21.635 -1.039,0.101 C 65.58,84.855 63.646,75.235 54.739,74.786 l -8.152,-0.383 c -6.884,-0.34 -10.357,-4.566 -12.075,-8.638 -1.709,-4.049 -1.73,-8.002 -1.73,-8.028 l 0,-15.183 c -0.198,0.668 -0.416,1.297 -0.668,1.89 -1.718,4.075 -5.192,8.297 -12.074,8.643 l -8.153,0.379 c -5.352,0.271 -8.782,3.947 -10.414,8.613 -0.312,0.912 -0.437,1.51 -0.437,1.51 L 0,63.487 0,41.849 c 0,0 0.009,-0.614 0.23,-1.535 1.397,-5.843 6.692,-8.371 12.454,-8.691 l 7.111,-0.377 C 30.27,30.664 32.621,19.053 32.782,17.129 l 0,-17.129 1.054,0 c 0,1.176 2.112,13.692 12.994,14.297 l 7.109,0.377 c 12.439,0.689 12.687,10.142 12.69,10.225 l 0,21.639 -1.039,0.1 C 65.58,46.589 63.646,36.968 54.739,36.517 L 46.587,36.138 C 39.703,35.79 36.23,31.565 34.512,27.493 34.254,26.887 34.034,26.277 33.848,25.686 l 0.009,12.655 C 33.712,39.273 36.7,52.569 46.83,52.569"
           sodipodi:nodetypes="ccccccccsccccccccccccccccccccccccc" /></g></g></g><g
     id="g3338"
     transform="matrix(1.3297839,0,0,-1.3297839,-17.903263,107.10937)"
     style="fill:#009b48"><g
       id="g3340"
       clip-path="url(#clipPath3342)"
       style="fill:#009b48"><path
         inkscape:connector-curvature="0"
         style="fill:#009b48;fill-opacity:1;fill-rule:nonzero;stroke:none"
         id="path3346"
         d="m 97.581,45.131 0,0.279 c 0,1.514 -0.538,2.31 -1.574,2.31 -0.518,0 -0.976,-0.238 -1.195,-0.657 -0.258,-0.438 -0.318,-0.836 -0.318,-1.912 l 0,-4.42 c 0,-1.016 0.06,-1.534 0.219,-1.972 0.199,-0.518 0.717,-0.857 1.334,-0.857 1.056,0 1.593,0.857 1.593,2.589 0,0.06 0,0.199 -0.02,0.339 l 2.071,0 0,-0.458 c 0,-2.868 -1.254,-4.401 -3.644,-4.401 -1.334,0 -2.39,0.517 -2.967,1.473 -0.498,0.817 -0.638,1.593 -0.638,3.565 l 0,3.724 c 0,2.091 0.16,2.848 0.777,3.684 0.578,0.797 1.593,1.234 2.808,1.234 2.27,0 3.605,-1.512 3.605,-4.122 l 0,-0.398 -2.051,0" /><path
         inkscape:connector-curvature="0"
         style="fill:#009b48;fill-opacity:1;fill-rule:nonzero;stroke:none"
         id="path3348"
         d="m 103.594,39.476 c 0,-1.255 0.359,-1.813 1.176,-1.813 0.835,0 1.194,0.558 1.194,1.813 l 0,3.286 c 0,1.254 -0.359,1.811 -1.175,1.811 -0.836,0 -1.195,-0.557 -1.195,-1.811 l 0,-3.286 z m 4.222,0.119 c 0,-1.553 -0.179,-2.23 -0.776,-2.808 -0.538,-0.537 -1.315,-0.816 -2.251,-0.816 -0.956,0 -1.732,0.279 -2.27,0.816 -0.578,0.578 -0.777,1.255 -0.777,2.808 l 0,3.047 c 0,1.553 0.199,2.23 0.777,2.828 0.538,0.517 1.314,0.797 2.27,0.797 0.936,0 1.713,-0.28 2.251,-0.797 0.597,-0.598 0.776,-1.275 0.776,-2.828 l 0,-3.047" /><path
         inkscape:connector-curvature="0"
         style="fill:#009b48;fill-opacity:1;fill-rule:nonzero;stroke:none"
         id="path3350"
         d="m 112.058,44.793 c 0.856,0.995 1.593,1.414 2.469,1.414 1.096,0 1.613,-0.737 1.613,-2.311 l 0,-7.726 -1.852,0 0,7.249 c 0,0.876 -0.179,1.154 -0.717,1.154 -0.497,0 -1.055,-0.358 -1.513,-0.995 l 0,-7.408 -1.852,0 0,9.897 1.852,0 0,-1.274" /><path
         inkscape:connector-curvature="0"
         style="fill:#009b48;fill-opacity:1;fill-rule:nonzero;stroke:none"
         id="path3352"
         d="m 120.638,36.17 -2.429,9.897 1.972,0 1.414,-6.293 1.254,6.293 1.951,0 -2.21,-9.897 -1.952,0" /><path
         inkscape:connector-curvature="0"
         style="fill:#009b48;fill-opacity:1;fill-rule:nonzero;stroke:none"
         id="path3354"
         d="m 130.875,42.981 c 0,1.174 -0.358,1.653 -1.215,1.653 -0.856,0 -1.215,-0.498 -1.215,-1.653 l 0,-0.538 2.43,0 0,0.538 z m -2.43,-2.171 0,-0.876 c 0,-0.956 0.06,-1.394 0.24,-1.733 0.179,-0.339 0.557,-0.538 1.016,-0.538 0.816,0 1.194,0.519 1.194,1.673 l 0,0.259 1.853,0 c -0.021,-1.354 -0.081,-1.792 -0.379,-2.29 -0.479,-0.856 -1.434,-1.334 -2.668,-1.334 -1.136,0 -1.993,0.358 -2.491,1.035 -0.437,0.618 -0.617,1.354 -0.617,2.688 l 0,2.948 c 0,1.573 0.18,2.23 0.797,2.808 0.537,0.537 1.315,0.817 2.25,0.817 0.996,0 1.813,-0.319 2.33,-0.916 0.558,-0.638 0.757,-1.355 0.757,-2.908 l 0,-1.633 -4.282,0" /><path
         inkscape:connector-curvature="0"
         style="fill:#009b48;fill-opacity:1;fill-rule:nonzero;stroke:none"
         id="path3356"
         d="m 136.81,44.793 c 0.856,0.995 1.592,1.414 2.469,1.414 1.096,0 1.613,-0.737 1.613,-2.311 l 0,-7.726 -1.852,0 0,7.249 c 0,0.876 -0.179,1.154 -0.717,1.154 -0.497,0 -1.056,-0.358 -1.513,-0.995 l 0,-7.408 -1.852,0 0,9.897 1.852,0 0,-1.274" /><path
         inkscape:connector-curvature="0"
         style="fill:#009b48;fill-opacity:1;fill-rule:nonzero;stroke:none"
         id="path3358"
         d="m 147.683,44.414 -1.693,0 0,-5.277 c 0,-0.995 0.338,-1.413 1.154,-1.413 0.22,0 0.398,0.039 0.718,0.119 l 0,-1.673 c -0.519,-0.1 -0.837,-0.14 -1.255,-0.14 -0.936,0 -1.613,0.24 -2.012,0.738 -0.357,0.437 -0.457,0.916 -0.457,2.171 l 0,5.475 -1.433,0 0,1.653 1.433,0 0,2.708 1.852,0 0,-2.708 1.693,0 0,-1.653" /><path
         inkscape:connector-curvature="0"
         style="fill:#009b48;fill-opacity:1;fill-rule:nonzero;stroke:none"
         id="path3360"
         d="m 149.673,46.067 1.853,0 0,-9.897 -1.853,0 0,9.897 z m 0,3.386 1.853,0 0,-1.932 -1.853,0 0,1.932 z" /><path
         inkscape:connector-curvature="0"
         style="fill:#009b48;fill-opacity:1;fill-rule:nonzero;stroke:none"
         id="path3362"
         d="m 155.628,39.476 c 0,-1.255 0.358,-1.813 1.175,-1.813 0.836,0 1.195,0.558 1.195,1.813 l 0,3.286 c 0,1.254 -0.359,1.811 -1.175,1.811 -0.837,0 -1.195,-0.557 -1.195,-1.811 l 0,-3.286 z m 4.222,0.119 c 0,-1.553 -0.18,-2.23 -0.776,-2.808 -0.538,-0.537 -1.315,-0.816 -2.251,-0.816 -0.956,0 -1.733,0.279 -2.271,0.816 -0.577,0.578 -0.776,1.255 -0.776,2.808 l 0,3.047 c 0,1.553 0.199,2.23 0.776,2.828 0.538,0.517 1.315,0.797 2.271,0.797 0.936,0 1.713,-0.28 2.251,-0.797 0.596,-0.598 0.776,-1.275 0.776,-2.828 l 0,-3.047" /><path
         inkscape:connector-curvature="0"
         style="fill:#009b48;fill-opacity:1;fill-rule:nonzero;stroke:none"
         id="path3364"
         d="m 164.033,44.793 c 0.855,0.995 1.592,1.414 2.468,1.414 1.096,0 1.614,-0.737 1.614,-2.311 l 0,-7.726 -1.853,0 0,7.249 c 0,0.876 -0.179,1.154 -0.717,1.154 -0.497,0 -1.055,-0.358 -1.512,-0.995 l 0,-7.408 -1.853,0 0,9.897 1.853,0 0,-1.274" /><path
         inkscape:connector-curvature="0"
         style="fill:#009b48;fill-opacity:1;fill-rule:nonzero;stroke:none"
         id="path3366"
         d="m 176.677,39.476 c 0,-1.255 0.359,-1.813 1.176,-1.813 0.836,0 1.194,0.558 1.194,1.813 l 0,3.286 c 0,1.254 -0.358,1.811 -1.174,1.811 -0.837,0 -1.196,-0.557 -1.196,-1.811 l 0,-3.286 z m 4.223,0.119 c 0,-1.553 -0.18,-2.23 -0.777,-2.808 -0.538,-0.537 -1.315,-0.816 -2.25,-0.816 -0.956,0 -1.733,0.279 -2.271,0.816 -0.577,0.578 -0.776,1.255 -0.776,2.808 l 0,3.047 c 0,1.553 0.199,2.23 0.776,2.828 0.538,0.517 1.315,0.797 2.271,0.797 0.935,0 1.712,-0.28 2.25,-0.797 0.597,-0.598 0.777,-1.275 0.777,-2.828 l 0,-3.047" /><path
         inkscape:connector-curvature="0"
         style="fill:#009b48;fill-opacity:1;fill-rule:nonzero;stroke:none"
         id="path3368"
         d="m 184.763,44.793 c 0.856,0.995 1.592,1.414 2.469,1.414 1.096,0 1.613,-0.737 1.613,-2.311 l 0,-7.726 -1.852,0 0,7.249 c 0,0.876 -0.179,1.154 -0.717,1.154 -0.497,0 -1.056,-0.358 -1.513,-0.995 l 0,-7.408 -1.852,0 0,9.897 1.852,0 0,-1.274" /><path
         inkscape:connector-curvature="0"
         style="fill:#009b48;fill-opacity:1;fill-rule:nonzero;stroke:none"
         id="path3370"
         d="m 95.669,17.613 c 1.294,0 2.051,0.678 2.051,1.872 0,1.334 -0.916,2.211 -2.35,2.211 l -0.737,0 0,-4.083 1.036,0 z m -0.299,5.975 c 1.254,0 2.071,0.736 2.071,1.872 0,0.498 -0.179,0.936 -0.498,1.234 -0.339,0.299 -0.756,0.418 -1.533,0.418 l -0.777,0 0,-3.524 0.737,0 z m -2.788,5.417 3.067,0 c 2.489,0 3.883,-1.215 3.883,-3.366 0,-1.574 -0.697,-2.509 -2.191,-2.967 1.793,-0.518 2.51,-1.434 2.51,-3.187 0,-2.349 -1.474,-3.763 -3.943,-3.763 l -3.326,0 0,13.283" /><path
         inkscape:connector-curvature="0"
         style="fill:#009b48;fill-opacity:1;fill-rule:nonzero;stroke:none"
         id="path3372"
         d="m 102.101,25.619 1.852,0 0,-9.898 -1.852,0 0,9.898 z m 0,3.386 1.852,0 0,-1.933 -1.852,0 0,1.933 z" /><path
         inkscape:connector-curvature="0"
         style="fill:#009b48;fill-opacity:1;fill-rule:nonzero;stroke:none"
         id="path3374"
         d="m 108.075,19.027 c 0,-1.255 0.358,-1.812 1.175,-1.812 0.836,0 1.195,0.557 1.195,1.812 l 0,3.287 c 0,1.253 -0.359,1.811 -1.175,1.811 -0.837,0 -1.195,-0.558 -1.195,-1.811 l 0,-3.287 z m 4.222,0.119 c 0,-1.552 -0.18,-2.229 -0.777,-2.807 -0.538,-0.537 -1.314,-0.817 -2.25,-0.817 -0.956,0 -1.733,0.28 -2.27,0.817 -0.578,0.578 -0.777,1.255 -0.777,2.807 l 0,3.047 c 0,1.554 0.199,2.231 0.777,2.829 0.537,0.517 1.314,0.796 2.27,0.796 0.936,0 1.712,-0.279 2.25,-0.796 0.597,-0.598 0.777,-1.275 0.777,-2.829 l 0,-3.047" /><path
         inkscape:connector-curvature="0"
         style="fill:#009b48;fill-opacity:1;fill-rule:nonzero;stroke:none"
         id="path3376"
         d="m 114.547,29.005 1.852,0 0,-13.283 -1.852,0 0,13.283 z" /><path
         inkscape:connector-curvature="0"
         style="fill:#009b48;fill-opacity:1;fill-rule:nonzero;stroke:none"
         id="path3378"
         d="m 120.521,19.027 c 0,-1.255 0.358,-1.812 1.176,-1.812 0.836,0 1.194,0.557 1.194,1.812 l 0,3.287 c 0,1.253 -0.358,1.811 -1.175,1.811 -0.837,0 -1.195,-0.558 -1.195,-1.811 l 0,-3.287 z m 4.223,0.119 c 0,-1.552 -0.18,-2.229 -0.778,-2.807 -0.537,-0.537 -1.314,-0.817 -2.25,-0.817 -0.956,0 -1.732,0.28 -2.27,0.817 -0.577,0.578 -0.777,1.255 -0.777,2.807 l 0,3.047 c 0,1.554 0.2,2.231 0.777,2.829 0.538,0.517 1.314,0.796 2.27,0.796 0.936,0 1.713,-0.279 2.25,-0.796 0.598,-0.598 0.778,-1.275 0.778,-2.829 l 0,-3.047" /><path
         inkscape:connector-curvature="0"
         style="fill:#009b48;fill-opacity:1;fill-rule:nonzero;stroke:none"
         id="path3380"
         d="m 128.707,21.417 c 0,-1.075 0.376,-1.613 1.114,-1.613 0.776,0 1.136,0.518 1.136,1.613 l 0,1.096 c 0,1.094 -0.36,1.612 -1.116,1.612 -0.758,0 -1.134,-0.537 -1.134,-1.612 l 0,-1.096 z m 0.158,-6.014 c -0.239,-0.199 -0.438,-0.557 -0.438,-0.837 0,-0.577 0.518,-0.816 1.832,-0.816 1.295,0 1.892,0.279 1.892,0.857 0,0.377 -0.239,0.577 -0.776,0.657 -0.28,0.059 -0.458,0.059 -1.474,0.099 -0.259,0.02 -0.519,0.04 -0.976,0.1 -0.02,-0.02 -0.02,-0.04 -0.06,-0.06 z m 5.138,8.344 c -0.219,0.199 -0.378,0.259 -0.637,0.259 -0.32,0 -0.498,-0.1 -0.717,-0.378 0.14,-0.519 0.199,-0.977 0.199,-1.653 0,-2.469 -1.056,-3.804 -2.987,-3.804 -0.219,0 -0.399,0.02 -0.717,0.08 -0.279,-0.14 -0.437,-0.339 -0.437,-0.578 0,-0.219 0.138,-0.359 0.397,-0.438 0.199,-0.04 0.398,-0.059 1.534,-0.12 1.254,-0.079 1.791,-0.198 2.329,-0.537 0.598,-0.379 0.937,-1.075 0.937,-1.912 0,-1.692 -1.235,-2.469 -3.944,-2.469 -2.29,0 -3.425,0.597 -3.425,1.792 0,0.777 0.459,1.255 1.553,1.633 -0.837,0.339 -1.155,0.697 -1.155,1.295 0,0.756 0.418,1.154 1.533,1.533 -1.154,0.617 -1.652,1.673 -1.652,3.525 0,2.469 1.056,3.784 3.047,3.784 1.135,0 1.793,-0.359 2.41,-1.255 0.258,0.896 0.756,1.255 1.732,1.215 l 0,-1.972" /><path
         inkscape:connector-curvature="0"
         style="fill:#009b48;fill-opacity:1;fill-rule:nonzero;stroke:none"
         id="path3382"
         d="m 135.577,25.619 1.852,0 0,-9.898 -1.852,0 0,9.898 z m 0,3.386 1.852,0 0,-1.933 -1.852,0 0,1.933 z" /><path
         inkscape:connector-curvature="0"
         style="fill:#009b48;fill-opacity:1;fill-rule:nonzero;stroke:none"
         id="path3384"
         d="m 144,22.193 0,0.26 c 0,1.135 -0.378,1.672 -1.195,1.672 -0.458,0 -0.837,-0.198 -1.015,-0.537 -0.179,-0.339 -0.24,-0.776 -0.24,-1.732 l 0,-2.39 c 0,-0.937 0.061,-1.374 0.24,-1.713 0.178,-0.339 0.557,-0.538 1.015,-0.538 0.817,0 1.195,0.538 1.195,1.733 l 0,0.279 1.852,0 0,-0.378 c 0,-1.176 -0.199,-1.872 -0.697,-2.411 -0.538,-0.597 -1.355,-0.916 -2.35,-0.916 -1.115,0 -1.991,0.359 -2.489,1.036 -0.458,0.618 -0.617,1.314 -0.617,2.669 l 0,2.867 c 0,1.354 0.159,2.071 0.617,2.688 0.498,0.678 1.374,1.036 2.489,1.036 1.016,0 1.812,-0.298 2.35,-0.896 0.498,-0.537 0.697,-1.215 0.697,-2.369 l 0,-0.36 -1.852,0" /><path
         inkscape:connector-curvature="0"
         style="fill:#009b48;fill-opacity:1;fill-rule:nonzero;stroke:none"
         id="path3386"
         d="m 151.748,20.819 c -1.633,-0.876 -2.291,-1.573 -2.291,-2.489 0,-0.657 0.398,-1.115 0.936,-1.115 0.518,0 0.995,0.319 1.355,0.896 l 0,2.708 z m 0.158,-5.097 c -0.1,0.278 -0.158,0.677 -0.158,1.155 -0.897,-0.976 -1.434,-1.295 -2.231,-1.295 -1.255,0 -2.012,0.996 -2.012,2.629 0,1.234 0.458,2.012 1.614,2.729 0.477,0.298 0.975,0.537 2.629,1.253 l 0,0.519 c 0,1.016 -0.28,1.413 -0.977,1.413 -0.697,0 -1.016,-0.418 -1.096,-1.413 l -1.951,0 c 0.16,1.971 1.315,3.047 3.307,3.047 0.916,0 1.572,-0.259 2.031,-0.757 0.418,-0.498 0.537,-0.976 0.537,-2.19 l 0,-4.402 c 0,-1.493 0.04,-1.951 0.219,-2.688 l -1.912,0" /><path
         inkscape:connector-curvature="0"
         style="fill:#009b48;fill-opacity:1;fill-rule:nonzero;stroke:none"
         id="path3388"
         d="m 156.069,29.005 1.852,0 0,-13.283 -1.852,0 0,13.283 z" /><path
         inkscape:connector-curvature="0"
         style="fill:#009b48;fill-opacity:1;fill-rule:nonzero;stroke:none"
         id="path3390"
         d="m 167.519,17.613 c 1.453,0 1.971,0.757 1.971,2.828 l 0,3.844 c 0,2.091 -0.518,2.827 -1.971,2.827 l -1.016,0 0,-9.499 1.016,0 z m -3.066,11.392 3.246,0 c 2.608,0 3.843,-1.335 3.843,-4.162 l 0,-4.959 c 0,-2.828 -1.235,-4.162 -3.843,-4.162 l -3.246,0 0,13.283" /><path
         inkscape:connector-curvature="0"
         style="fill:#009b48;fill-opacity:1;fill-rule:nonzero;stroke:none"
         id="path3392"
         d="m 173.792,25.619 1.852,0 0,-9.898 -1.852,0 0,9.898 z m 0,3.386 1.852,0 0,-1.933 -1.852,0 0,1.933 z" /><path
         inkscape:connector-curvature="0"
         style="fill:#009b48;fill-opacity:1;fill-rule:nonzero;stroke:none"
         id="path3394"
         d="m 179.906,15.722 -2.43,9.897 1.971,0 1.414,-6.293 1.256,6.293 1.951,0 -2.211,-9.897 -1.951,0" /><path
         inkscape:connector-curvature="0"
         style="fill:#009b48;fill-opacity:1;fill-rule:nonzero;stroke:none"
         id="path3396"
         d="m 189.921,22.532 c 0,1.175 -0.358,1.654 -1.214,1.654 -0.857,0 -1.215,-0.498 -1.215,-1.654 l 0,-0.537 2.429,0 0,0.537 z m -2.429,-2.171 0,-0.876 c 0,-0.956 0.06,-1.393 0.239,-1.732 0.179,-0.339 0.558,-0.538 1.016,-0.538 0.816,0 1.194,0.518 1.194,1.673 l 0,0.258 1.852,0 c -0.02,-1.353 -0.079,-1.791 -0.377,-2.289 -0.479,-0.857 -1.435,-1.335 -2.669,-1.335 -1.136,0 -1.992,0.359 -2.49,1.036 -0.438,0.618 -0.617,1.354 -0.617,2.688 l 0,2.947 c 0,1.574 0.179,2.231 0.797,2.809 0.537,0.537 1.313,0.816 2.25,0.816 0.996,0 1.813,-0.318 2.33,-0.916 0.557,-0.637 0.756,-1.354 0.756,-2.907 l 0,-1.634 -4.281,0" /><path
         inkscape:connector-curvature="0"
         style="fill:#009b48;fill-opacity:1;fill-rule:nonzero;stroke:none"
         id="path3398"
         d="m 195.836,25.619 0,-1.713 c 0.497,1.315 1.214,1.853 2.371,1.853 l 0,-2.152 c -0.36,0.14 -0.598,0.18 -0.897,0.18 -0.498,0 -0.896,-0.18 -1.155,-0.517 -0.259,-0.339 -0.319,-0.658 -0.319,-1.594 l 0,-5.954 -1.852,0 0,9.897 1.852,0" /><path
         inkscape:connector-curvature="0"
         style="fill:#009b48;fill-opacity:1;fill-rule:nonzero;stroke:none"
         id="path3400"
         d="m 203.542,22.691 c -0.377,1.037 -0.816,1.434 -1.533,1.434 -0.577,0 -0.975,-0.358 -0.975,-0.876 0,-0.537 0.278,-0.796 1.673,-1.573 1.115,-0.617 1.613,-0.956 2.011,-1.354 0.438,-0.458 0.698,-1.135 0.698,-1.872 0,-1.753 -1.236,-2.928 -3.047,-2.928 -1.694,0 -2.748,0.877 -3.386,2.789 l 1.732,0.597 c 0.399,-1.215 0.876,-1.693 1.654,-1.693 0.617,0 1.054,0.419 1.054,0.996 0,0.558 -0.318,0.916 -1.393,1.493 -1.394,0.778 -1.734,1.016 -2.171,1.474 -0.458,0.478 -0.717,1.155 -0.717,1.872 0,1.594 1.215,2.768 2.888,2.768 1.573,0 2.589,-0.777 3.206,-2.389 l -1.694,-0.738" /><path
         inkscape:connector-curvature="0"
         style="fill:#009b48;fill-opacity:1;fill-rule:nonzero;stroke:none"
         id="path3402"
         d="m 207.187,25.619 1.853,0 0,-9.898 -1.853,0 0,9.898 z m 0,3.386 1.853,0 0,-1.933 -1.853,0 0,1.933 z" /><path
         inkscape:connector-curvature="0"
         style="fill:#009b48;fill-opacity:1;fill-rule:nonzero;stroke:none"
         id="path3404"
         d="m 215.651,23.966 -1.693,0 0,-5.278 c 0,-0.995 0.338,-1.413 1.155,-1.413 0.219,0 0.398,0.039 0.717,0.12 l 0,-1.673 c -0.518,-0.1 -0.836,-0.14 -1.254,-0.14 -0.937,0 -1.614,0.239 -2.012,0.737 -0.358,0.438 -0.458,0.916 -0.458,2.171 l 0,5.476 -1.434,0 0,1.653 1.434,0 0,2.708 1.852,0 0,-2.708 1.693,0 0,-1.653" /><path
         inkscape:connector-curvature="0"
         style="fill:#009b48;fill-opacity:1;fill-rule:nonzero;stroke:none"
         id="path3406"
         d="m 223.457,25.619 -2.151,-9.479 c -0.678,-3.246 -1.414,-3.943 -4.201,-3.943 l 0,1.911 c 0.119,-0.019 0.258,-0.019 0.298,-0.019 1.036,0 1.713,0.657 1.713,1.633 0,0.218 -0.04,0.458 -0.14,0.856 l -2.17,9.041 1.951,0 1.453,-6.751 1.334,6.751 1.913,0" /></g></g></svg>