<?xml version="1.0" encoding="utf-8"?>
<!-- Generator: Adobe Illustrator 24.2.1, SVG Export Plug-In . SVG Version: 6.00 Build 0)  -->
<svg version="1.1" id="Layer_1" xmlns:amcharts="http://amcharts.com/ammap"
	 xmlns="http://www.w3.org/2000/svg" xmlns:xlink="http://www.w3.org/1999/xlink" x="0px" y="0px" viewBox="0 0 612 792"
	 style="enable-background:new 0 0 612 792;" xml:space="preserve">
<style type="text/css">
	.st0{fill:#CCCCCC;stroke:#FFFFFF;stroke-width:0.5;}
</style>
<defs>
	
		<amcharts:ammap  bottomLatitude="-58.488473" leftLongitude="-169.110266" projection="mercator" rightLongitude="190.480712" topLatitude="83.63001">
		</amcharts:ammap>
</defs>
<path class="st0" points="126.6,615.3 126.1,615.1 125.6,615.2 125,615.5 124.6,615.6 124.4,615.5 124.3,615.5 124.3,615.6 
	124.3,615.7 124.4,615.8 124.4,615.8 124.3,615.8 123.4,615.6 123,615.4 122.7,615 122.6,614.7 122.5,614.5 122.4,614.4 
	122.4,614.3 122.5,614.2 122.6,614.1 122.6,613.8 122.5,613.5 122.4,613.4 122.4,613.2 122.4,612.8 122.5,612.1 122.7,611.3 
	122.8,610.9 122.7,610.7 122.7,610.2 122.6,609.9 122.4,609.6 122.2,608.8 121.9,608.5 121.6,608.2 121.5,608 121.4,607.8 
	121.2,607.6 121,607.4 120.7,606.8 120.6,606.5 120.6,606.4 120.3,606 120.1,605.7 120,605.4 120,605.2 119.8,604.7 119.6,604.3 
	119.4,604 119.3,603.8 119.1,603.6 118.8,603.4 118.6,603.4 118.3,603.4 118.2,603.4 117.8,603.5 117.4,603.6 117.3,604 
	117.2,604.2 117,604.5 116.3,604.6 115.7,604.7 115.1,604.8 114.3,605.2 114,605.5 113.7,605.6 113.5,605.6 113.3,605.4 
	112.8,604.9 112.6,604.7 112.3,604.6 112,604.6 111.7,604.7 111.4,604.7 111.1,604.5 111.1,604.5 111,604.5 110.2,604.3 
	110.1,604.3 110.1,604.3 110,604.3 109.4,604.3 108.8,603.9 108.6,603.9 108.5,604.1 108.4,604.3 108,604.5 107.9,604.6 
	107.8,604.5 107.8,604.3 107.8,604.2 107.7,604.1 107.5,604 107.5,603.9 107.3,603.9 107.2,603.9 107.2,603.9 107,604 106.8,603.7 
	106.5,603.5 106.3,603.4 106.2,603.3 106.1,603.1 106,603 106,603 106,602.8 105.9,602.8 105.9,602.8 105.6,602.8 105.6,602.1 
	106,601.6 106.1,601.3 106.3,600.8 106.4,600.5 106.5,600.3 106.6,600.1 106.6,599.9 106.7,599.9 107,600.1 107.3,600.2 
	107.4,600.1 107.4,600 107.4,599.9 107.2,599.7 107,599.5 107,599.4 107.1,599.2 107.1,599 107.1,598.7 106.9,598.1 106.9,597.9 
	107.1,597.6 107.6,596.9 107.8,596.6 108,596.3 108.6,595.5 109,595.1 109.3,594.9 109.7,594.5 109.9,594.3 110.6,594.2 110.7,594 
	110.8,593.8 110.9,593.7 110.9,593.3 110.8,592.8 110.7,592.6 110.6,592.5 110.7,592.4 110.8,592.4 110.9,592.4 111,592.3 
	111,592.2 110.7,591.9 110.6,591.7 110.4,591.1 110,590.5 109.9,590.3 109.9,590.1 110,589.9 109.9,589.7 109.7,589.4 109.5,588.9 
	109.5,588.5 109.6,588.3 109.7,588.1 109.6,587.8 109.7,587.4 109.7,587.1 109.6,587 109.5,586.8 109.2,586.6 109.1,586.5 
	108.7,586.3 108.3,586.1 108.2,586 108.2,585.9 108.3,585.8 108.6,585.4 108.9,585 109.1,584.8 110.1,584.3 110.3,584.1 
	110.3,583.8 110.3,583.6 110.3,583.2 110.2,582.6 110.1,582.2 109.9,581.5 109.4,580 109.1,578.4 109.3,578.5 109.8,578.5 
	110.2,578.4 110.4,578.4 110.6,578.4 110.9,578.3 111.1,578.3 111.2,578.4 111.4,578.5 111.9,578.3 112.3,578.1 112.7,578.1 
	112.8,578 112.9,577.4 113,577.3 113.5,577.4 113.7,577.3 113.9,577 114.2,576.8 114.4,576.8 114.7,576.6 114.8,576.7 114.9,576.9 
	114.8,577.1 114.8,577.2 115,577.3 115.3,577.3 115.5,577.2 115.5,577.1 115.5,576.9 115.5,576.7 115.4,576.5 115.2,576.4 
	115,576.4 115,576.3 115.1,576.1 115.2,575.7 115.4,575.3 115.5,575.2 115.5,575.1 115.5,574.9 115.5,574.5 115.7,573.9 
	115.9,573.5 116.2,573.4 116.6,573.3 116.8,573.1 116.9,572.9 116.9,572.7 117,572.5 117.1,572.4 118,572.4 118.1,572 118.2,571.9 
	118.4,571.8 118.5,571.7 118.5,571.6 118.3,571.5 117.8,571.4 117.7,571.3 117.7,571.2 117.8,570.8 117.9,570.3 118,569.9 
	118,569.7 118.1,569.6 118.5,569.5 118.6,569.4 119,568.9 119.3,568.8 120,568.9 120.3,568.9 120.4,568.9 120.7,568.9 120.7,568.8 
	120.8,568.3 120.9,568.2 121.5,567.5 121.9,567.2 122.1,567.1 122.2,567.1 122.3,566.9 122.4,566.5 122.4,566.2 122.3,565.8 
	122.1,565.2 122.1,565 121.8,564.7 121.8,564.5 121.7,564.2 121.6,564 121.6,563.6 121.5,563.4 121.4,563.3 121,563.4 121,563.4 
	121.2,562.7 121.2,562.3 121.3,561.9 121.4,561.7 121.4,561.6 121.4,561.3 121.4,561.1 121.3,561 121,560.7 120.6,560.4 120.5,560 
	120.4,559.9 120.1,559.9 120.1,559.8 120.1,559.5 120.2,559.2 120.5,558.9 120.6,558.7 120.7,558.5 121.3,558.3 121.4,558.2 
	121.4,558.1 121.4,558 121.3,557.9 121.2,557.7 121.1,557.3 120.9,556.6 120.7,556.2 120.7,555.9 120.8,555.6 120.9,555.3 
	120.9,555 120.6,553.4 120.6,553.1 120.7,552.8 120.8,552.6 121.1,552.3 121.5,551.7 121.8,550.9 121.9,550.4 122,550.3 
	122.2,550.3 122.3,550.2 122.3,550.1 122.5,550 122.6,549.9 122.5,549.7 122.3,549.4 122.2,549.2 122.2,549.3 121.9,549.6 
	120.3,549.4 119.3,549.4 119,549.3 118.4,548.8 117.9,548.8 116,549 115.5,549 115.2,548.9 115.2,549.1 115.2,549.3 115,549.5 
	113.4,549.5 112.6,549.9 112,549.8 111.4,550.3 111.1,550.3 111.2,550.7 110.4,550.8 110,551 109.6,551.3 109.7,551.8 109.6,552 
	109.6,552.2 109.7,552.4 109.6,552.6 109.4,552.8 109.6,553.3 109.6,553.5 109.7,553.5 110.1,553.5 110,553.7 109.7,553.9 
	109.6,554.2 109.8,554.6 110.2,555 110.2,555.4 110.4,555.8 111.1,556.1 111.4,556.3 111.7,556.2 111.8,556 111.9,555.7 
	112.1,555.7 112.5,555.9 112.6,556.2 112.6,556.3 112.5,556.4 112.4,557.2 112,558.2 112,558.4 111.9,558.9 112.1,559.6 
	112.2,561.3 112.1,561.7 111.8,562.1 111.2,562.6 110.9,562.9 110.1,563.1 109.1,562.5 108.7,561.3 108.4,560.9 107.3,559.8 
	107.2,559.5 107,559.1 106.1,559.4 105.3,559.8 104.7,559.9 103.9,561.2 103.8,561.6 103.8,562.1 103.6,562.7 103.3,563.1 
	102.8,563.7 102.7,564.7 102.7,566.6 102.8,567.6 102.8,567.8 102.8,568.8 103.1,569.8 103.3,570.6 103.2,571.1 103.3,571.5 
	103.3,571.5 103.5,571.5 103.8,571.4 104,571.6 104.3,571.8 104.7,572 105.2,572.3 105.8,572.5 106,572.5 106.6,572.5 107.2,572.5 
	107.4,572.9 107.7,573.1 107.9,573.4 107.9,573.6 107.6,574.6 107.5,574.9 107.5,575.2 107.6,575.6 107.7,575.8 107.6,575.8 
	106,575.8 104.5,575.7 103.1,575.6 101.8,575.5 100.5,575.4 99.7,575.3 98.9,575.2 98.8,575.1 98.7,575.2 98.3,575.4 97.1,575.6 
	96.7,575.5 96.2,575.2 96,574.8 95.6,573.7 95.8,573.7 96.3,574.1 96.6,574.3 96.5,574.1 95.9,573.7 95.3,573.4 94.6,573.4 
	93.9,573.5 92.3,573.9 91.6,574.3 91,575 90.1,575.2 89.6,575.8 89.4,576.2 89.3,576.3 89.2,576.5 88.8,576.6 88.4,576.7 
	86.7,577.2 85.1,577.8 84.2,578.2 83.8,578.2 83.7,578.1 83.2,577.7 82.6,577.3 82.6,577.5 82.6,577.7 82.7,577.8 82.8,578 
	82.7,578.3 82.8,578.6 83.1,578.7 83.4,578.6 83.5,578.6 83.9,578.7 84.5,578.9 84.5,579.2 84.5,579.4 84.6,579.5 84.6,579.7 
	84.3,579.5 83.7,579.2 83.7,579.2 83,579 82.8,578.8 82.6,578.6 82.5,577.8 82.2,577.2 81.4,577.3 80.6,576.6 80.3,576 79.9,575.9 
	79.6,575.8 79,575.7 78.4,576.3 78.2,576.6 77.8,576.9 77.6,577.2 76.7,577.3 76.4,577.5 75.7,578.2 75.5,578.3 74.7,578 
	74.2,578.1 74,578 73.9,577.7 74.5,577.2 74.7,576.7 74.6,576.2 74.4,576.2 73.8,576.5 72.8,575.9 72.4,576 72.3,575.8 72.2,575.6 
	71.4,575.7 71.6,575.5 71.8,575.2 71.8,574.8 71.6,574.5 71.4,574.3 71,574.2 71,574.1 70.9,573.6 71,573.4 70.9,573.2 70.8,573.1 
	70.6,573 70.3,573 70.4,572.6 70.8,572.2 70.9,571.9 70.8,571.5 70.8,571.2 70.7,570.8 70.9,570.5 71.2,570.2 71.3,570 71.5,569.7 
	71.8,569.6 71.9,569.5 71.7,569.2 71.5,569.1 71.8,568.9 72.1,568.9 72.2,569 72.3,568.9 72.4,568.2 72.7,567.2 72.9,567 73,566.9 
	73.3,567.3 73.5,567.3 73.9,567.1 74.2,566.8 74.3,566.5 74.4,566.1 74.3,565.8 74.2,565.7 73.2,565.7 72.9,565.5 72.6,565.2 
	72.6,564.4 72.6,564.2 72.6,563.3 72.7,563.2 73,562.4 73.2,562 73.2,561.3 73.3,560.9 73,560.3 73,560 73.1,559.8 73.5,559.3 
	73.3,559.3 72.5,559.9 71.7,560.1 71.3,560.6 70.6,561.9 70.3,562.2 69.9,562.3 69.2,562.3 69,562.3 68.6,562.5 68.1,562.5 
	67.6,563.2 67.2,563.9 67.1,564.1 67.1,564.4 67.3,564.6 67.6,564.8 68,564.6 68.5,564.5 68.8,563.7 69.1,563 69.4,562.9 
	69.8,563.1 69.7,564.1 69.7,564.6 69.5,564.4 69.3,564.2 69.1,564.3 68.8,564.5 68.4,565 68.3,565.4 68.2,565.6 68,565.5 
	67.8,565.3 67.6,565.3 67.1,565 67,565 66.8,565.1 66.7,566.5 66.7,567.4 66.9,568.2 66.8,568.6 66.7,570.1 67.3,570.5 68.1,571 
	68.2,571.4 68.3,572.2 68,572.3 68.2,572.7 68.3,573 68.3,573.4 68.3,573.9 68.6,574.4 68.9,574.9 69.1,575.2 69.1,575.5 
	68.8,575.7 68.3,575.8 68.2,576 68.3,576.3 68.6,576.3 68.7,576.2 68.9,576.3 69.1,576.5 69.1,577.7 69.1,577.9 69.3,578.1 
	69.6,578.2 70,578.2 70.3,578.4 71.2,579.6 71,580 70.7,579.9 70.5,579.7 69.8,578.7 69.5,578.5 68.6,578.6 67.8,578.4 67.7,578.6 
	67.6,578.9 67.5,579.4 67.6,579.9 67.5,580.7 67.5,580.1 67.4,579.9 67.1,579.6 67,579.7 66.9,580 66.8,580.3 66.7,580.4 
	66.4,580.2 66.6,579.8 66.2,579.1 65.1,579.1 64.1,579.2 63.9,579.3 63.6,579.8 63.5,580.2 63.4,580.7 63.7,580.9 63.8,581.1 
	63.4,581 63.1,580.9 62.9,580.7 62.6,580.4 61.9,580.4 61.3,580.5 60.5,580.5 60,580.7 59,581.2 58.8,581.5 58.6,582 57.8,582.6 
	57.3,582.8 57.2,582.7 57,582.6 56.8,582.9 56.7,583.2 56.4,584.9 56.2,585.5 55.9,586 55.4,586.6 55.2,586.8 55.1,586.9 
	54.9,587.2 54.8,587.6 54.7,587.8 55.2,588.4 55.3,588.6 55.4,588.7 54.9,588.8 55.1,589 55.4,589.1 55.6,589.2 55.7,589.3 
	55.5,589.4 55.3,589.4 54.6,588.9 54.2,588.8 53.7,588.8 53.6,588.9 53.5,589.1 53.7,589.3 53.9,589.4 54.2,589.4 54.6,589.6 
	55.1,589.4 55.5,589.6 55.7,589.7 55.4,589.8 55.1,589.6 54.7,589.8 54,590 53.6,589.9 53.1,589.9 53,590 52.6,590.1 51.9,590.5 
	50.7,591.3 50.5,591.4 49,591.7 48.6,591.9 48.3,592.1 48.1,592.4 48,592.8 47.9,594.8 48,595 47.9,595.1 47.8,595.2 47.5,595.7 
	47,596.1 46.1,596.5 45.2,596.7 44,597.4 43.8,597.8 43.8,598 43.9,598.2 44.3,598.4 44.8,598.4 44.7,598.5 43.9,598.7 43.5,599 
	43.1,599.1 42.1,598.9 41.4,598.9 40.9,598.8 40.4,598.8 40.2,598.6 40.1,598.4 40,598 40,597.6 39.7,597.5 39.1,597.7 38.8,597.6 
	38.4,597.6 38.3,597.8 38.3,598 38.5,598.5 38.8,599.3 39.1,599.8 39.1,601.5 39.3,602 39.6,602.2 39.4,602.2 38.3,602.2 38.2,602 
	38,601.9 37.8,602.2 37.7,602.4 37.5,602.1 36.5,602.1 35.8,602.6 35.5,602.3 34.9,601.5 34.3,601.3 33.6,601.4 33.4,601.6 
	32.9,601.8 32.5,601.9 31.9,601.8 30.6,602.2 30.1,602.5 30,602.9 30,603.1 30.1,603.3 30.5,603.3 30.7,603.2 31.1,603.2 
	31.2,603.2 31.4,603.2 31.6,603.4 31.1,603.4 30.8,603.4 30.7,603.4 30.6,603.5 30.7,603.7 30.8,603.8 31,603.8 31.3,604 
	31.2,604.2 30.8,604.3 30.5,604.3 30.4,604.5 31.1,604.8 31.2,605.2 31.4,605.4 31.6,605.5 32,605.3 32.5,605.3 33.6,605.7 
	33.8,605.9 33.9,605.9 34.1,605.9 34.3,606 34.4,606 34.6,606 34.9,606.3 35.2,606.4 35.5,606.3 35.7,606.3 35.9,606.4 35.7,606.7 
	35.8,606.8 36.1,606.7 36.4,606.7 36.6,606.8 36.8,607 36.7,607.2 36.5,607.3 36.6,607.6 36.8,607.7 37,607.7 38.1,607.6 38.8,608 
	38.6,608 38.3,607.9 38,607.8 37.8,607.8 37.7,608 37.6,608.3 37.8,608.5 38,608.6 38.2,608.9 38,609.4 38,609.6 38.1,609.8 
	38.5,610.3 38.9,611 40,611.7 40.2,611.8 40.4,611.8 40.7,611.9 40.7,612.1 40.7,612.3 40.8,613.4 40.9,613.9 41,614 41,614.1 
	40.8,614 40.5,614 40.5,614.2 40.6,614.3 41.4,614.9 41.7,615.2 41.9,615.5 42.2,616.7 42.4,616.9 42.5,617.1 42.3,616.9 
	42.1,616.7 41.9,615.8 41.7,615.5 41,615 40.6,614.7 40.4,615.5 40.3,616.2 40.1,618.2 40.2,618.1 40.3,617.9 40.4,617.8 
	40.6,618.1 40.3,618.2 40.1,618.6 39.8,620.7 39.4,622.5 39,623 38.5,623.1 38.4,623.1 37.9,623.3 37.3,623.4 36.9,623.4 
	36.1,623.1 35.3,622.9 35.1,623 34.8,623.3 33.8,623 33.5,622.8 33.3,622.8 32.8,623 32.5,622.9 32.1,623 31.3,623.2 30.7,623.2 
	29.1,622.9 28.5,622.7 27.5,622.6 27,622.4 26.3,622.6 25.9,622.6 25.2,622.7 24.8,622.6 24,622.6 23.5,622.7 22.9,622.5 
	22.5,622.1 22.2,621.9 21.9,621.9 21.6,621.8 21.2,622 20.8,622 20.4,622.3 20.1,622.5 20,622.7 20.1,622.9 20.1,623.1 19.8,623.3 
	19.6,623.3 19.3,623.5 18.9,623.6 18.3,623.5 17.9,623.9 17.7,624 17.5,624.2 17.3,624.7 17.3,624.9 17.5,625.2 17.6,625.4 
	17.8,625.6 18.1,625.7 18.1,625.8 17.8,626.2 17.8,626.5 17.9,626.5 18.4,626.3 18.4,626.5 18.4,626.6 18.4,626.9 18.5,627 
	18.6,627.1 19,627 18.9,627.1 18.9,627.3 19.1,627.3 19.2,627.3 19,627.5 18.7,627.9 18.7,628.5 18.8,628.6 19,628.5 18.7,628.9 
	18.7,629.2 18.8,629.4 19.1,629.4 18.9,629.6 18.9,629.9 19.1,630.9 19.3,631.4 19.3,631.7 19.3,631.9 19.2,632.3 19.2,632.9 
	19.1,633.3 19,633.5 18.7,634.8 18.7,635.1 18.8,635.2 18.8,635.3 18.3,636.4 17.9,637.4 17.6,637.8 17.4,637.9 17.2,638.1 
	17.2,638.3 17.2,638.4 17,638.9 17,639.4 16.9,639.8 16.9,640 16.9,640.2 17.1,640.3 17.2,640.3 17.5,640.2 17.8,640.1 17.9,639.8 
	18.3,639.1 18.5,638.9 18.7,638.9 18.3,639.2 18.1,639.5 18.2,639.9 18.1,640.1 17.9,640.3 17.7,640.3 17.5,640.4 17.6,640.8 
	17.6,641.1 17.7,641.1 18,641 18.5,640.8 18.6,640.8 18.8,640.8 19,640.9 19.2,641.1 18.6,641 18.8,641.5 18.8,641.9 18.6,642.7 
	18.8,643 18.9,643.5 18.8,644 18.8,644.6 18.5,645.5 18.3,646 18.5,646.1 18.7,645.9 19,645.9 19.4,645.7 19.7,645.8 20.7,645.9 
	21.3,646.1 21.6,646.1 22.6,645.5 22.8,645.5 23.4,645.4 24,645.4 24.1,645.3 24.3,645.1 24.3,645.2 24.2,645.4 25.3,646.2 
	25.6,646.6 25.8,646.3 26.1,646.3 26,646.4 25.8,646.6 25.6,647 25.7,647.3 26,647.5 26,647.6 26,647.7 26.1,648 26.3,648.3 
	26.7,648.8 26.9,648.8 27.3,649.1 27.8,649.3 28,649.3 28.2,649.2 28.3,648.9 28.4,648.9 28.5,649 28.6,649 28.7,648.7 29,648.2 
	29.2,648 29.9,647.7 30.6,647.7 31.1,647.3 31.3,647.1 31.5,647 33,646.9 33.7,647 34.1,647.1 34.6,646.9 34.9,646.9 35.6,647 
	35.9,647.1 36.2,647 36.4,646.8 36.8,646.7 37.2,646.7 37.5,647 37.7,646.9 38.2,646.3 38.6,645.3 39,644.8 39.9,644.2 41,644.2 
	41.3,644.2 41.4,644.1 41.5,644 41.2,643.7 41.2,643.5 41.4,643.2 41.4,643.1 41.6,642.7 41.7,642.1 42,641.9 42.1,641.5 
	42.5,641.1 43.4,640.6 43.9,640.2 44.1,640 44,640 43.5,639.8 43.2,639.5 43,639.2 42.7,637.9 42.7,637.5 43.4,636.2 43.7,635.7 
	44,635.4 44.6,634.6 45.3,633.5 45.4,633.5 45.5,633.5 45.7,633.4 46.1,633.2 46.2,633.1 45.9,632.8 45.7,632.7 46,632.4 
	46.6,631.8 47.1,631.7 48.1,631.3 49.5,631 49.7,630.9 50.2,630.4 52.1,629.3 52.5,628.9 52.8,628.6 52.8,628.1 52.8,628 
	52.7,627.9 52.6,627.8 52.6,627.4 52.7,627.4 52.9,627.3 52.8,627.1 52.7,627 52.6,626.8 52.6,626.7 52.3,626.2 52.2,625.3 
	52.2,625 52.5,624.4 52.8,624 54.3,623 54.5,622.8 54.6,622.6 55,622.5 55.1,622.5 55.2,622.6 55.3,622.8 55.5,622.9 55.9,623 
	56,623 56.6,623.2 56.8,623.3 57,623.3 57,623.2 57.1,623.2 57.2,623.2 57.3,623.1 57.4,623 57.6,623 57.8,622.9 57.8,623 
	57.8,623.2 57.9,623.3 58.1,623.3 58.4,623.3 58.6,623.7 59.3,623.9 59.7,624.2 60.3,624.2 60.5,624.3 61,624 61.5,623.9 
	61.7,623.8 61.9,623.6 62,623.3 62.1,623.2 62.5,623 63.4,622.1 63.6,622 63.9,621.9 63.9,621.8 63.9,621.8 64,621.8 64.1,621.8 
	64.1,621.8 64.3,621.7 65,621.6 65.8,621.3 66,621.1 66.6,620.3 67.3,619.5 67.9,619.2 68.4,619.3 69.1,619.6 69.4,619.6 
	70.6,620.5 71.5,620.8 71.9,621.1 72.1,621.5 72.3,622.8 72.7,623.3 72.9,623.9 72.9,624.1 72.9,624.4 72.9,624.8 73.1,624.9 
	73.3,624.9 73.5,625 73.6,625.1 73.7,625.3 73.8,625.5 74.2,625.7 74.8,626.5 74.8,626.8 74.7,626.8 74.6,626.9 74.7,627 74.8,627 
	75,626.9 75.1,626.9 75.7,627.1 76.1,627.4 76.6,628.2 77.4,628.7 77.8,629.2 79,630.5 79.6,630.7 80.1,631.1 80.1,631.2 
	80.2,631.3 80.5,631.2 80.7,631.2 81,631.2 81.5,631.4 81.8,631.3 82,631.4 82.4,631.8 82.9,632.8 82.9,633 83,633.1 83.1,633 
	83.2,633 83.7,633 84,633.2 84.1,633.3 83.8,633.8 83.9,633.8 84.1,633.7 84.4,633.7 84.6,633.6 85,633.5 85.2,633.6 85.4,633.9 
	85.5,634.2 85.6,634.5 85.4,634.7 85.4,634.9 85.5,635 86.5,635.6 86.8,635.7 87.3,635.7 87.6,635.9 87.8,636.3 88.1,637.2 
	88.6,638.2 88.7,639 88.8,639.4 89.1,639.7 89.1,640.4 88.7,640.5 88.4,640.6 88.3,640.7 88.2,640.9 88.3,641.4 88.1,642 
	87.8,642.1 87.6,642.4 87.6,642.9 87.8,643.2 88.7,643.2 88.8,642.9 88.9,642.7 89.3,642.1 90,641.5 90.1,641.2 90.1,640.4 
	90.3,640.1 90.7,639.8 91.3,639.6 91.7,639.7 91.9,639.4 91.8,638.9 91.8,638 91.5,637.6 91,637.2 90.4,637 90.2,636.6 90.2,636.2 
	90.6,635.2 91,634.5 91.3,634 91.6,633.8 92,633.8 92.1,633.9 92.2,634.1 92.2,634.2 92.6,634.4 92.8,634.5 93.9,634.6 94.5,635.9 
	94.9,636.2 95.2,636.3 95.3,636 95.4,635.7 95.6,635.3 95.5,634.9 95.1,634.4 94.3,633.7 94.1,633.4 92.8,632.7 92.2,632.2 
	91.7,631.9 90.2,631.3 88.7,630.5 88.4,630.2 88.4,629.8 88.7,629.5 89,629.3 89.1,629.1 89,628.8 88.7,628.7 88.4,628.7 
	86.8,628.8 86.1,628.7 85.3,628.3 84.4,627.6 83.4,626.6 82.9,625.9 82.7,625.3 82.4,624 82.1,623.2 81.7,622.5 81.5,622.3 
	80.9,622 79.8,621.1 79.2,620.8 78.6,620.3 78.3,620 78,619.2 77.8,618 77.9,617.6 78,617.6 78.2,617.7 78.4,617.5 78.5,617.3 
	78.6,617 78.2,616.7 77.9,616 77.7,615.9 77.8,615.4 78,615 78.2,614.8 78.6,614.6 78.7,614.6 78.4,614.9 78.6,614.9 78.9,614.8 
	79.3,614.6 79.7,614.3 80.1,614.2 80.4,614 80.5,613.8 80.6,613.7 81.3,613.9 81.6,613.7 81.8,613.7 82.2,614.3 82,614.5 
	81.8,614.7 81.6,614.8 81.4,614.9 81.6,615.9 81.6,616.2 81.6,616.4 81.9,616.9 82.2,617.5 82.3,617.5 82.5,617.5 82.7,617.1 
	82.8,616.8 83.2,616.2 83.3,615.7 83.4,615.5 83.6,615.5 84.1,615.7 84.3,616 84.9,616.6 85,617 84.9,617.6 84.9,618 85.1,618.4 
	85.9,619.3 86.2,619.5 86.5,619.7 86.2,619.6 86,619.6 85.9,619.7 85.8,619.7 85.6,619.8 85.8,620.1 86.7,621.1 87.1,621.5 
	87.6,621.8 87.9,622.1 87.9,622.3 87.9,622.4 88,622.6 88.2,622.7 88.4,622.7 88.8,622.6 89.2,622.6 89.8,622.9 90.6,623.2 
	91.2,623.9 91.8,624.3 92.4,624.9 92.5,625 92.7,624.9 92.7,624.8 92.7,624.7 92.6,624.6 92,624 91.7,623.6 91.6,623.5 91.6,623.1 
	91.5,623 91,622.8 90.5,622.3 90,621.8 89.9,621.7 89.6,621.3 89.3,621 89,620.8 88.8,620.5 88.6,620.1 88.5,619.6 88.4,619.1 
	88.3,618.9 88.1,618.8 87.6,618.2 87.2,617.9 87.2,617.5 87.3,616.9 87.4,616.2 88,616 88.2,615.9 88.4,615.9 88.6,616 89,616.5 
	89.2,616.7 89.4,616.8 89.6,616.6 89.8,616.2 90,616 90.7,616.1 91.1,615.8 91.7,616.2 91.9,616.3 92,616.2 92.2,616.2 92.6,616.3 
	92.7,616.4 92.8,616.4 93.1,616.2 93.2,616.2 93.5,616.5 93.7,616.5 93.9,616.4 94,616.3 94.4,616.4 94.6,616.3 94.8,616.3 
	95,616.4 95.2,616.5 95.4,616.6 95.9,616.6 96.1,616.8 96.2,617 96.2,617.1 96.2,617.2 96.3,617.3 96.6,617.4 96.8,617.4 
	96.8,617.3 96.8,617.2 96.9,617.2 97,617.2 97.1,617.1 97.1,616.9 97,616.3 97.2,616.2 97.2,616.1 97.2,616 97.4,616.1 97.7,616.1 
	97.9,616.1 97.9,616 97.9,615.9 97.8,615.8 97.7,615.7 97.6,615.6 97.4,615.6 96.9,615.4 96.7,615.2 96.7,614.9 96.8,614.8 
	96.9,614.7 96.9,614.7 96.6,614.6 96.5,614.4 96.6,614.2 96.5,613.8 96.3,613.5 96.5,613.4 96.5,613.2 96.5,613.1 96.6,613.1 
	97,613 97.1,612.9 97.2,612.8 97.3,612.8 97.5,612.9 97.7,612.9 97.9,612.8 98,612.7 98.2,612.6 98.3,612.5 98.4,612.4 98.6,612.1 
	98.8,612 99.1,612.1 99.4,612.1 99.7,612 100.3,612.1 100.4,612.2 100.5,612.3 100.7,612.5 100.9,612.8 101.1,612.9 101.4,613.1 
	101.5,613.2 101.7,613.6 101.9,613.8 102,613.8 102.1,613.8 102.1,613.8 102.1,613.8 102.1,613.9 102.1,614.1 102.1,614.4 
	102.2,614.6 102.2,614.7 102.2,614.8 102.2,614.9 102.3,615 102.5,615.2 102.7,615.4 102.9,615.6 103.1,615.7 103.2,615.7 
	103.4,615.9 103.8,616 103.9,616.1 104,616.2 104.1,616.3 104.1,616.4 104,616.4 103.9,616.5 103.9,616.7 103.8,616.7 103.7,616.7 
	103.6,616.7 103.6,616.8 103.7,616.9 103.8,617 104,617.1 104.2,617.2 104.2,617.3 104.2,617.4 104,617.4 103.8,617.4 103.7,617.4 
	103.7,617.5 104.2,617.6 104.4,617.7 104.5,617.9 104.8,618 105.3,618.1 105.6,618.3 105.8,618.6 106.1,618.5 106.5,618 
	106.9,617.9 107.3,618.1 107.5,618.3 107.5,618.4 107.4,618.5 107.2,618.5 107,618.6 106.9,618.8 106.9,619 107,619.2 107.1,619.4 
	107.3,619.5 107.4,619.6 107.4,619.7 107.4,619.7 107.3,619.8 107.2,619.9 107.1,620.1 107.1,620.4 106.7,620.6 106.6,620.6 
	106.5,620.7 106.4,621.1 106.4,621.4 106.4,621.6 106.4,621.7 106.5,621.9 106.6,622.1 106.7,622.4 106.9,622.6 107.3,622.8 
	107.5,622.9 107.6,623.1 107.7,623.3 108,623.5 108,623.7 107.9,623.9 107.8,624 107.6,624.2 107.4,624.3 107.1,624.7 106.7,624.7 
	106.6,624.7 106.4,624.8 106.3,625 106.4,625.2 106.4,625.4 106.3,625.7 106.4,626 106.5,626.1 106.5,626.2 106.5,626.4 
	106.3,626.7 106.2,626.8 106,626.9 106.4,627.5 106.6,627.7 106.9,627.9 107.2,628 107.3,628.1 107.5,628.7 107.6,628.9 107.7,629 
	107.7,629.1 107.7,629.2 107.5,629.6 107.4,630.5 107.4,630.6 107.2,630.6 107,630.6 106.9,630.7 106.8,631.2 106.5,631.3 
	106.2,631.4 105.9,631.4 105.4,631.3 105.3,631.3 105.2,631.4 104.8,631.4 104.6,631.5 104.2,632.1 103.8,632.3 103.7,632.4 
	103.4,632.3 103.2,632.3 103,632.4 102.5,632.4 102.4,632.4 102,632.4 102,632.7 102.1,632.9 102.2,633.1 102.2,633.2 102.1,633.4 
	102,633.7 101.8,633.8 101.6,633.9 101.5,634.1 101.4,634.3 101.3,634.5 101.2,634.7 101.1,635 101.1,635.1 101,635.2 100.8,635.3 
	100.6,635.3 100.5,635.4 100.4,635.5 100.3,635.6 100.2,635.6 100.2,635.7 100.3,635.9 100.4,636.1 100.4,636.2 100.3,636.2 
	100.1,636.2 100.1,636.3 100.1,636.5 100.1,636.6 100,636.7 99.9,636.8 99.7,636.8 99.5,636.7 99.4,636.7 99.3,636.7 99.6,636.9 
	99.9,637.2 100.2,638 100.7,638.3 101,638.7 101.3,639 101.4,639.1 101.6,639.2 102,639.1 102.3,639.1 102.4,639.1 102.5,639.1 
	102.6,639.3 102.6,639.5 102.5,639.6 102.4,639.6 101.9,639.4 101.6,639.4 101.6,639.6 101.6,639.8 101.9,639.9 102.2,640.3 
	102.4,640.8 102.6,641.2 102.8,641.3 103.1,641.2 103.2,641 103.2,640.8 103.3,640.8 103.4,641 103.6,641.3 103.9,641.3 
	104.1,641.2 104.3,641.2 104.5,641.2 105,641 105.7,641.2 106,641.2 106.2,641.1 106.3,640.9 106.8,641.2 107.3,641.4 107.4,641.5 
	107.5,641.6 107.8,641.7 108,641.7 108.1,641.7 108.3,641.7 108.5,641.8 108.6,642 108.5,642.1 108.4,642.2 107.9,642.2 
	107.7,642.3 107.8,642.5 107.8,642.7 107.6,642.7 107.5,642.7 107.3,642.5 106.9,642.3 106,642 105.2,641.5 104.8,641.5 
	104.6,641.7 104.3,642.1 104,642.1 103.7,642 103.6,642 103.3,642.6 102.8,643 102.7,643.1 102.7,643.2 102.9,643.3 103.1,643.5 
	103.2,643.9 103.4,644 103.8,644.3 104.1,644.8 104.1,645.1 103.8,645.5 103.8,645.9 104.2,646.7 104.6,647.1 104.7,646.9 
	104.7,646.6 104.7,646.3 104.9,646.2 105.1,646.2 105.3,646.4 105.4,646.6 105.6,646.7 106,647.3 106,647.5 106,648 106.1,648.1 
	106.3,648.2 106.3,647.8 106.6,647.1 106.9,647.1 107.1,647.1 107.2,647.4 107.6,648 107.8,648.1 107.9,648.2 108,648.2 
	107.9,647.9 107.7,647.6 107.8,647.1 107.8,646.8 107.6,646.2 107.2,645.2 107,644.8 106.9,644.3 107,644.1 107.2,644.3 
	107.5,644.4 107.7,644.5 107.9,644.6 107.9,644.9 108.1,645 108.2,644.9 108.3,644.8 109,644.6 109,644.5 108.9,644.4 108.8,644.2 
	108.8,644.1 108.7,644 108.5,644 108.3,643.9 108.2,643.6 108.2,643.3 108,643.1 107.9,643 107.9,642.9 108,642.9 108.3,642.7 
	108.9,642.6 109.1,642.4 109.2,642.4 109.3,642.5 109.7,642.9 110.1,643.3 110.4,643.7 110.5,643.7 110.6,643.6 110.6,643.4 
	110.6,643.2 110.5,642.7 110.5,642 110.4,641.7 110.3,641.5 109.9,641.3 109.5,641.2 109.2,640.7 108.6,640.6 108.3,640.1 
	108,640.1 107.7,639.8 107,639.6 106.8,639.4 106.7,639.4 106.5,639.3 106.6,639.2 106.8,639.2 107.2,639.2 107.6,639 108,638.7 
	107.7,638.7 108,639 107.9,638.8 107.8,638.5 108,638.3 108.2,638.2 108.7,638.5 108.7,638.7 108.6,639 108.7,639.1 108.9,639.1 
	109.2,638.8 109.1,638.4 108.9,638.1 108.5,637.6 108.2,637.3 108,637.1 107.8,636.5 107.1,635.6 107,635.3 107.1,634.7 
	107.2,634.4 107.1,634.2 107.1,634 107.4,633.8 107.6,633.6 107.9,633.6 107.8,633.8 107.7,633.9 107.8,634.2 108.4,634.6 
	109,634.9 109,635.4 109.2,635.8 109.9,636 110,636 110,635.9 109.4,635.5 109.3,635.3 109.2,634.9 109.3,634.7 110,634.8 
	110.5,635.5 110.8,635.7 110.9,635.6 111,635.5 110.9,635.2 110.8,635.1 110.5,634.9 110.2,634.6 110.2,634.4 110.5,634.3 
	110.8,634.3 111.2,634.5 111.5,634.6 111.7,634.8 112,635 111.9,634.7 111.7,634.4 111.2,634.1 110.9,634.1 110.7,634.1 
	110.6,633.9 110.7,633.7 110.4,633.4 110.3,633.2 110.4,632.9 110.9,632.9 111.3,633 111.7,632.8 112.1,632.3 112.4,632.2 
	112.6,632.2 112.9,632.4 113.2,632.4 113.8,632 114.1,631.9 114.5,632.1 114.7,632.1 115.2,632.3 116.2,632.5 116.6,632.8 
	116.7,633 116.8,633 116.9,633 117.1,632.7 117.3,632.5 117.6,632.2 117.7,632 117.7,632 117.6,631.9 117.6,631.8 117.6,631.6 
	117.6,631.2 118.2,630.8 118.4,630.8 118.5,630.6 118.5,630.2 118.4,629.9 118.3,629.9 118.2,629.8 118.1,629.7 118,629.6 
	117.7,629.5 117.7,629.4 117.7,629.3 117.8,629.2 118.2,629.1 118.3,629 118.4,628.8 118.5,628.6 118.6,628.5 118.8,628.5 
	119.1,628.5 119.3,628.4 119.5,628.3 119.6,628.2 120.1,628.1 120.2,628 120.3,628.1 120.5,628.3 120.8,628.6 121,628.7 
	121.1,628.7 121.3,628.6 121.5,628.6 121.7,628.6 121.8,628.5 121.9,628.5 122.3,628.6 122.2,628.3 121.7,627.7 121.4,627.2 
	121.2,627 120.8,626.7 121.6,625.8 121.8,625.8 122,625.7 122,624.7 122.1,624.1 122.2,623.9 122.4,623.8 122.7,623.3 123.2,623.2 
	123.6,623.3 123.9,622.9 124,622 124,621.8 124.2,621.1 124.2,619.9 124.4,619.6 124.8,619.1 124.9,618.8 124.7,618.8 124.7,618.7 
	124.8,618.6 124.8,618.3 124.9,618.2 125.1,618 125,617.6 125.1,617.4 125.2,617.3 125.5,617.4 125.4,617.6 125.5,617.8 
	125.5,618.1 125.4,618.3 126.8,618 126.9,617.7 127,617.4 127.1,616.7 127.1,616.5 127.1,616.2 126.9,616 "/>
<path class="st0" points="78.5,628.8 78.5,628.8 78.5,628.8 78.5,628.8 78.5,628.8 "/>
<path class="st0" points="78.5,620.8 78.7,620.8 78.7,620.9 78.6,621.1 78.4,621.1 78.3,620.9 "/>
<path class="st0" points="48.3,626.5 48,626.7 47.9,626.8 47.8,626.8 47.7,626.8 47.6,626.7 47.6,626.6 47.6,626.5 47.6,626.4 
	47.6,626.2 47.7,626.1 47.8,626 48,626 48.4,626.1 48.5,626.2 48.5,626.3 48.4,626.4 48.3,626.5 "/>
<path class="st0" points="72.8,609.8 72.8,610.1 72.9,610.3 72.9,610.4 72.9,610.5 72.7,610.5 72.4,610.4 72.2,610.2 72,610.2 
	71.9,610.3 71.8,610.5 71.7,610.8 71.7,610.9 71.8,611 71.9,611.2 72,611.5 72,611.6 72,611.7 71.9,611.7 71.8,611.7 71.6,611.3 
	71.5,611.2 71.3,611.2 71,611.3 70.6,611.5 70.4,611.5 70.3,611.5 70.2,611.3 70.1,611 70.1,610.8 70,610.8 69.7,610.7 69.6,610.8 
	69.6,611.1 69.6,611.5 69.5,611.8 69.1,612.3 69,612.5 68.9,612.6 68.9,612.7 69,612.9 69.1,613.1 69,613.2 68.8,613.3 68.7,613.2 
	68.6,613 68.3,612.7 68.4,612.4 68.4,612.3 67.9,612.2 67.7,612 67.4,611.7 67.3,611.5 67.3,611 67.3,610.9 67.3,610.8 67.2,610.8 
	67,611 66.8,611.3 66.4,611.6 66.4,611.7 66.5,612 66.5,612.1 66.2,612.5 66.1,612.6 65.7,612.9 65.5,613 65,612.8 64.8,612.8 
	64.6,612.9 64.3,613 63.7,613.1 63.5,613 63.4,612.9 63.4,612.8 63.3,612.6 63.1,612.5 63,612.3 62.9,612.1 62.8,612 62.9,611.6 
	62.8,611.4 62.8,611.2 62.8,611 62.8,611 62.3,610.9 61.9,610.9 61.6,611 61.4,611.2 61.4,611.3 61.4,611.3 61.5,611.5 61,612 
	60.7,612.2 60.5,612.2 60.4,612.2 60.4,611.9 60.6,611.8 60.8,611.6 60.9,611.4 60.9,611.2 60.7,611 60.7,610.9 60.8,610.7 
	60.9,610.5 61,610.3 61.3,610 61.7,609.7 61.8,609.4 61.8,609 61.8,608.9 62.3,608.7 62.4,608.6 62.5,608.5 62.9,608.1 63.3,607.7 
	63.4,607.6 63.5,607.5 63.5,607.4 63.5,607.3 63.3,607.3 63.2,607.2 63.4,607 63.6,606.9 63.8,606.9 63.9,607 63.9,607.1 64,607.2 
	64.2,607.2 64.4,607.2 64.6,607.1 64.7,606.9 64.8,606.7 65.1,606.5 65.3,606.6 65.9,606.6 66.4,606.5 66.7,606.4 67,606.4 
	67.2,606.5 67.2,606.5 67.3,606.5 67.4,606.4 67.6,606.4 67.6,606.3 67.6,606.2 67.6,606.2 67.3,606.2 67.2,606.2 67.2,606.1 
	67.3,605.9 67.5,605.8 67.7,605.8 67.8,605.8 68.1,606.1 68.2,606.1 68.2,606.1 68.3,606.1 68.4,606.2 68.5,606.4 68.5,606.4 
	69.2,606.3 69.4,606.3 69.9,606.6 70.4,606.9 70.5,607 70.7,607.2 70.7,607.5 70.5,608 70.5,608.1 70.5,608.2 70.5,608.3 
	70.5,608.4 70.5,608.5 70.6,608.6 70.6,608.7 70.6,608.8 70.6,608.9 70.7,608.9 71.1,609 71.4,609.1 71.5,609.2 71.5,609.4 
	71.8,609.6 72.2,609.7 72.3,609.7 72.8,609.2 73,609.3 73.1,609.6 73.1,609.7 "/>
<path class="st0" points="40.4,592.9 40.6,593.1 40.4,593.3 40.3,593.5 40.2,593.6 40,593.6 39.8,593.6 39.2,593.2 39.1,593.2 
	39.2,593 39.6,592.9 39.8,592.7 "/>
<path class="st0" points="95.3,552.3 95.2,552.4 95.1,552.4 95.2,552.1 95.3,552 95.5,551.9 95.6,551.9 "/>
<path class="st0" points="94.4,561.6 94.5,561.3 94.4,560.7 94.4,560.1 94.6,559.8 94.8,559.6 95.1,559.1 95.5,558.7 96,558.5 
	96.2,558.7 96.3,558.3 96.5,558.2 96.7,558.3 97,558.6 96.8,558.7 96.7,559.1 96.5,559.2 96.3,559.3 96.2,560.5 96.5,560.9 
	96.3,561 96.1,561.1 96,561.3 95.9,561.7 95.4,561.9 95.2,562.1 94.9,562.5 94.8,563.1 94.5,563.3 94.2,563.4 94.4,562.9 
	94.6,562.5 94.4,562.2 94.3,561.8 "/>
<path class="st0" points="97.2,558.5 97.1,558.3 97.4,557.9 97.8,557.9 97.9,558 97.4,558.2 97.3,558.5 "/>
<path class="st0" points="91.6,561.4 91.4,561.6 91.4,561.9 91.4,562 90.9,563.1 90.8,563.8 90.6,564 89.9,566.6 89.8,566.9 
	89.7,566.9 89.6,566.6 89.6,565.7 89.7,565.3 90.3,563.7 90.6,563.6 91,562.6 91.1,562.2 91.3,561.8 91.4,561.4 91.5,561.3 
	91.6,561.4 "/>
<path class="st0" points="96.1,549.5 96.1,549.5 95.9,549.7 95.8,549.8 95.7,550 95.6,549.8 95.6,549.8 95.6,549.6 95.7,549.5 "/>
<path class="st0" points="48.1,640.5 48.1,640.6 48,640.6 47.8,640.6 47.5,640.6 47.5,640.5 47.5,640.4 47.6,640.3 47.8,640.5 "/>
<path class="st0" points="53.3,636.7 53.3,636.9 53.2,637.2 53,637.5 52.8,637.8 52.7,638.1 52.4,638.3 52.2,638.4 51.7,638.2 
	51.4,638.1 51.3,638 51.2,637.6 51.1,637.5 50.9,637.4 50.7,637.5 50.5,637.7 50.4,637.5 50.2,637.5 50.1,637.4 50.1,637.3 
	51.3,636.4 51.6,636.2 52.3,636 52.4,636 52.3,636.1 52.3,636.2 52.4,636.3 52.4,636.4 52.3,636.5 52.3,636.7 52.6,636.8 
	52.9,636.7 53.1,636.7 "/>
<path class="st0" points="55.7,636.1 55.7,636.1 55.6,636.4 55.5,636.4 54.6,636 54.3,636 54.2,635.9 54.2,635.7 54.2,635.6 
	54.8,635.6 55.3,635.8 "/>
<path class="st0" points="48.1,639.1 48.1,639.3 47.7,639.7 47.6,639.7 47.5,639.9 47.1,639.8 47,639.7 47.1,639.5 47.2,639.5 
	47.2,639.3 47.3,639.1 48,639 "/>
<path class="st0" points="62.5,579.9 62.2,579.9 62.3,579.8 62.5,579.7 62.6,579.7 "/>
<path class="st0" points="58.3,580.8 58.2,580.7 58.8,580.5 59.2,580.4 59.3,580.4 58.6,580.6 "/>
<path class="st0" points="57.4,581.5 57.4,581.5 57.7,581.1 57.9,581.1 "/>
<path class="st0" points="56.9,582.5 56.9,582.5 56.9,582.2 57.3,581.8 57.3,582.3 57,582.6 "/>
<path class="st0" points="54,588.5 54,588.5 54.3,588.3 54.7,588.3 55,588.5 55.1,588.6 55.1,588.7 54.8,588.8 54.4,588.5 
	54.2,588.6 "/>
<path class="st0" points="59.5,580.5 59.5,580.5 59.6,580.4 60.1,580.4 60.2,580.4 60.2,580.4 59.6,580.5 "/>
<path class="st0" points="61,580.4 61,580.4 61,580.4 61.3,580.2 61.4,580.2 "/>
<path class="st0" points="83.7,649.8 83.7,649.8 83.7,649.9 83.5,650 83.3,649.9 83.3,649.8 83.5,649.7 "/>
<path class="st0" points="84.4,650.4 84.5,650.5 84.4,650.6 84.1,650.6 83.9,650.4 83.9,650 84.2,650.1 "/>
<path class="st0" points="102.6,571.3 102.4,571.7 102.2,571.7 102.5,571.1 102.6,570.7 102.7,570.2 102.8,570 102.8,570.2 
	102.8,570.6 "/>
<path class="st0" points="82.6,633.2 82.6,633.2 82.5,633.1 82.5,633 82.8,633.1 82.8,633.2 82.7,633.2 "/>
<path class="st0" points="87.3,641.9 87.5,642 87.3,642.2 87.1,642.6 87,642.8 86.3,643.8 86.2,644 86.2,644.2 86.1,644.4 
	86,644.6 85.9,644.9 85.9,645.2 85.9,645.3 86,645.4 86.1,645.5 86.2,645.6 86,645.7 86.2,645.9 86.3,646 86.3,646.1 86.3,646.2 
	86,646.5 85.9,646.7 85.8,646.9 85.8,647.1 85.8,647.3 85.8,647.5 85.5,647.5 85.2,647.4 84.9,647.4 84.4,647.2 84.2,647.2 
	84,647.1 83.6,646.5 83.3,646.2 83,646 82.7,646 82.4,646 82.1,645.9 81.5,645.5 80.9,645.2 80.6,645 80.5,644.9 80.4,644.8 
	80,644.7 79.7,644.5 79.6,644.5 79.3,644.5 79.1,644.5 78.9,644.4 78.6,644.1 78.4,643.7 78.3,643.5 78.4,643.1 78.6,642.7 
	78.8,642.6 79,642.5 79.1,642.4 79.2,642.3 79.5,642.7 79.6,642.8 79.7,642.8 80,642.6 80,642.4 80.3,642.2 80.7,642.2 80.9,642.2 
	81,642.4 81.1,642.5 81.3,642.5 82,643 82.2,643.1 82.4,643.1 82.8,642.9 83.1,642.8 83.8,642.9 84.2,642.8 84.5,642.8 84.9,642.7 
	85.2,642.5 85.3,642.4 85.5,642.4 85.9,642.4 86.3,642.5 86.5,642.4 86.6,642.2 86.8,642.1 87,642.1 87.4,641.8 "/>
<path class="st0" points="77.4,647.3 77.4,647.3 77.3,647.4 77.1,647.3 77.1,647.1 77.1,647.1 77.3,647.2 "/>
<path class="st0" points="72.9,625.4 72.9,625.4 72.9,625.7 72.7,625.5 72.3,625.6 72.1,625.6 72,625.4 72.1,625.3 72.4,625.3 
	72.5,625.3 72.7,625.3 72.8,625.2 72.9,625.4 "/>
<path class="st0" points="67.3,639.1 67.4,639.2 67.2,639.6 67,639.3 67,639.1 67,639 "/>
<path class="st0" points="71.1,633.8 71.1,634 71,634.2 70.9,634.4 70.6,634.9 70.6,635.3 70.7,635.5 70.7,635.8 70.6,636.1 
	70.4,638.2 70.3,638.6 70.2,638.9 70,639 69.7,638.9 69.4,638.7 69.2,638.7 69,638.8 68.9,638.7 68.8,638.6 68.7,639.3 68.5,639.6 
	68.3,639.8 68.1,639.8 67.9,639.7 67.7,639.7 67.6,639.6 67.5,639.4 67.3,639.1 67.1,638.8 67.1,638.5 67.1,637.8 67.2,637.6 
	67.3,637.5 67.3,637.2 67.3,636.9 67.4,636.8 67.5,636.9 67.6,636.9 67.6,636.8 67.6,636.5 67.5,636.3 67.3,636.2 67.3,636 
	67.3,635.8 67.4,635.7 67.4,635.5 67.4,634.9 67.2,634.7 67.1,634.4 67,634.2 66.8,634 66.6,633.8 66.5,633.6 66.5,633.2 
	66.6,632.8 66.7,632.6 66.8,632.6 67,632.8 67.1,632.8 67.4,632.8 67.7,632.7 68.1,632.5 68.4,632.3 68.9,631.7 69.2,631.6 
	69.4,631.4 69.5,631.2 69.6,631.1 69.8,631.3 70,631.3 70.3,631.5 70.4,631.7 70.5,631.9 70.6,632 70.7,632 70.7,632 70.6,632 
	70.5,632.2 70.6,632.3 70.8,632.4 70.9,632.6 "/>
<path class="st0" points="66.8,632.1 66.7,632.1 66.8,632 66.9,631.7 67,631.6 67.1,631.7 67,631.8 66.9,631.9 "/>
<path class="st0" points="15.4,578.1 14.8,578 15,577.8 15.1,577.9 15.5,577.9 15.6,578 15.6,578.4 15.6,578.5 15.4,578.3 "/>
<path class="st0" points="117.4,652.4 117.4,652.4 117.4,652.5 117.3,652.9 117.2,653.1 117.2,653.3 117,653.4 116.7,653.4 
	116.1,653.4 115.5,653.5 114.4,653.7 113.3,653.8 113.1,653.7 113.1,653.5 113.1,653.3 113,653.2 112.6,653.1 112.3,652.9 
	111,652.7 110.7,652.6 110.2,652.6 110,652.6 109.9,652.5 109.8,652.4 109.8,652 109.9,651.6 110,651.5 110.1,651.6 110.2,651.7 
	110.3,651.6 110.3,651.4 110.4,651.2 110.5,651.3 110.6,651.6 110.8,651.7 111,651.7 111.3,651.7 111.4,651.7 111.6,651.5 
	111.8,651.5 111.9,651.7 111.7,651.8 111.7,651.9 111.7,651.9 111.9,652 112.1,652 112.1,652.2 112.1,652.3 112.2,652.4 
	112.3,652.4 112.6,652.4 112.9,652.4 113.2,652.3 113.5,652.2 114.3,652.3 114.6,652.5 115.1,652.5 115.6,652.6 115.9,652.5 
	116.4,652.4 116.5,652.5 116.4,653 116.4,653.1 116.5,653.2 116.6,653.2 116.8,653 117.2,652.9 117.6,652.9 "/>
<path class="st0" points="102.2,643.7 102.5,644 102.3,643.9 102,644.1 101.7,643.8 101.5,643.5 101.5,643.4 101.7,643.1 
	101.9,643.4 102.1,643.4 "/>
<path class="st0" points="108.1,648.8 108.4,649.1 108.3,649.3 108.3,649.4 108,649.3 107.9,649.1 107.9,648.8 108,648.6 
	108.1,648.5 "/>
<path class="st0" points="109.7,643.2 109.6,643.3 109.5,643.3 109.4,643.3 109.4,643.2 109.5,643.2 109.6,643.1 109.7,643.1 
	109.8,643.1 109.9,643.2 "/>
<path class="st0" points="99.9,637.8 100,638 99.7,637.9 99.4,637.7 99.2,637.3 98.8,636.8 98.8,636.7 99,636.6 99.4,636.5 
	99.5,636.6 99.6,636.7 99.6,636.8 99.4,637 99.4,637.1 99.6,637.3 99.6,637.4 99.7,637.7 99.8,637.8 100,637.9 "/>
<path class="st0" points="109.6,640.1 109.9,640.3 110,640.3 110.5,640.6 111.1,640.7 111.2,640.8 111.3,641 111.4,641.2 
	111.4,641.3 111.3,641.4 111.4,641.8 111.6,642.2 111.8,642.4 112.1,642.5 112.4,642.5 112.5,642.6 112.5,643 112.4,643.1 
	112.3,643.1 112.2,643.1 112.1,643 112,643 111.8,643 111.7,642.9 111.4,642.7 111.3,642.6 111.3,642.4 111.2,642.3 111.1,642 
	111,641.9 110.9,641.8 110.9,641.7 110.5,641.7 110.1,641.7 109.8,641.5 109.7,641.1 109.5,641 109.4,640.9 109.3,640.7 109,640.4 
	108.7,640.2 108.4,640 108.1,639.9 108,640 107.8,640 107.8,639.9 108.1,639.7 108.5,639.4 108.8,639.3 109,639.3 109.3,639.6 
	109.5,640 "/>
<path class="st0" points="101.9,642.7 101.5,642.5 101.4,642.6 101.3,642.6 101.2,642.4 101.2,642.3 101.1,642.2 101,642.1 
	100.8,642.3 100.7,642.3 100.7,642.2 100.9,641.8 101,641.7 101.1,641.8 101.2,641.8 101.3,641.6 101.3,641.4 101.3,641.3 
	101.4,641.6 101.4,642 101.6,642.1 101.9,642.5 101.9,642.7 "/>
<path class="st0" points="101.7,641.4 101.7,641.4 101.7,641.6 101.8,641.7 101.9,641.8 101.8,641.8 101.6,641.5 101.5,641.3 
	101.6,641.3 101.7,641.4 "/>
<path class="st0" points="101.7,640 101.8,640.2 101.8,640.8 101.7,640.9 101.6,640.9 101.5,640.9 101.4,640.9 101.3,641 
	101.3,640.7 101.4,640.3 101.5,640.1 "/>
<path class="st0" points="116.1,647.1 116.1,647.1 116.4,646.9 116.6,646.7 116.8,646.8 116.6,646.9 116.2,647.2 116,647.2 
	115.9,647.2 116.1,647.1 "/>
<path class="st0" points="113.9,644.1 114,644.2 114.4,644.3 114.5,644.4 114.4,644.6 114.2,644.6 113.9,644.4 113.8,644.3 
	113.7,644.2 "/>
<path class="st0" points="114.8,635.7 115,635.6 115,635.8 114.9,635.9 114.8,636.1 114.8,636.4 114.6,636.4 114.5,636.3 
	114.5,636.2 114.5,636.1 114.4,636.1 114.3,636.3 114.2,636.4 114,636.4 113.8,636.3 113.8,636.1 113.8,635.9 113.8,635.8 
	114.3,635.8 114.4,636 114.6,635.9 "/>
<path class="st0" points="115.7,634.2 115.4,634.3 115,634 115.3,633.9 115.5,634 115.6,634.1 "/>
<path class="st0" points="120.1,646.8 120.3,646.9 119.9,647.1 119.8,647.2 119.5,647.2 119.3,647.4 119.2,647.4 119.3,647.2 
	119.6,647 120,646.8 "/>
<path class="st0" points="115,648.8 114.8,648.7 114.9,648.6 114.9,648.5 114.9,648.4 114.8,648.3 114.8,648.3 115,648.4 
	115,648.5 "/>
<path class="st0" points="114.9,645 114.6,645 114.6,644.7 114.7,644.6 115,644.7 115,644.8 "/>
<path class="st0" points="115.3,646.6 115.1,646.7 114.9,646.5 114.8,646.2 115.3,645.8 115.4,645.8 115.5,645.9 115.5,646.3 "/>
<path class="st0" points="117.7,647.8 117.8,647.9 117.6,648 117.5,648.2 117.3,648.1 117.3,647.9 117.5,648 117.6,647.9 
	117.6,647.8 "/>
<path class="st0" points="119.2,646.4 119.1,646.2 119.2,646.4 119.4,646.5 119.5,646.5 119.5,646.6 119.5,646.7 119.2,646.7 "/>
<path class="st0" points="120,651.5 120.1,651.8 119.9,651.8 119.8,652 119.7,651.8 119.7,651.6 119.6,651.3 119.8,650.9 
	119.8,650.7 120,650.6 120,651 119.9,651.3 "/>
<path class="st0" points="110,639.1 109.8,638.7 110.3,639 110.2,639.1 "/>
<path class="st0" points="118,639.3 118.1,639.4 117.9,639.5 117.7,639.5 117.1,639.3 117,639.1 117.4,638.8 117.5,638.7 
	117.2,638.7 116.9,639.1 116.4,638.9 116.3,638.8 116.3,638.7 116.5,638.4 116.8,638.4 117,638.3 117.2,638.2 117.2,638 117.7,638 
	117.9,638.2 117.9,638.4 118.3,638.8 118.4,639 118.4,639.2 118.4,639.3 118.3,639.2 118.2,639.2 "/>
<path class="st0" points="114.6,647.5 114.5,647.4 114.6,647.3 114.9,647.5 114.8,647.7 114.8,647.8 "/>
<path class="st0" points="116.8,644.3 117.2,644.3 117.5,644.2 117.6,644.2 117.4,644.4 117.1,644.6 116.6,644.7 116.5,644.7 
	116.5,644.6 "/>
<path class="st0" points="119.3,644 118.9,644.2 118.7,644.2 118.5,644 118.2,644 118.1,644 118.3,643.8 118.6,643.7 
	118.8,643.7 119.1,643.8 119.2,643.8 119.4,643.8 119.4,644 "/>
<path class="st0" points="117,641.1 116.9,641.3 116.9,641.4 116.9,642 116.8,642.1 116.8,642.3 116.8,642.4 116.5,642.6 
	116.2,642.3 116.2,642.2 116.4,642.1 116.5,641.9 116.4,641.7 116.1,641.4 116.1,641.2 116.6,641.1 116.9,641.3 "/>
<path class="st0" points="113.2,633.2 113.1,633.4 113.1,633.6 112.7,633.7 112.3,633.5 112.3,633.4 112.5,633.1 112.6,633 
	112.9,633 113.2,633.2 "/>
<path class="st0" points="112.3,639.5 112.5,639.6 112.5,639.8 112.8,640 112.5,640.1 112.4,640.1 112.5,640 112.5,640 
	112.2,639.8 112.3,639.5 "/>
<path class="st0" points="112.9,646.4 112.9,646.4 113.1,646.7 113,646.8 112.9,646.8 112.8,646.7 112.9,646.4 "/>
<path class="st0" points="112.2,644.9 112.3,645 112.2,645.2 112,645.3 112.1,645.1 112,645 112.1,644.9 112.2,644.9 "/>
<path class="st0" points="110.6,638.8 110.5,638.8 110.6,638.5 110.8,638.4 110.7,638.6 "/>
<path class="st0" points="113.5,644.9 113.5,644.7 113.6,644.8 113.6,645.2 113.5,645.2 113.5,645.1 "/>
<path class="st0" points="113.6,643.3 113.6,643.5 113.7,643.7 113.7,643.8 113.6,644 113.4,643.7 113.2,643.5 113.1,643.3 
	113,643.2 113,643 113.2,642.9 113.3,642.9 113.5,643.2 "/>
<path class="st0" points="114.5,646 114.5,646.2 114.5,646.3 114.3,646.6 114.1,646.6 114,646.5 114.1,646.2 114.3,646.1 "/>
<path class="st0" points="121.7,648.1 121.6,647.9 121.6,647.8 121.7,647.7 121.8,647.7 121.8,647.8 121.8,647.9 121.7,648.1 "/>
<path class="st0" points="122.7,648.5 122.9,648.5 122.9,648.7 122.7,649.3 122.5,649.6 122.6,649.8 122.3,649.9 122,650.3 
	121.8,650.4 121.7,650.4 121.6,650.2 121.7,649.8 121.6,649.6 121.6,649.5 121.8,649.4 121.9,649.2 122.2,649 "/>
<path class="st0" points="112.4,647.6 111.8,647.7 111.9,647.5 111.9,647.4 112.1,647.5 112.2,647.4 112.2,647.3 112.4,647.2 
	112.4,647.6 "/>
<path class="st0" points="112,644.1 112.1,644.2 112,644.5 111.8,644.7 111.8,644.4 111.9,644.1 "/>
<path class="st0" points="112.1,646 112.1,645.8 112.2,645.7 112.3,645.8 112.3,645.9 112.3,646 112.2,646.1 "/>
<path class="st0" points="75.1,575.5 75.2,575.8 75.2,575.9 74.8,575.9 74.6,575.7 74.4,575.7 74.5,575.5 74.6,575.4 "/>
<path class="st0" points="67.5,574.2 67.7,574.3 67.7,574.5 67.6,574.6 67.3,574.6 67.1,574.5 67.1,574.4 67.2,574.3 "/>
<path class="st0" points="80.5,576 80.6,575.5 80.6,575.3 80.8,575.1 80.8,574.8 81.1,574.5 81.3,574.5 81.4,574.7 81.5,574.9 
	81.9,575.1 82,575.2 82,575.3 81.8,575.5 81.7,575.6 81.8,575.8 82.1,576 82.2,576.3 82.1,576.5 81.8,576.2 81.5,576.2 81.3,576.6 
	81.2,576.6 80.7,576.2 80.6,576 "/>
<path class="st0" points="67.1,573.1 67,573.4 67,573.5 67.7,573.5 67.6,573.6 66.9,573.7 66.8,574 66.7,574.1 66.7,573.4 
	67,572.7 67.1,572.7 67,572.9 "/>
<path class="st0" points="40,613.2 39.8,612.9 39.7,612.6 39.7,612.5 40,612.7 40.3,613.1 40.2,613.5 "/>
<path class="st0" points="69.7,625.7 69.8,625.5 69.8,625.3 69.8,624.8 69.9,624.5 70,624.5 70.1,624.7 70.1,624.8 70.2,625.1 
	70.2,625.3 70.1,625.9 70.2,626.1 70.3,626.2 70.3,626.3 70.4,627.8 70.4,627.9 70.1,628.5 70,628.7 70,629.4 69.9,629.6 
	69.8,629.8 69.6,630.4 69.4,630.7 68.9,630.4 68.6,630.3 68.5,630.1 68.4,630 68.5,629.9 68.6,629.7 68.6,629.6 68.3,629.5 
	68.2,629.4 68.2,629.2 68.3,629 68.2,628.8 68,628.8 67.9,628.8 67.9,628.7 68,628.6 68.1,628.4 68.1,628.2 67.9,628.1 67.7,627.9 
	67.6,627.7 67.7,627.5 67.9,627.4 67.8,627.2 67.7,627.2 67.6,627.2 67.7,627.1 67.8,626.9 68,626.4 68.3,626.2 68.8,626.1 
	68.9,626 69,625.8 69.1,625.7 69.3,625.7 69.5,625.8 69.7,625.7 "/>
<path class="st0" points="112.9,516.8 112.6,516.7 112.6,516.3 112.8,516.1 113.2,516 113.7,516.2 113.8,516.3 113.5,516.4 
	113.4,516.6 "/>
<path class="st0" points="104.8,544.7 104.9,544.6 104.8,544.4 104.8,544.3 105,544.5 105.1,544.7 105,544.7 105.2,544.9 
	105.2,545 105,545 104.7,544.7 "/>
<path class="st0" points="104.3,546.3 104.1,546.4 103.9,546.2 104,546.1 104.2,546 104.4,546 104.4,546.2 "/>
<path class="st0" points="132,529.6 132.1,529.8 132.1,530 131.8,530.7 131.6,531.2 131.3,532 131,532.5 130.3,533.5 
	129.3,534.7 129.1,535.1 128.6,535.7 127.8,536.9 127.6,537.2 126.9,538.2 126.6,538.5 126.4,538.8 125.7,539.7 125,540.4 
	124.3,541 124.1,541.3 123.8,541.5 123.5,541.7 123.4,541.8 122.7,542.7 121.7,543.9 121.6,543.9 121.3,544.1 120.9,544.1 
	120.7,544.2 120.1,543.8 120,543.8 119.6,543.9 119.3,544.2 118.7,544.3 118.4,544.4 118.2,544.5 118.2,544.2 118.3,543.8 
	118.4,543.5 118.4,543.3 118.3,543.3 118.1,543.7 118,544.2 117.8,544.4 117.3,544.5 116.8,544.1 116.6,544.1 116.7,544.4 
	116.8,544.7 116.8,544.9 116.5,544.9 116.2,545.1 116,545.4 115.9,545.4 115.7,545 115.4,545.2 115.1,545.4 114.6,545.5 
	114.3,545.8 113.7,546 113.4,546 112.7,546.2 112.5,546.6 112.3,546.7 112,546.6 111.1,546.8 110.2,547 109.8,547 109.4,546.9 
	109,547.2 108.6,547.7 108.2,547.9 108,547.8 108.1,547.6 108.4,547.4 108.6,547.1 108.6,546.8 108.5,546.7 108.3,546.7 
	108.1,546.4 107.9,545.8 107.8,545.8 107.7,546 107.6,546.5 107.5,546.6 107.4,546.7 107.3,546.8 107.2,546.9 106.7,546.9 
	106.6,546.7 106.6,546.6 106.7,546.3 106.6,546.2 106.7,546 106.8,546 106.9,546 107,545.9 107,545.7 106.8,545.7 106.8,545.6 
	107,545.2 107,545.1 106.9,545.1 106.8,545.1 106.1,545 105.2,544.4 105,544.4 104.9,543.9 104.7,544 104.4,544.3 104.2,544.1 
	103.9,544 103.8,543.8 103.8,543.5 103.8,543.1 103.7,542.6 103.6,541.9 103.6,541.4 103.8,541 103.9,540.7 104,540.1 104,539.3 
	103.9,539 103.9,538.8 104.1,538.8 104.1,538.7 104,538.6 103.9,538.4 104,538.3 104.2,538.3 104.2,538.2 104.2,538.1 104,537.7 
	104,537.5 103.8,536.9 103.6,536.3 103.2,535.9 103.3,535.2 103.4,534.5 103.4,534.2 103.3,533.8 102.9,533.4 102.8,532.8 
	102.7,532.1 102.7,531.7 102.8,531.4 102.9,531.1 103.6,530.1 103.6,529.6 104.1,529.6 103.9,529.1 103.8,528.8 103.8,528.5 
	104.5,528.3 104.8,528.5 105.4,528.3 106,527.9 106,527.7 105.9,527.5 105.8,527.1 105.9,527 106.1,527.1 106,526.9 106,526.7 
	106.2,526.8 106.6,526.2 106.6,525.8 107.2,525.6 107.9,524.7 108.2,524.4 108.5,524.2 109.2,523.3 109.5,523.3 109.7,522.7 
	110.3,521.9 110.5,521.8 110.8,521.1 111.5,520.3 112,519.2 112.3,518.8 112.4,518.4 112.7,518.4 113,518.1 113.5,517.9 114,518 
	114.2,518.1 114.4,518.1 114.4,517.7 114.3,517.5 114.4,517.3 114.7,517.1 114.7,516.7 114.6,516.5 114.4,516.2 114.5,515.5 
	114.5,514.8 114.6,513.9 114.3,513.4 113.2,512.6 113,512.6 112.7,512.5 112.4,511.9 112.5,511.4 112.5,511.2 112.4,511.2 
	112.2,511.4 111.8,511.7 111.3,511.5 111.1,511.5 110.4,511.7 109.8,511.4 109.5,511.6 109,511.6 108.4,511.7 108.2,511.9 
	108.1,512 107.6,511.7 107.1,511.1 106.7,511.5 106.5,511.6 106.3,511.2 106.1,511.1 106,511.2 105.9,511.6 105.8,511.9 
	105.8,512.1 105.8,512.8 105.8,513 105.3,512.9 105.3,513.1 105.4,513.2 105.4,513.3 105.2,513.5 104.7,513.5 104.7,513.7 
	104.8,514 104.7,514.2 104.6,514.3 104,514.4 103.7,514.4 103.6,514.5 103.6,514.7 103.7,514.9 103.8,515 103.8,515.1 103.8,515.4 
	103.7,515.4 103.4,515 103.3,515 103.4,515.2 103.6,515.5 103.7,515.8 103.8,516.1 103.8,516.3 103.4,517.1 103,517.6 102.7,518 
	102.5,518.5 102.7,518.7 102.9,519 103,519.6 103.2,520.2 103.6,520.7 103.5,521 103.4,521.2 102.8,521.7 102.1,522.5 101.4,524.5 
	101.2,524.8 100.6,525.1 100.4,525.4 99.9,525.8 99.1,526.1 98.7,526.6 98.5,527.1 98.3,527.1 98.1,526.9 97.9,526.8 97.9,527.1 
	97.9,527.3 97.5,527 97.3,527.3 97.2,527.8 96.6,528.5 96,528.4 95.9,528.5 96.1,528.6 96.1,528.7 96,528.8 95.8,528.8 95.5,528.9 
	95.3,528.9 95.2,529.2 95.1,529.6 94.8,529.8 94.6,529.8 94.5,530 95,530 95,530.2 95,530.4 94.9,530.6 94.3,530.9 94.2,531.1 
	94.1,531.2 93.8,531.2 93.8,531.1 93.8,531 93.4,531 93.3,530.7 93.2,530.8 93.2,531.1 93.3,531.4 94,531 93.9,531.3 93.8,531.4 
	93.9,531.5 94.1,531.6 94.2,531.8 93.9,531.9 93.6,532.4 93.3,532.4 93.1,532.7 92.9,532.7 92.7,532.5 92.4,532.3 92.3,532.6 
	92.3,532.8 92.5,533.4 92.8,533.8 93.1,534 92.9,534.1 92.8,534.4 92.6,535.3 92.5,535.6 92.4,536.2 92.5,536.7 92.6,536.9 
	92.7,537.2 92.3,537.2 91.9,537 92,537.4 91.8,537.9 91.8,538.3 91.9,538.6 91.8,539 91.9,539.1 92,539.4 91.9,539.6 91.9,539.8 
	91.9,540.4 92,541.3 92,541.5 92.2,542.3 92.2,542.6 92.2,543 92.5,543.3 92.8,543.3 93.1,543.3 93.2,543.4 93.3,543.6 93.4,543.9 
	93.6,543.9 94,543.7 94.2,543.6 94.4,544 94.8,544.6 95,544.9 95.4,545 95.8,545.5 95.7,546.1 95.9,546.3 96.4,546.5 96.6,546.8 
	96.7,547.1 96.8,547.3 97,547.9 96.9,548.3 96.7,548.4 96.2,548.8 96,549.1 95.8,549.3 95.3,549.7 95.1,549.8 94.9,550 94.7,550.1 
	94.5,550 93.9,550.4 93.5,550.3 93.3,550.1 93.4,549.3 93.3,549.1 93.2,549 93,549.1 93,549.4 92.6,549.4 92.2,549.2 92.1,549.7 
	91.2,549.3 91,549.4 90.6,549.2 90.4,549.4 90.1,549.3 89.9,549 89.6,549.5 89,549.6 88.4,549.7 88.7,549.9 90,549.9 90.4,550 
	90.9,549.9 91.3,550.3 91.6,550.4 92,550.9 92.2,550.8 92.5,550.8 92.8,550.9 93.7,550.9 94,550.6 94.4,550.7 94.6,550.6 
	94.8,550.4 95,550.4 95.2,550.4 95.4,550.2 95.5,550.1 95.6,550.2 95.8,550.6 95.5,550.8 95.3,550.8 95.2,551.4 95.1,551.7 
	95,551.8 94.5,552.1 94.2,552.4 93.8,552.7 93.6,552.6 93.3,552.9 92.7,553.2 92.4,553.6 91.7,554 91.4,554.3 90.4,554.3 
	89.5,554.2 89.2,554.3 89.5,554.3 89.7,554.4 89.9,554.3 90.5,554.4 90.8,554.5 91.2,555 90.9,555.2 90.4,555.3 90.6,556 
	90.7,556.5 90.5,556.8 90.5,558.1 90.2,558.1 90.1,558.6 90.2,558.9 90.2,559.5 90.3,559.9 90.4,560.3 90.3,560.7 89.9,561.6 
	89.9,562 90,562.2 90.1,562.6 89.9,563.3 89.8,563.9 89.6,564.4 89.2,565 89,565.5 88.6,566.9 88.4,567.2 88.1,567.4 87.8,567.2 
	87.5,567.1 87.2,567.1 86.7,567.3 85.9,567.2 85.1,567.3 84.9,567.4 85,568 84.7,568.1 84.4,568 84.2,568.2 84,568.4 83.6,568.8 
	83.5,569.1 83.5,569.6 83.7,570.1 83.9,570.6 83.4,571.2 83.1,571.2 82.3,571 80.9,571.4 79.7,571.1 79.9,570.8 79.9,570.5 
	80,570.1 80,569.7 80,569.4 79.9,569.1 79.6,568.7 78.9,567.4 78.7,566.9 78.6,566.7 78.7,566.7 79.3,567 79.4,567 79.5,566.9 
	79.3,566.5 79.2,566.3 79.1,566 79.4,565.9 79.6,565.9 79.8,565.6 79.7,565.1 79.4,564.9 79.2,564.8 78.8,564 78.4,563.6 
	77.6,561.9 77.3,560.8 77,560.9 76.9,560.4 76.8,559.9 76.8,559.6 76.4,559.4 76.4,559.2 76.3,558.1 75.9,558 75.6,557.4 
	75.5,556.2 75.2,556 75,556.1 75,555.8 75.1,555.5 75,554.4 75,553.4 74.9,553.1 74.8,552.7 74.9,552.4 75,552 75.3,552 75.6,552.3 
	75.8,553 76,553.1 76.3,552.9 76.5,552.4 76.6,551.6 76.7,550.9 76.5,550.1 76.3,549.4 76.3,549.2 76.7,548.6 76.8,548.1 
	76.9,547.6 77.1,547.4 77.3,547.4 77.6,547.3 77.9,547 78.2,546.6 78.4,546.2 78.5,545.5 78.5,545.1 78.6,544.8 78.7,544.3 
	78.6,543.8 78.3,543 77.9,541.8 77.8,541.2 78,541.1 78.3,541 78.9,541 79,540.9 79.1,540.6 79.2,540.2 79.3,539.9 79.4,539.5 
	79.4,539.1 79.1,538.6 78.6,538 78.3,537.8 77.8,537.3 77.4,536.9 77.6,535.4 77.8,534.3 77.8,534 77.8,533.6 77.3,531.7 
	77.3,531.3 77.4,530.9 77.3,530.3 77.3,529.7 77.4,529.5 77.6,529.2 77.4,528.7 77.4,528.7 77,527.4 77.6,526.1 77.5,525.4 
	77.9,524.9 78.5,523.8 78.9,523.2 79,523.1 79.3,522.8 79.8,522.5 80.4,522.3 80.7,522.3 81.7,522.5 82.5,522.7 82.6,522.5 
	82.8,522.1 83,521.6 83,521 82.9,520.2 82.8,519.7 82.2,519.4 81.6,519 82.4,517.6 82.9,516.6 83.6,515.1 83.8,514.5 84,514.3 
	84.2,512 84.3,511.3 84.4,511 84.4,510.6 84.3,510 84.1,508.6 85.2,508.4 85.5,508.3 85.8,508.1 86.4,507.7 86.7,507.3 86.5,506 
	86.9,505.6 87.8,504.1 88.8,502.6 89.3,502 89.3,501.7 89.3,501.3 89.1,500.6 88.9,500.2 88.5,499.4 88.7,498.8 89,498.7 
	89.4,498.5 89.7,498 89.7,497.9 90.3,495.9 91.4,494.9 91.8,494.3 92.5,494.7 93.5,495.3 93.9,494.4 94,494.1 94.1,493.6 94,492.7 
	94,491.6 94,491.1 94.4,490.9 94.6,490.8 95.7,491.3 96,491.3 96.5,491.4 97.1,491.6 98.3,492.2 98.8,492.4 99.1,492.4 99.3,492.1 
	99.8,491.4 99,490.9 99.5,490.4 99.8,489.9 100,489.3 100.1,488.6 100.1,488.2 99.9,487.9 99.4,487.2 100.5,487.1 100.9,487.1 
	101.1,486.8 101.7,486.8 102.2,487 102.3,486.9 102.4,486.7 102.2,485.9 102.2,485.7 102.4,485.4 102.7,485.2 103.2,485.2 
	103.6,485.2 103.7,485.2 104.3,486.1 104.8,487 105.1,487.4 105.7,488.5 105.9,489.1 106,489.5 106.3,489.5 107.2,489.7 
	107.9,489.9 108.1,490.1 108.6,490.1 109,489.9 109.7,489.6 109.9,489.3 110.1,488.9 110.5,489 110.9,489.3 111.4,489.7 
	111.8,489.9 112.4,490.2 112.7,490.6 113.1,490.7 113.5,490.3 113.7,489.3 113.9,488.9 114.2,488.6 114.5,488.5 114.8,488.4 
	115,488.2 115.3,487.6 115.4,486.9 115.3,485.7 115.4,485.3 115.6,484.6 115.9,482.8 116,482.3 116.2,482 116.4,481.8 116.8,481.3 
	117.4,480.2 117.6,480.1 118,480 118.5,480 119,480.2 119.1,480.2 119.3,480.1 119.7,479.8 120.4,479.1 120.8,478.9 121.2,478.9 
	121.6,479.6 122.2,480.4 122.6,480.8 123.7,481.5 124.7,482 125.2,483.6 124.9,484.2 124.8,484.4 124.3,485 123.8,485.9 
	123.8,486.4 124,486.9 124.2,487.2 124,487.3 123.4,487.7 123,488 122.6,488.2 122.7,488.4 123.4,488.5 123.5,488.6 123.6,488.7 
	123.6,488.9 123.5,489.2 122.7,491 122.7,491.4 122.9,492.4 123.3,493.6 124.4,494.1 125.2,494.5 125.7,495.5 126.5,496.8 
	126.9,497.3 126.9,497.4 126.8,498.3 126.3,499.2 125.8,499.9 125.3,500.8 124.9,501.6 124.5,502.5 124.4,502.8 124.4,503.1 
	124.5,503.4 125.1,504.5 125.3,505.1 125.6,505.7 125.8,506.3 125.9,506.9 126.1,507.5 126.2,507.8 126.4,508.2 126.7,508.8 
	126.8,509.3 127.2,510.9 127.2,511.3 127.2,511.6 127,511.7 126.6,511.7 126.2,511.9 126.2,512 126.5,512.4 126.2,513 126.2,513.9 
	125.9,514.4 125.9,514.5 125.9,514.6 125.9,514.7 126.4,514.8 126.4,514.9 126.4,515.2 126.4,515.4 127,516 126.7,516.3 
	126.6,516.5 126.6,516.7 126.7,517.1 126.9,517.5 127.1,517.8 127.9,518.1 128,518.3 128,518.6 128,518.9 127.6,519.5 127.6,519.7 
	127.8,520.2 128,520.7 128.8,521.2 129.1,521.5 129.2,521.7 129.2,522.1 129.2,522.5 129.1,522.9 128.9,523.4 128.3,524.3 
	127.7,524.7 127.7,524.8 127.9,525.1 128.9,526.3 129.6,526.8 130.5,527.5 131.1,528.1 131.3,528.5 131.5,529 131.8,529.4 "/>
<path class="st0" points="106.2,545.4 106.2,545.6 106.3,545.7 106.3,545.9 106,545.9 105.9,545.7 105.8,545.5 105.7,545.3 
	105.5,545.2 105.6,545 105.7,544.8 105.8,544.7 106.2,544.8 106.3,544.8 106.5,545.1 "/>
<path class="st0" points="104.7,545.8 105,545.8 104.9,546.1 104.6,546.3 104.5,546.3 104.5,546 "/>
<path class="st0" points="103.4,544.2 103.2,543.9 103.1,543.5 103.1,543.4 103.2,543.3 103.3,543.5 103.7,543.9 103.7,544.2 
	103.5,544.2 "/>
<path class="st0" points="103.2,527.7 103.2,527.8 103.2,527.9 103.4,527.9 103.6,527.7 103.8,527.8 103.8,528.1 103.7,528.1 
	103.7,528.1 103.6,528.3 103.6,528.4 103.4,528.5 103.1,528.2 102.9,527.7 103.3,527.7 "/>
<path class="st0" points="105.5,552.8 106.6,552.6 106.7,552.3 106.9,552 107.1,552 107.2,552.1 107.2,552.3 107.2,552.4 
	107.7,552.5 107.9,552.9 108,553.4 107.8,553.4 107.6,553.7 107.5,553.6 107.4,553.5 107.1,554.1 106.8,554.2 106.6,554.1 
	106.6,553.9 106.4,553.3 106.1,553.1 105.7,553.1 "/>
<path class="st0" points="109.1,554.9 108.9,555 108.3,554.6 108.4,554.3 108.6,554.2 109.1,554.4 109.2,554.8 "/>
<path class="st0" points="105.3,555.1 105.5,555.3 105.7,555.1 105.8,555.1 106,555.2 106.2,554.8 106.6,554.7 106.8,554.6 
	107,554.6 107.2,554.7 107.4,554.7 107.6,554.6 108,554.7 108.9,555.4 109,555.6 108.4,555.7 108.3,555.9 108.2,556 108,556 
	107.7,556.3 107.3,556.6 107.2,556.8 106.5,556.8 106.1,556.9 105.8,557.2 105.7,557.8 105.5,558.3 105.3,558.5 105.1,558.5 
	105,558.3 105,558.1 105.5,557.5 105.6,557.3 105.4,557.2 105.2,557 104.8,556.7 104.7,556.5 104.8,556.5 104.9,556.4 105,556.2 
	105.1,556 104.8,555.4 105,555.3 "/>
<path class="st0" points="75.7,574.9 74.5,574.2 74.5,573.6 74.5,573.4 75.1,573.3 75.4,573.6 75.9,573.9 76.2,573.9 76.4,574 
	76.5,574.2 76.5,574.6 76.3,574.7 76,574.7 "/>
<path class="st0" points="73.4,572.8 72.9,572.8 72.4,572.6 71.7,572.2 71.6,572 71.5,571.9 71.3,571.3 71.3,570.5 71.7,570.4 
	72.5,570 72.7,570.1 72.9,570.3 73.1,570.3 73.4,570 73.5,570 73.6,570.3 73.7,570.8 73.9,571.4 73.8,571.7 73.9,572 73.8,572.3 "/>
<path class="st0" points="72.8,573.6 73.1,573.8 73,573.9 72.8,574 72.6,573.9 72.2,573.5 72.2,573.4 72.4,573.5 72.6,573.7 "/>
<path class="st0" points="73.1,568.9 73.2,568.6 73.1,568.3 73.2,568.1 73.4,568.5 73.5,568.7 73.4,568.9 73.3,569.2 73.3,569.3 
	73.1,569.2 "/>
<path class="st0" points="78.8,570.3 78.7,570 78.8,569.8 78.9,569.7 79,569.7 79.1,569.9 79.1,570.1 78.8,570.3 "/>
<path class="st0" points="75.4,569.3 75.8,568.7 75.8,568.6 75.8,568.4 76.2,568.3 76.4,568.5 76.4,568.9 76.4,569.4 76.7,569.5 
	76.8,569.5 76.9,569.1 77,568.9 77.1,568.8 77.1,568.5 77,568.3 76.9,568.1 77.4,567.7 77.9,567.4 78.2,567.4 78.5,567.5 
	78.8,567.6 78.9,567.7 79,567.9 78.8,568.3 78.7,568.5 78.8,569.2 78.8,569.7 78.7,569.8 78.6,569.9 78.3,570 78.1,570.1 
	77.9,570.3 77.8,570.7 78,571 78.3,571.1 78.4,571.6 78.1,571.8 77.4,572 77.3,572.6 77.3,573.1 77.3,573.4 77.2,573.9 76.7,574.1 
	76.4,573.4 76.4,573.1 76.3,572.8 76.3,572.5 76.2,572.1 75.7,572 75.5,572 75.2,572.1 75.1,572.1 74.8,571.5 74.9,570.8 
	74.7,570.5 74.7,570.3 74.7,570.1 74.6,570 74.4,569.9 74.3,569.5 74.5,569.4 75,569.4 75.1,569.4 "/>
<path class="st0" points="78.7,573.1 78.8,573.3 78.7,573.4 78.3,573.3 77.8,573.6 77.6,573.5 77.7,573.3 77.8,573.2 78,573.1 
	78,573 78,572.8 78.1,572.9 78.4,572.9 78.5,573 "/>
<path class="st0" points="74.5,561.9 74.1,561.7 74.3,561.5 74.7,561.4 74.9,561.4 74.6,561.6 74.5,561.7 "/>
<path class="st0" points="73.4,573.9 73.4,573.8 73.6,573.5 73.7,573.2 74,572.8 74.2,572.3 74.3,572.3 74.2,572.8 73.8,574.1 
	73.7,574.3 73.6,574.3 "/>
<path class="st0" points="71.7,573.1 71.9,573.5 71.9,573.6 71.6,573.7 71.5,573.6 71.2,573.6 71.1,572.8 71.1,572.8 71.2,572.9 "/>
<path class="st0" points="85.4,572.9 84.8,572.6 84.9,571.9 85,571.6 86,572.3 86,572.6 85.9,572.9 85.8,573 "/>
<path class="st0" points="138.9,652.4 138.8,652.7 138.9,652.9 139.1,653.2 139.2,653.3 139.3,653.5 139,653.6 138.7,653.6 
	138.5,653.6 138.3,653.6 137.8,654.2 137.5,654.4 137.2,654.5 136.9,654.6 136.7,654.6 136.6,654.7 136.5,654.8 136.5,654.9 
	136.5,655 136.3,655 136.2,654.8 136.1,654.7 135.8,654.7 135.6,654.7 135.1,654.5 134.9,654.4 134.8,654.2 134.5,653.6 
	134.5,653.2 134.8,653.3 135,653.2 135.2,653 135.5,652.9 135.7,652.9 135.9,652.9 136.2,652.8 136.3,652.5 136.3,652.1 
	136.8,652.2 137.3,652.3 137.7,652.3 138.1,652.2 139.4,651.8 139.8,651.6 140,651.5 140.4,651.3 140.8,651.2 140.5,651.4 "/>
<path class="st0" points="83.7,617 83.8,616.8 83.8,616.6 83.6,616.1 83.7,616 83.8,616 83.8,616.3 83.9,616.5 84.1,616.7 
	84.1,617.1 84.1,617.7 84.1,617.8 84.1,617.9 84.1,618.1 83.9,617.9 83.8,617.6 83.6,617 "/>
<path class="st0" points="89.6,623.8 90,623.7 90.4,623.8 90.5,623.9 91.5,624 91.9,624.1 91.7,624.1 90.5,624.1 90,624 
	89.6,623.8 "/>
<path class="st0" points="90.3,623.6 89.9,623.5 89.7,623.4 89.7,623.3 89.8,623.1 90.2,623.1 90.9,623.2 91.1,623.3 91,623.4 
	90.8,623.5 "/>
<path class="st0" points="93.6,625.4 92.9,625.2 92,624.7 91.4,624.5 91.6,624.5 91.9,624.5 93.3,625.2 93.1,625 93.3,624.9 
	93.5,625 93.6,625.2 93.8,625.3 94.2,625.6 94.4,625.8 94.9,626.1 95,626.1 95.3,626.2 95.3,626.3 95.4,626.5 95.5,626.7 95,626.3 
	94.5,625.9 "/>
<path class="st0" points="85,618.1 85,618 85.2,618.2 85.3,618.3 85.4,618.3 85.7,618.6 86,619 86.4,619.3 86.3,619.3 
	86.2,619.3 86.1,619.4 85.9,619.2 85.7,619.1 85.6,618.9 85.4,618.7 85.3,618.5 "/>
<path class="st0" points="92.5,625.3 93,625.4 93.4,625.7 92.3,625.4 92.4,625.4 "/>
<path class="st0" points="85.4,620.2 85.3,620 85.5,620.2 86.2,621 86.2,621.1 86.2,621.1 86.1,621 86.1,621 "/>
<path class="st0" points="86.4,620.7 86.7,620.8 86.9,621.1 86.7,621 86.5,620.8 "/>
<path class="st0" points="90.4,624.7 90.4,624.6 90.9,624.7 91.3,624.7 91.6,624.8 91.8,624.9 91.9,625 91.6,625 91.3,625 
	90.9,625.1 90.6,625 90.4,624.7 "/>
<path class="st0" points="84.8,617.7 84.7,617.6 84.7,617.5 84.8,617.4 85,617.4 85,617.5 85.2,617.7 85.3,617.9 85,617.7 "/>
<path class="st0" points="86.4,620.6 86.1,620.3 86,620.1 86,620 86.5,620.4 "/>
<path class="st0" points="84.3,616.7 84.1,616.5 84.1,616.4 84.3,616.2 84.4,615.9 84.6,616.1 84.8,616.4 84.9,616.5 85.1,616.9 
	84.8,617 84.6,616.8 84.6,616.7 "/>
<path class="st0" d="M22.3,573.1l-0.4,0.3l-0.1,0.1l-0.1,0.5v0.1l-0.1,0.3l-0.1,0.3l-0.2,0.1l-0.2,0.1L21,575h-0.2h-0.2
	l-0.1,0.1v0.1l0.1,0.1l0.2,0.1l0.2,0.1v0.1l-0.1,0.1l-0.7,0.3l-0.2,0.2l-0.1,0.1l0.1,0.2l0.6,0.6l0.1,0.1l0.1,0.3l0.5,0.1l0.2,0.2
	h0.2h0.4l0.2,0.1l0.1-0.1v-0.1l0.3-0.3l0.1-0.1l-0.1-0.2l-0.1-0.1l0.2-0.3l0.2-0.3h0.1l0.2,0.2l0.2,0.2v0.2v0.1l0.2,0.3l0.1,0.1
	l0.3,0.1l0.1,0.1v0.4v0.1h0.3h0.3h0.1l0.1-0.1l0.2-0.1h0.2l0.1,0.2l0.1,0.2l-0.2,0.1h-0.2l-0.1,0.1v0.2l0.1,0.3l0.1,0.2l0.1,0.4
	l0.1,0.5l0.1,0.3v0.4v0.2v0.3l-0.1,0.1v0.3l0.2,0.6l0.1,0.4v0.8l-0.1,0.3l-0.2,0.3l-0.1,0.3l-0.1,0.3l-0.1,0.6l-0.4,0.6l-0.2,0.2
	l-0.2,0.1l0.4,0.5l-0.3,0.2l-0.3,0.1l-0.4-0.1h-0.2l-0.2,0.1l-0.1,0.1h-0.1l-0.1-0.4l-0.1,0.4l-0.2,0.1h-0.4l-0.6,0.1l-0.2,0.1
	l-0.1,0.2l-0.1,0.2l-0.1,0.1l-0.1,0.1l-0.5,0.1l-0.1,0.1l-0.2,0.3l-0.3,0.2l-0.2,0.1l-0.2-0.2l-0.1-0.1l-0.1-0.1h-0.3l0.1,0.1
	l0.1,0.1v0.2v0.2l-0.2,0.1H19l-0.3,0.3l-0.4,0.1l-0.4,0l-1.4,0.4h-0.1l-0.2-0.1H16h-0.2l-0.6,0.2h-0.3l0.4-0.5l0.5-0.3v-0.1h-0.2
	l-0.9,0.2l-0.3,0.2h-0.3l0.1-0.2l0.4-0.3l0.2-0.2l0.1-0.1l0.1-0.2l0.4-0.2l-1.4,0.5l-0.4-0.1l-0.1-0.1l-0.3,0.1l-0.1-0.3l0.4-0.5
	l0.2-0.2l0.3-0.1l0.3-0.2l0.1-0.2l-0.1-0.1h-0.8h-0.4V587l0.1-0.2l0.4-0.3h0.2H14l0.2,0.1l0.2,0.1l0.5-0.1l-0.2-0.2V586l-0.1-0.1
	l0.2-0.2l0.2-0.1l0.4-0.4l0.1-0.1l0.7-0.1l0.8-0.2l0.8-0.3l-0.4-0.2l-0.2-0.2l-0.3,0.4l-0.2,0.2l-0.6,0.1h-0.2l-0.3-0.1h-0.1
	l-0.1,0.1L15,585h-0.4l0.5-0.4l0.6-0.6l0.1-0.2l0.2-0.3l-0.1-0.2l-0.1-0.1l0.5-0.7l0.2-0.1h0.3l0.2-0.1h0.1h0.1l0.2-0.2l-0.3-0.1
	l-0.3-0.1l-0.9,0.1h-0.1l-0.1-0.1l-0.1-0.1l-0.1-0.2l-0.1-0.1h-0.2l-0.2,0.1H15l-0.1-0.1l0.2-0.2l-0.3-0.1h-0.3l-0.2-0.1v-0.2
	l0.1-0.2l-0.1-0.1v-0.2l0.2-0.1h0.2l0.3-0.1l0.4-0.1l-0.4-0.1l-0.2-0.1v-0.2v-0.2l0.4-0.3l0.5-0.1v-0.2v-0.2l-0.5-0.1l-0.5,0.1v-0.4
	l0.1-0.3v-0.2v-0.2l-0.2,0.1v-0.3l-0.1-0.2l-0.3,0.1v-0.3l0.1-0.2l0.2-0.1h0.2H15l0.3-0.2h0.4h0.7l0.5,0.4l0.1-0.1l0.2-0.3h0.1
	l0.7,0.1l0.4,0.2h0.1l-0.1-0.3l-0.2-0.2l0.2-0.3l0.2-0.2l0.2-0.1l0.4-0.1l0.2-0.1l0.1-0.4l0.2-0.3l-0.9,0.2l-0.9-0.3l0.1-0.2
	l0.2-0.1l0.3-0.1v-0.1l0.2-0.1l0.3-0.3l-0.1-0.4L19,573l0.2-0.2l0.1-0.3l0.1-0.2l0.4-0.1l0.4-0.2h0.1h0.4l0.1,0.1v-0.3h0.3l0.1,0.1
	v0.2l0.1,0.1v0.2l-0.1,0.2l-0.1,0.1l0.1,0.1l-0.2,0.3l0.2-0.1l0.3-0.3v-0.2v-0.3l-0.1-0.2v-0.3l0.2-0.2l0.4-0.1l-0.2-0.3H22l0.2,0.1
	l0.3,0.2l0.3,0.2l0.3,0.1l-0.3,0.3l-0.3,0.2L22.3,573.1z M14.7,578.8v0.1l-0.2-0.2l-0.1-0.2l-0.6-0.1l0.2-0.2l0.1,0.1h0.4l0.1,0.1
	L14.7,578.8z"/>
</svg>
