<svg xmlns="http://www.w3.org/2000/svg" xmlns:amcharts="http://amcharts.com/ammap" xmlns:xlink="http://www.w3.org/1999/xlink" version="1.1">
	
  <path d=" M 237.56 378.92 L 237.17 378.82 L 236.88 378.9 L 236.69 379.17 L 236.51 379.28 L 236.35 379.23 L 236.27 379.25 L 236.29 379.31 L 236.34 379.37 L 236.41 379.4 L 236.42 379.43 L 236.39 379.46 L 235.72 379.36 L 235.37 379.24 L 234.98 378.98 L 234.76 378.81 L 234.56 378.67 L 234.43 378.59 L 234.43 378.55 L 234.48 378.5 L 234.49 378.44 L 234.35 378.26 L 234.16 378.05 L 234.05 377.96 L 233.94 377.8 L 233.73 377.55 L 233.43 377.08 L 233.16 376.47 L 233.03 376.16 L 232.87 376 L 232.63 375.62 L 232.44 375.43 L 232.17 375.2 L 231.64 374.67 L 231.33 374.5 L 230.97 374.31 L 230.76 374.16 L 230.58 374 L 230.33 373.84 L 230.07 373.69 L 229.61 373.31 L 229.39 373.14 L 229.33 373.09 L 228.94 372.85 L 228.67 372.63 L 228.48 372.44 L 228.33 372.26 L 227.94 371.92 L 227.62 371.67 L 227.36 371.49 L 227.21 371.36 L 226.95 371.2 L 226.64 371.09 L 226.49 371.08 L 226.33 371.11 L 226.26 371.15 L 226.06 371.24 L 225.87 371.35 L 226.01 371.63 L 226.03 371.79 L 226.05 372.02 L 225.64 372.15 L 225.31 372.3 L 224.94 372.41 L 224.59 372.74 L 224.58 373 L 224.45 373.08 L 224.31 373.12 L 224.12 373 L 223.53 372.69 L 223.28 372.54 L 223.07 372.51 L 222.9 372.56 L 222.78 372.66 L 222.6 372.7 L 222.3 372.6 L 222.29 372.62 L 222.22 372.64 L 221.58 372.56 L 221.51 372.54 L 221.49 372.54 L 221.4 372.54 L 221.01 372.6 L 220.43 372.35 L 220.31 372.36 L 220.31 372.49 L 220.33 372.63 L 220.17 372.78 L 220.14 372.84 L 220.07 372.81 L 219.97 372.7 L 219.92 372.6 L 219.82 372.51 L 219.64 372.41 L 219.59 372.37 L 219.47 372.39 L 219.44 372.41 L 219.43 372.41 L 219.19 372.33 L 218.92 372.13 L 218.66 372.03 L 218.5 372.01 L 218.37 371.92 L 218.24 371.8 L 218.13 371.71 L 218.12 371.7 L 217.99 371.56 L 217.94 371.55 L 217.93 371.54 L 217.77 371.59 L 217.43 371.08 L 217.45 370.68 L 217.39 370.48 L 217.21 370.06 L 217.16 369.86 L 217.14 369.69 L 217.11 369.53 L 217.05 369.4 L 217.11 369.37 L 217.42 369.47 L 217.66 369.5 L 217.68 369.44 L 217.65 369.36 L 217.6 369.3 L 217.32 369.14 L 217.14 369.04 L 217.08 368.97 L 217.01 368.81 L 216.91 368.64 L 216.76 368.45 L 216.36 368.04 L 216.22 367.86 L 216.17 367.63 L 216.16 367.06 L 216.14 366.85 L 216.14 366.59 L 216.17 365.97 L 216.22 365.6 L 216.28 365.39 L 216.33 365.03 L 216.33 364.85 L 216.75 364.68 L 216.71 364.52 L 216.68 364.33 L 216.7 364.25 L 216.52 363.95 L 216.19 363.6 L 216.04 363.48 L 215.92 363.4 L 215.91 363.31 L 215.95 363.28 L 216.01 363.26 L 216.03 363.17 L 215.95 363.07 L 215.59 362.86 L 215.39 362.69 L 214.94 362.24 L 214.35 361.78 L 214.15 361.63 L 214.05 361.48 L 213.99 361.33 L 213.83 361.14 L 213.57 360.91 L 213.22 360.56 L 213.02 360.23 L 212.98 360.03 L 212.95 359.86 L 212.76 359.6 L 212.63 359.26 L 212.48 359.01 L 212.38 358.91 L 212.23 358.79 L 211.96 358.67 L 211.82 358.58 L 211.48 358.46 L 211.12 358.31 L 211.01 358.2 L 210.97 358.13 L 210.94 358.01 L 210.93 357.65 L 210.93 357.3 L 210.98 357.16 L 211.43 356.66 L 211.45 356.5 L 211.32 356.25 L 211.21 356.06 L 211 355.74 L 210.68 355.28 L 210.43 354.96 L 209.93 354.36 L 208.81 353.12 L 207.8 351.8 L 207.99 351.86 L 208.35 351.86 L 208.57 351.74 L 208.7 351.71 L 208.84 351.73 L 209 351.65 L 209.16 351.62 L 209.32 351.73 L 209.54 351.82 L 209.76 351.63 L 209.93 351.41 L 210.23 351.41 L 210.22 351.31 L 210.01 350.82 L 210.04 350.7 L 210.41 350.72 L 210.49 350.62 L 210.49 350.37 L 210.61 350.2 L 210.78 350.18 L 210.87 349.99 L 211.02 350.1 L 211.17 350.3 L 211.2 350.46 L 211.27 350.52 L 211.43 350.59 L 211.64 350.57 L 211.74 350.49 L 211.72 350.39 L 211.63 350.23 L 211.51 350.07 L 211.34 349.95 L 211.13 349.89 L 211.01 349.9 L 210.95 349.82 L 210.88 349.63 L 210.8 349.28 L 210.76 348.96 L 210.77 348.84 L 210.72 348.73 L 210.6 348.55 L 210.42 348.21 L 210.27 347.72 L 210.23 347.35 L 210.37 347.21 L 210.6 347.13 L 210.66 346.94 L 210.64 346.74 L 210.58 346.57 L 210.54 346.42 L 210.59 346.35 L 211.22 346.33 L 211.15 346.01 L 211.16 345.92 L 211.23 345.81 L 211.25 345.7 L 211.17 345.61 L 210.99 345.57 L 210.59 345.56 L 210.46 345.46 L 210.42 345.33 L 210.34 345 L 210.21 344.57 L 210.09 344.24 L 209.99 344.04 L 210.02 343.99 L 210.29 343.9 L 210.36 343.82 L 210.39 343.35 L 210.55 343.26 L 211.12 343.33 L 211.35 343.3 L 211.42 343.3 L 211.67 343.3 L 211.67 343.25 L 211.55 342.8 L 211.59 342.66 L 211.69 342.03 L 211.84 341.76 L 211.98 341.69 L 212.05 341.69 L 211.99 341.48 L 211.9 341.17 L 211.75 340.92 L 211.55 340.61 L 211.15 340.07 L 211.06 339.91 L 210.75 339.69 L 210.61 339.48 L 210.38 339.23 L 210.2 339.07 L 209.99 338.69 L 209.86 338.57 L 209.74 338.51 L 209.49 338.65 L 209.45 338.64 L 209.3 338.02 L 209.14 337.67 L 209.05 337.29 L 209.09 337.13 L 209.06 337 L 208.95 336.75 L 208.83 336.54 L 208.72 336.44 L 208.35 336.22 L 207.94 335.95 L 207.7 335.59 L 207.58 335.52 L 207.33 335.52 L 207.29 335.42 L 207.18 335.12 L 207.12 334.86 L 207.18 334.57 L 207.14 334.38 L 207.11 334.2 L 207.45 333.97 L 207.47 333.89 L 207.44 333.82 L 207.39 333.76 L 207.24 333.66 L 207.08 333.53 L 206.84 333.16 L 206.41 332.57 L 206.09 332.17 L 205.95 331.94 L 205.86 331.66 L 205.79 331.39 L 205.67 331.12 L 204.79 329.66 L 204.68 329.39 L 204.62 329.11 L 204.63 328.88 L 204.72 328.56 L 204.77 328 L 204.65 327.27 L 204.56 326.82 L 204.6 326.72 L 204.75 326.68 L 204.76 326.54 L 204.76 326.46 L 204.86 326.38 L 204.87 326.29 L 204.77 326.14 L 204.52 325.89 L 204.34 325.74 L 204.35 325.82 L 204.25 326.12 L 203 326.02 L 202.25 326.08 L 201.94 325.99 L 201.29 325.6 L 200.94 325.63 L 199.37 325.31 L 199.01 325.38 L 198.76 325.34 L 198.85 325.55 L 198.97 325.75 L 198.88 325.97 L 197.7 326.06 L 197.24 326.45 L 196.78 326.4 L 196.57 326.93 L 196.33 326.97 L 196.57 327.39 L 195.98 327.52 L 195.76 327.72 L 195.57 327.98 L 195.82 328.43 L 195.83 328.63 L 195.89 328.82 L 196.07 328.98 L 196.1 329.18 L 196.08 329.4 L 196.45 329.9 L 196.53 330.05 L 196.61 330.08 L 196.9 330.03 L 196.91 330.2 L 196.75 330.41 L 196.84 330.7 L 197.15 331.11 L 197.57 331.44 L 197.77 331.79 L 198.07 332.14 L 198.69 332.36 L 199 332.54 L 199.2 332.41 L 199.21 332.21 L 199.19 331.94 L 199.3 331.91 L 199.65 332.04 L 199.81 332.28 L 199.83 332.39 L 199.78 332.5 L 200.09 333.27 L 200.27 334.24 L 200.34 334.43 L 200.5 334.85 L 200.95 335.5 L 201.77 337 L 201.9 337.36 L 201.88 337.74 L 201.66 338.27 L 201.55 338.56 L 201.06 338.78 L 200.05 338.3 L 199.2 337.24 L 198.84 336.94 L 197.57 336.05 L 197.37 335.79 L 197.07 335.45 L 196.55 335.78 L 196.12 336.16 L 195.75 336.33 L 195.8 337.55 L 195.93 337.97 L 196.14 338.46 L 196.3 339 L 196.32 339.4 L 196.2 339.94 L 196.57 340.8 L 197.44 342.51 L 197.96 343.34 L 198.09 343.55 L 198.6 344.46 L 199.29 345.29 L 199.81 345.98 L 200 346.46 L 200.25 346.77 L 200.26 346.8 L 200.38 346.78 L 200.54 346.72 L 200.75 346.88 L 201.06 347.03 L 201.39 347.15 L 201.91 347.36 L 202.39 347.48 L 202.53 347.48 L 202.93 347.42 L 203.38 347.4 L 203.71 347.76 L 204.02 347.91 L 204.33 348.14 L 204.42 348.27 L 204.66 349.15 L 204.78 349.44 L 204.93 349.73 L 205.22 350.08 L 205.42 350.27 L 205.37 350.3 L 204.24 350.37 L 203.15 350.41 L 202.15 350.45 L 201.18 350.48 L 200.26 350.52 L 199.67 350.52 L 199.09 350.52 L 198.98 350.48 L 198.95 350.59 L 198.77 350.82 L 198.02 351.06 L 197.7 351.01 L 197.22 350.79 L 196.86 350.47 L 196 349.54 L 196.14 349.54 L 196.67 349.82 L 196.98 349.93 L 196.78 349.72 L 196.13 349.42 L 195.55 349.17 L 195.09 349.23 L 194.66 349.36 L 193.74 349.85 L 193.43 350.22 L 193.33 350.48 L 192.8 350.72 L 192.73 351.24 L 192.76 351.57 L 192.73 351.69 L 192.73 351.88 L 192.51 352.01 L 192.27 352.09 L 191.37 352.68 L 190.56 353.3 L 190.16 353.75 L 189.88 353.75 L 189.76 353.68 L 189.22 353.38 L 188.57 353.06 L 188.64 353.2 L 188.74 353.33 L 188.89 353.42 L 189.08 353.56 L 189.19 353.8 L 189.39 354.04 L 189.67 354.07 L 189.88 354 L 189.96 354.01 L 190.26 354.02 L 190.75 354.12 L 190.94 354.4 L 191.03 354.58 L 191.15 354.7 L 191.26 354.85 L 190.99 354.74 L 190.41 354.56 L 190.39 354.55 L 189.86 354.46 L 189.63 354.34 L 189.34 354.15 L 188.83 353.5 L 188.3 352.97 L 187.8 353.08 L 186.86 352.57 L 186.3 352.07 L 186.02 352.05 L 185.73 351.98 L 185.27 351.94 L 185.2 352.48 L 185.21 352.76 L 185.11 353.02 L 185.15 353.27 L 184.6 353.43 L 184.5 353.58 L 184.43 354.24 L 184.36 354.33 L 183.63 354.14 L 183.3 354.24 L 183.14 354.19 L 182.89 353.94 L 182.99 353.46 L 182.84 353.04 L 182.48 352.65 L 182.38 352.68 L 182.1 352.97 L 181.07 352.55 L 180.86 352.71 L 180.67 352.55 L 180.52 352.4 L 180.03 352.53 L 180.06 352.33 L 180.05 352.04 L 179.79 351.65 L 179.49 351.4 L 179.26 351.23 L 178.9 351.15 L 178.84 351.08 L 178.5 350.65 L 178.45 350.48 L 178.28 350.35 L 178.13 350.26 L 177.94 350.21 L 177.72 350.24 L 177.61 349.9 L 177.65 349.49 L 177.53 349.22 L 177.27 348.89 L 177.05 348.59 L 176.77 348.25 L 176.74 347.96 L 176.82 347.71 L 176.78 347.51 L 176.8 347.25 L 176.93 347.1 L 176.91 346.98 L 176.65 346.77 L 176.45 346.65 L 176.59 346.48 L 176.77 346.46 L 176.93 346.55 L 176.94 346.49 L 176.66 345.86 L 176.29 344.91 L 176.29 344.72 L 176.33 344.6 L 176.75 344.91 L 176.91 344.89 L 177.07 344.68 L 177.13 344.42 L 177.03 344.12 L 176.87 343.73 L 176.66 343.51 L 176.51 343.39 L 175.81 343.47 L 175.5 343.34 L 175.13 343.06 L 174.73 342.32 L 174.6 342.12 L 174.15 341.3 L 174.17 341.19 L 173.97 340.45 L 173.95 340.1 L 173.58 339.45 L 173.43 339.12 L 172.95 338.59 L 172.84 338.34 L 172.79 338.17 L 172.82 337.71 L 172.67 337.73 L 172.43 338.37 L 171.93 338.6 L 171.91 339.13 L 172.04 340.36 L 171.96 340.66 L 171.76 340.82 L 171.22 340.83 L 171.06 340.87 L 170.89 341.1 L 170.5 341.13 L 170.46 341.77 L 170.54 342.42 L 170.6 342.6 L 170.77 342.88 L 171.04 343.06 L 171.41 343.25 L 171.55 343.01 L 171.85 342.9 L 171.62 342.13 L 171.5 341.5 L 171.66 341.34 L 172.04 341.46 L 172.49 342.42 L 172.75 342.92 L 172.51 342.71 L 172.25 342.52 L 172.16 342.62 L 172.05 342.83 L 172.04 343.36 L 172.23 343.75 L 172.27 343.98 L 172.09 343.91 L 171.86 343.71 L 171.69 343.71 L 171.17 343.51 L 171.07 343.52 L 170.96 343.58 L 171.67 344.9 L 172.15 345.72 L 172.73 346.41 L 172.91 346.77 L 173.63 348.12 L 174.29 348.46 L 175.07 348.8 L 175.38 349.18 L 175.88 349.92 L 175.75 350.03 L 176.12 350.4 L 176.32 350.65 L 176.56 350.99 L 176.88 351.46 L 177.35 351.84 L 177.8 352.25 L 178.09 352.46 L 178.27 352.75 L 178.15 352.95 L 177.87 353.11 L 177.95 353.3 L 178.14 353.54 L 178.32 353.52 L 178.36 353.43 L 178.53 353.47 L 178.74 353.62 L 179.43 354.68 L 179.55 354.82 L 179.76 354.96 L 180.01 355.04 L 180.31 355.05 L 180.58 355.16 L 181.88 356.12 L 182.29 356.26 L 182.05 356.24 L 181.79 356.13 L 180.72 355.34 L 180.39 355.19 L 179.85 355.35 L 179.21 355.25 L 179.23 355.41 L 179.29 355.65 L 179.54 356.1 L 179.91 356.54 L 180.26 357.2 L 179.93 356.72 L 179.76 356.58 L 179.39 356.4 L 179.39 356.49 L 179.54 356.79 L 179.65 357.05 L 179.6 357.12 L 179.33 357 L 179.24 356.68 L 178.55 356.14 L 177.81 356.2 L 177.2 356.34 L 177.12 356.47 L 177.19 356.88 L 177.34 357.2 L 177.58 357.61 L 177.9 357.78 L 178.1 357.94 L 177.79 357.9 L 177.55 357.82 L 177.31 357.65 L 176.95 357.41 L 176.49 357.5 L 176.15 357.62 L 175.62 357.72 L 175.35 357.9 L 175 358.4 L 174.98 358.63 L 175.14 359.11 L 174.95 359.71 L 174.77 359.96 L 174.62 359.89 L 174.46 359.86 L 174.54 360.14 L 174.65 360.39 L 175.43 361.82 L 175.65 362.34 L 175.76 362.78 L 175.83 363.34 L 175.81 363.53 L 175.77 363.61 L 175.85 363.87 L 175.98 364.18 L 176.02 364.32 L 176.74 364.78 L 176.89 364.91 L 177 364.99 L 176.71 365.09 L 176.97 365.23 L 177.23 365.32 L 177.39 365.36 L 177.54 365.47 L 177.46 365.54 L 177.34 365.56 L 176.55 365.2 L 176.23 365.15 L 175.89 365.23 L 175.83 365.29 L 175.84 365.43 L 176.12 365.61 L 176.33 365.71 L 176.54 365.7 L 176.88 365.81 L 177.13 365.64 L 177.48 365.76 L 177.68 365.79 L 177.54 365.91 L 177.26 365.81 L 177.14 365.99 L 176.8 365.98 L 176.48 365.91 L 176.2 365.97 L 176.11 366.04 L 175.95 366.17 L 175.7 366.55 L 175.36 367.26 L 175.3 367.39 L 174.54 367.79 L 174.43 368.03 L 174.4 368.23 L 174.46 368.48 L 174.63 368.76 L 175.8 370.31 L 175.99 370.44 L 175.96 370.53 L 175.97 370.63 L 176.1 371.05 L 176.05 371.4 L 175.72 371.78 L 175.3 372.02 L 174.97 372.67 L 175.14 373.02 L 175.23 373.17 L 175.4 373.33 L 175.79 373.44 L 176.05 373.36 L 176.08 373.45 L 175.71 373.68 L 175.64 373.96 L 175.46 374.11 L 174.67 374.01 L 174.23 374.06 L 173.79 374 L 173.49 374.07 L 173.24 373.9 L 173.03 373.74 L 172.69 373.41 L 172.47 373.13 L 172.21 373.07 L 171.92 373.27 L 171.68 373.25 L 171.41 373.28 L 171.52 373.46 L 171.63 373.58 L 172.02 373.92 L 172.73 374.47 L 173.22 374.8 L 174.34 376.08 L 174.79 376.4 L 175.09 376.51 L 175.02 376.57 L 174.37 376.71 L 174.22 376.59 L 174.05 376.52 L 174.1 376.73 L 174.19 376.91 L 173.89 376.73 L 173.24 376.82 L 173.12 377.24 L 172.77 377.07 L 171.88 376.52 L 171.34 376.42 L 171 376.58 L 171 376.75 L 170.86 376.97 L 170.66 377.06 L 170.28 377.08 L 169.7 377.49 L 169.6 377.8 L 169.78 378.1 L 169.92 378.22 L 170.1 378.36 L 170.34 378.34 L 170.41 378.27 L 170.65 378.25 L 170.73 378.28 L 170.86 378.29 L 171.09 378.41 L 170.84 378.49 L 170.66 378.5 L 170.57 378.47 L 170.55 378.55 L 170.72 378.67 L 170.83 378.72 L 170.99 378.73 L 171.31 378.85 L 171.34 378.99 L 171.2 379.13 L 171.02 379.2 L 171.07 379.36 L 171.69 379.5 L 172.04 379.77 L 172.3 379.92 L 172.48 379.94 L 172.64 379.78 L 172.96 379.76 L 173.87 379.91 L 174.09 380.02 L 174.15 379.98 L 174.28 379.98 L 174.47 380.05 L 174.52 380.01 L 174.62 379.99 L 174.99 380.19 L 175.21 380.22 L 175.36 380.15 L 175.45 380.1 L 175.61 380.15 L 175.67 380.37 L 175.78 380.43 L 175.93 380.36 L 176.12 380.33 L 176.28 380.36 L 176.48 380.47 L 176.56 380.65 L 176.55 380.76 L 176.78 380.96 L 176.96 381.01 L 177.13 381.02 L 177.69 380.82 L 178.34 381.04 L 178.18 381.03 L 177.91 380.96 L 177.7 380.95 L 177.59 381 L 177.62 381.13 L 177.7 381.32 L 177.89 381.42 L 178.04 381.44 L 178.34 381.65 L 178.53 382.01 L 178.68 382.18 L 178.88 382.33 L 179.45 382.66 L 180.13 383.11 L 181.23 383.48 L 181.42 383.53 L 181.55 383.51 L 181.75 383.52 L 181.92 383.69 L 182.04 383.83 L 182.82 384.61 L 183.2 384.94 L 183.32 385.02 L 183.42 385.11 L 183.21 385.05 L 183.04 385.07 L 183.21 385.23 L 183.33 385.3 L 184.2 385.63 L 184.53 385.8 L 184.84 386.02 L 185.75 386.8 L 185.94 386.89 L 186.13 387.02 L 185.87 386.91 L 185.65 386.8 L 184.96 386.22 L 184.69 386.05 L 184.3 385.87 L 183.88 385.7 L 184.25 386.24 L 184.65 386.75 L 185.82 388.11 L 185.81 388.05 L 185.74 387.93 L 185.72 387.82 L 186.04 388 L 185.95 388.1 L 186.09 388.39 L 187.29 389.84 L 188.2 391.05 L 188.28 391.41 L 188.09 391.54 L 188.05 391.56 L 187.92 391.75 L 187.64 391.86 L 187.4 391.89 L 186.75 391.75 L 186.21 391.72 L 186.13 391.78 L 186.14 391.98 L 185.34 391.88 L 185.01 391.76 L 184.86 391.76 L 184.69 391.91 L 184.45 391.89 L 184.34 392.02 L 183.98 392.22 L 183.64 392.28 L 182.48 392.23 L 182.01 392.16 L 181.37 392.18 L 180.91 392.07 L 180.67 392.27 L 180.41 392.29 L 180.07 392.42 L 179.81 392.43 L 179.37 392.53 L 179.2 392.66 L 178.77 392.61 L 178.28 392.39 L 178 392.31 L 177.89 392.37 L 177.62 392.3 L 177.53 392.49 L 177.32 392.57 L 177.28 392.78 L 177.21 392.94 L 177.27 393.05 L 177.44 393.15 L 177.6 393.29 L 177.54 393.43 L 177.46 393.48 L 177.41 393.64 L 177.26 393.73 L 176.88 393.74 L 176.89 394.03 L 176.84 394.11 L 176.82 394.24 L 177.09 394.6 L 177.24 394.75 L 177.5 394.89 L 177.71 394.99 L 177.97 395.09 L 178.2 395.1 L 178.26 395.18 L 178.38 395.46 L 178.56 395.63 L 178.65 395.64 L 178.79 395.45 L 178.91 395.55 L 178.99 395.64 L 179.23 395.87 L 179.38 395.94 L 179.51 395.99 L 179.59 396.13 L 179.58 396.2 L 179.7 396.32 L 179.83 396.29 L 179.93 396.31 L 179.96 396.49 L 180.05 396.77 L 180.47 397.15 L 180.56 397.19 L 180.64 397.13 L 180.76 397.42 L 180.92 397.58 L 181.14 397.71 L 181.3 397.7 L 181.33 397.83 L 181.57 398.04 L 182.37 398.66 L 182.8 398.95 L 182.99 399.1 L 183.14 399.23 L 183.4 399.49 L 183.79 399.87 L 183.97 400.12 L 184.02 400.23 L 184.73 401.04 L 184.9 401.22 L 185.03 401.27 L 185.14 401.34 L 185.61 402.04 L 186.07 402.69 L 186.2 402.97 L 186.18 403.07 L 186.23 403.2 L 186.38 403.31 L 186.48 403.38 L 186.72 403.69 L 187.06 404.02 L 187.25 404.26 L 187.38 404.37 L 187.55 404.51 L 187.7 404.54 L 187.8 404.55 L 187.92 404.49 L 188.03 404.39 L 187.87 404.18 L 187.64 403.76 L 187.65 403.63 L 187.74 403.58 L 187.71 403.79 L 187.84 404.01 L 188.12 404.22 L 188.19 404.35 L 188.2 404.47 L 188.1 404.52 L 188.06 404.6 L 188.41 404.83 L 188.62 405.03 L 188.68 405.04 L 188.77 404.98 L 188.91 404.81 L 188.99 404.8 L 189.07 404.76 L 189.25 404.82 L 189.49 404.92 L 189.12 404.93 L 189.57 405.22 L 189.86 405.45 L 190.28 405.93 L 190.57 406.1 L 190.94 406.37 L 191.23 406.66 L 191.61 406.98 L 192.06 407.54 L 192.27 407.82 L 192.4 407.84 L 192.39 407.69 L 192.55 407.66 L 192.65 407.53 L 192.87 407.54 L 193.44 407.49 L 193.89 407.57 L 194.05 407.54 L 194.18 407.13 L 194.28 407.08 L 194.56 406.96 L 194.88 406.92 L 194.91 406.87 L 194.86 406.73 L 194.94 406.79 L 195.02 406.9 L 196.15 407.26 L 196.58 407.48 L 196.51 407.31 L 196.66 407.27 L 196.63 407.31 L 196.64 407.43 L 196.79 407.68 L 197.03 407.85 L 197.3 407.91 L 197.39 407.96 L 197.46 408.04 L 197.74 408.22 L 198.03 408.38 L 198.55 408.63 L 198.68 408.62 L 199.12 408.75 L 199.53 408.82 L 199.61 408.78 L 199.66 408.69 L 199.52 408.53 L 199.55 408.51 L 199.65 408.55 L 199.67 408.54 L 199.5 408.34 L 199.34 408.05 L 199.31 407.93 L 199.49 407.72 L 199.87 407.64 L 199.85 407.35 L 199.79 407.2 L 199.86 407.14 L 200.58 406.92 L 200.99 406.88 L 201.28 406.91 L 201.43 406.77 L 201.59 406.73 L 202 406.69 L 202.23 406.72 L 202.33 406.62 L 202.32 406.49 L 202.48 406.4 L 202.72 406.38 L 203.07 406.5 L 203.11 406.41 L 203 406.04 L 202.58 405.43 L 202.48 405.08 L 202.57 404.65 L 203.14 404.52 L 203.3 404.47 L 203.34 404.43 L 203.34 404.34 L 203.01 404.21 L 202.89 404.08 L 202.81 403.9 L 202.75 403.83 L 202.6 403.6 L 202.3 403.26 L 202.33 403.13 L 202.12 402.88 L 202.08 402.6 L 202.25 402.2 L 202.29 401.91 L 202.25 401.76 L 202.03 401.64 L 201.59 401.55 L 201.26 401.41 L 200.94 401.23 L 199.94 400.5 L 199.71 400.28 L 199.29 399.43 L 199.15 399.09 L 199.12 398.85 L 198.96 398.32 L 198.64 397.6 L 198.67 397.57 L 198.75 397.58 L 198.8 397.53 L 198.89 397.36 L 198.86 397.27 L 198.52 397.11 L 198.35 397.09 L 198.35 396.9 L 198.3 396.45 L 198.49 396.33 L 198.84 396 L 199.46 395.65 L 199.48 395.56 L 199.41 395.17 L 199.83 394.28 L 199.84 394.02 L 199.81 393.79 L 199.47 393.46 L 199.39 393.4 L 199.25 393.35 L 199.14 393.29 L 198.95 393.06 L 199.03 393.04 L 199.1 392.95 L 198.94 392.82 L 198.81 392.77 L 198.61 392.62 L 198.52 392.55 L 198.04 392.27 L 197.38 391.67 L 197.21 391.47 L 197 391.03 L 196.89 390.72 L 197.12 389.91 L 197.12 389.75 L 197.09 389.62 L 197.25 389.5 L 197.31 389.52 L 197.42 389.56 L 197.64 389.7 L 197.8 389.75 L 198.11 389.77 L 198.19 389.78 L 198.7 389.88 L 198.87 389.89 L 198.98 389.86 L 198.93 389.8 L 198.95 389.78 L 199.04 389.8 L 199.04 389.75 L 199.07 389.7 L 199.18 389.69 L 199.28 389.62 L 199.37 389.72 L 199.48 389.81 L 199.6 389.85 L 199.72 389.82 L 199.94 389.8 L 200.36 390.08 L 200.92 390.13 L 201.33 390.3 L 201.69 390.24 L 201.9 390.29 L 202.06 390.07 L 202.3 389.95 L 202.36 389.85 L 202.36 389.67 L 202.24 389.48 L 202.2 389.37 L 202.3 389.17 L 202.32 388.53 L 202.36 388.41 L 202.48 388.29 L 202.43 388.23 L 202.43 388.2 L 202.45 388.18 L 202.51 388.2 L 202.53 388.23 L 202.59 388.17 L 202.91 388.02 L 203.19 387.76 L 203.23 387.63 L 203.08 387.01 L 203.03 386.39 L 203.21 386.14 L 203.53 386.14 L 204.17 386.3 L 204.34 386.28 L 205.59 386.75 L 206.32 386.88 L 206.72 387.03 L 207.04 387.27 L 207.93 388.12 L 208.47 388.45 L 208.97 388.85 L 209.13 389.01 L 209.27 389.2 L 209.49 389.45 L 209.64 389.47 L 209.73 389.44 L 209.88 389.48 L 210.01 389.56 L 210.18 389.69 L 210.33 389.78 L 210.7 389.91 L 211.54 390.36 L 211.74 390.55 L 211.7 390.59 L 211.69 390.67 L 211.81 390.72 L 211.89 390.7 L 211.94 390.63 L 212 390.6 L 212.47 390.7 L 212.87 390.85 L 213.6 391.31 L 214.35 391.58 L 214.85 391.86 L 216.29 392.57 L 216.78 392.66 L 217.3 392.87 L 217.4 392.95 L 217.53 392.99 L 217.62 392.89 L 217.7 392.84 L 217.91 392.84 L 218.33 392.9 L 218.47 392.82 L 218.62 392.85 L 219.05 393.07 L 219.9 393.63 L 220.02 393.76 L 220.11 393.79 L 220.08 393.71 L 220.17 393.72 L 220.46 393.7 L 220.76 393.79 L 220.88 393.85 L 220.95 394.18 L 221.02 394.17 L 221.08 394.07 L 221.25 394.06 L 221.31 394.01 L 221.51 393.92 L 221.71 393.99 L 221.98 394.14 L 222.22 394.33 L 222.48 394.53 L 222.52 394.69 L 222.61 394.8 L 222.7 394.85 L 223.61 395.15 L 223.81 395.16 L 224.13 395.12 L 224.43 395.23 L 224.79 395.48 L 225.43 396 L 226.25 396.56 L 226.76 397.01 L 227.05 397.25 L 227.38 397.4 L 227.72 397.8 L 227.55 397.87 L 227.44 397.95 L 227.45 398.04 L 227.49 398.18 L 227.79 398.45 L 228.01 398.85 L 227.89 398.96 L 227.97 399.15 L 228.25 399.45 L 228.56 399.63 L 229.09 399.54 L 229.03 399.37 L 228.95 399.22 L 228.86 398.85 L 228.97 398.46 L 228.86 398.27 L 228.4 397.81 L 228.32 397.61 L 228.37 397.39 L 228.6 397.24 L 228.88 397.25 L 228.85 397.06 L 228.49 396.78 L 227.99 396.25 L 227.6 396.06 L 227.12 395.88 L 226.63 395.8 L 226.29 395.58 L 226.07 395.33 L 225.75 394.68 L 225.59 394.22 L 225.53 393.9 L 225.59 393.75 L 225.85 393.74 L 225.95 393.77 L 226.1 393.87 L 226.19 393.96 L 226.54 394.06 L 226.73 394.1 L 227.44 394.09 L 228.48 394.81 L 228.88 394.96 L 229.15 395 L 229.07 394.81 L 228.95 394.62 L 228.82 394.34 L 228.55 394.08 L 228.03 393.78 L 227.15 393.4 L 226.84 393.22 L 225.66 392.9 L 225.05 392.63 L 224.59 392.47 L 223.32 392.2 L 222 391.85 L 221.65 391.7 L 221.45 391.44 L 221.48 391.22 L 221.56 391.05 L 221.51 390.91 L 221.29 390.72 L 221.05 390.67 L 220.87 390.67 L 219.98 390.86 L 219.54 390.86 L 218.78 390.65 L 217.83 390.26 L 216.66 389.71 L 215.98 389.3 L 215.48 388.92 L 214.56 388.12 L 213.92 387.62 L 213.3 387.19 L 213.12 387.1 L 212.59 386.96 L 211.4 386.44 L 210.87 386.3 L 210.21 385.99 L 209.85 385.78 L 209.23 385.25 L 208.47 384.49 L 208.28 384.19 L 208.34 384.17 L 208.54 384.25 L 208.57 384.11 L 208.5 383.95 L 208.39 383.76 L 208 383.6 L 207.43 383.17 L 207.25 383.09 L 207 382.73 L 206.87 382.51 L 206.9 382.37 L 207.01 382.18 L 207.09 382.18 L 207.09 382.42 L 207.22 382.42 L 207.33 382.29 L 207.48 382.13 L 207.58 381.91 L 207.74 381.8 L 207.76 381.61 L 207.71 381.47 L 207.74 381.39 L 208.33 381.5 L 208.35 381.31 L 208.48 381.29 L 209.07 381.65 L 209.05 381.78 L 209.03 381.94 L 208.97 382.01 L 208.94 382.12 L 209.66 382.79 L 209.83 382.97 L 209.98 383.12 L 210.44 383.41 L 210.99 383.79 L 211.08 383.81 L 211.18 383.77 L 211.11 383.51 L 211.03 383.31 L 210.92 382.83 L 210.7 382.49 L 210.65 382.33 L 210.77 382.3 L 211.16 382.38 L 211.47 382.57 L 212.17 382.9 L 212.51 383.19 L 212.81 383.61 L 213.08 383.9 L 213.45 384.16 L 214.44 384.67 L 214.75 384.79 L 215.03 384.92 L 214.82 384.9 L 214.67 384.92 L 214.62 384.98 L 214.53 384.98 L 214.46 385.04 L 214.76 385.25 L 215.87 385.86 L 216.35 386.08 L 216.8 386.23 L 217.18 386.41 L 217.29 386.53 L 217.37 386.63 L 217.54 386.75 L 217.68 386.77 L 217.82 386.75 L 218.01 386.65 L 218.19 386.59 L 218.72 386.75 L 219.39 386.86 L 220.16 387.27 L 220.71 387.46 L 221.38 387.8 L 221.52 387.85 L 221.57 387.78 L 221.55 387.73 L 221.48 387.66 L 221.36 387.58 L 220.65 387.23 L 220.24 386.99 L 220.13 386.9 L 219.91 386.64 L 219.82 386.59 L 219.44 386.51 L 218.85 386.21 L 218.24 385.92 L 218.12 385.83 L 217.74 385.6 L 217.35 385.39 L 217.06 385.27 L 216.79 385.11 L 216.44 384.9 L 216.07 384.55 L 215.73 384.23 L 215.58 384.11 L 215.45 384.08 L 214.84 383.74 L 214.41 383.55 L 214.21 383.3 L 213.92 382.89 L 213.58 382.42 L 213.59 382.35 L 213.68 382.3 L 213.82 382.29 L 213.98 382.33 L 214.46 382.62 L 214.69 382.73 L 214.84 382.76 L 214.86 382.61 L 214.78 382.31 L 214.8 382.14 L 215.29 382.14 L 215.34 381.89 L 215.93 382.13 L 216.12 382.16 L 216.17 382.1 L 216.3 382.11 L 216.62 382.16 L 216.71 382.18 L 216.78 382.17 L 216.88 382.03 L 216.95 382.04 L 217.34 382.23 L 217.45 382.22 L 217.5 382.11 L 217.52 382.01 L 217.82 382.04 L 217.93 381.99 L 218.05 381.97 L 218.2 381.99 L 218.36 382.03 L 218.51 382.05 L 218.83 382.04 L 219.09 382.16 L 219.25 382.28 L 219.32 382.36 L 219.4 382.45 L 219.55 382.52 L 219.77 382.55 L 219.88 382.52 L 219.79 382.43 L 219.78 382.39 L 219.83 382.39 L 219.88 382.4 L 219.89 382.35 L 219.82 382.22 L 219.4 381.78 L 219.49 381.73 L 219.44 381.66 L 219.4 381.61 L 219.59 381.67 L 219.76 381.65 L 219.9 381.61 L 219.88 381.57 L 219.83 381.5 L 219.76 381.46 L 219.68 381.42 L 219.59 381.37 L 219.47 381.35 L 219.03 381.23 L 218.73 381.08 L 218.6 380.9 L 218.56 380.79 L 218.59 380.75 L 218.55 380.71 L 218.3 380.65 L 218.14 380.54 L 218.08 380.38 L 217.74 380.08 L 217.49 379.9 L 217.53 379.81 L 217.45 379.69 L 217.4 379.62 L 217.44 379.62 L 217.54 379.52 L 217.54 379.45 L 217.52 379.37 L 217.54 379.34 L 217.71 379.41 L 217.82 379.41 L 217.91 379.34 L 217.94 379.25 L 218.01 379.18 L 218.03 379.13 L 218.04 379.06 L 218.02 378.85 L 218.14 378.79 L 218.37 378.82 L 218.6 378.81 L 218.72 378.74 L 219.17 378.75 L 219.29 378.78 L 219.39 378.82 L 219.62 378.97 L 219.88 379.17 L 220.1 379.25 L 220.35 379.35 L 220.51 379.42 L 220.83 379.66 L 221.02 379.77 L 221.05 379.76 L 221.06 379.72 L 221.06 379.69 L 221.11 379.71 L 221.16 379.79 L 221.3 379.96 L 221.41 380.14 L 221.58 380.3 L 221.62 380.36 L 221.63 380.41 L 221.67 380.45 L 221.74 380.49 L 221.96 380.59 L 222.22 380.74 L 222.46 380.84 L 222.65 380.9 L 222.74 380.9 L 222.99 381.02 L 223.34 381.08 L 223.45 381.11 L 223.55 381.16 L 223.65 381.22 L 223.71 381.29 L 223.69 381.32 L 223.7 381.43 L 223.77 381.54 L 223.75 381.58 L 223.71 381.59 L 223.7 381.62 L 223.74 381.67 L 223.82 381.71 L 223.91 381.75 L 224.05 381.78 L 224.21 381.83 L 224.24 381.88 L 224.26 381.93 L 224.14 381.97 L 224.05 381.99 L 224.02 382.02 L 224.1 382.11 L 224.46 382.18 L 224.66 382.25 L 224.82 382.37 L 225.07 382.42 L 225.4 382.42 L 225.7 382.52 L 225.98 382.72 L 226.13 382.64 L 226.15 382.3 L 226.35 382.19 L 226.72 382.31 L 226.95 382.41 L 227.05 382.5 L 227.02 382.55 L 226.86 382.55 L 226.79 382.62 L 226.8 382.77 L 226.9 382.91 L 227.08 383.06 L 227.26 383.15 L 227.42 383.19 L 227.54 383.26 L 227.63 383.36 L 227.68 383.39 L 227.65 383.44 L 227.63 383.52 L 227.68 383.64 L 227.82 383.84 L 227.72 384.01 L 227.65 384.05 L 227.69 384.15 L 227.86 384.44 L 228.03 384.65 L 228.14 384.75 L 228.22 384.83 L 228.38 384.93 L 228.57 385.08 L 228.79 385.29 L 229.01 385.44 L 229.39 385.57 L 229.59 385.65 L 229.79 385.78 L 229.95 385.89 L 230.28 386.03 L 230.36 386.14 L 230.41 386.26 L 230.4 386.32 L 230.42 386.48 L 230.39 386.57 L 230.43 386.85 L 230.18 386.89 L 230.14 386.92 L 230.1 387 L 230.15 387.13 L 230.28 387.23 L 230.36 387.33 L 230.47 387.54 L 230.7 387.74 L 230.87 387.83 L 230.93 387.88 L 231 387.98 L 231.03 388.2 L 231.05 388.27 L 230.94 388.33 L 231.5 388.66 L 231.77 388.78 L 232.03 388.87 L 232.29 388.93 L 232.42 389 L 232.86 389.36 L 233.04 389.5 L 233.15 389.53 L 233.21 389.57 L 233.26 389.62 L 233.38 389.9 L 233.83 390.49 L 233.85 390.54 L 233.75 390.55 L 233.63 390.58 L 233.62 390.63 L 233.83 390.95 L 233.7 391.07 L 233.56 391.14 L 233.39 391.15 L 233.05 391.11 L 232.95 391.11 L 232.91 391.17 L 232.68 391.22 L 232.62 391.29 L 232.68 391.69 L 232.53 391.84 L 232.49 391.92 L 232.23 391.86 L 232.13 391.87 L 232.07 391.98 L 231.78 392.03 L 231.71 392.05 L 231.5 392.1 L 231.63 392.27 L 231.8 392.39 L 231.99 392.52 L 232.06 392.6 L 232.12 392.74 L 232.17 392.91 L 232.11 392.99 L 232.03 393.06 L 232.07 393.18 L 232.15 393.32 L 232.18 393.42 L 232.23 393.53 L 232.36 393.75 L 232.42 393.83 L 232.4 393.92 L 232.3 393.97 L 232.18 393.99 L 232.14 394.03 L 232.16 394.11 L 232.13 394.18 L 232.11 394.21 L 232.17 394.28 L 232.34 394.4 L 232.49 394.5 L 232.57 394.59 L 232.56 394.62 L 232.46 394.62 L 232.46 394.65 L 232.54 394.75 L 232.58 394.84 L 232.59 394.89 L 232.57 394.96 L 232.43 394.96 L 232.24 394.89 L 232.15 394.87 L 232.12 394.88 L 232.41 395.01 L 232.75 395.2 L 233.36 395.65 L 233.77 395.77 L 234.15 395.98 L 234.5 396.13 L 234.6 396.19 L 234.76 396.24 L 234.94 396.14 L 235.14 396.14 L 235.19 396.12 L 235.28 396.12 L 235.42 396.22 L 235.54 396.34 L 235.52 396.4 L 235.48 396.44 L 235.07 396.36 L 234.91 396.41 L 235 396.53 L 235.14 396.67 L 235.36 396.71 L 235.78 396.95 L 236.18 397.25 L 236.49 397.49 L 236.68 397.56 L 236.82 397.47 L 236.77 397.36 L 236.65 397.22 L 236.72 397.25 L 236.9 397.38 L 237.2 397.54 L 237.33 397.5 L 237.43 397.44 L 237.54 397.42 L 237.66 397.38 L 237.84 397.25 L 238.38 397.31 L 238.52 397.29 L 238.58 397.21 L 238.54 397.09 L 238.98 397.25 L 239.37 397.33 L 239.47 397.38 L 239.6 397.43 L 239.82 397.48 L 239.9 397.44 L 239.99 397.46 L 240.1 397.46 L 240.23 397.49 L 240.36 397.57 L 240.38 397.65 L 240.37 397.71 L 240.09 397.74 L 240.04 397.8 L 240.15 397.89 L 240.25 397.99 L 240.11 397.98 L 240.01 397.97 L 239.74 397.85 L 239.36 397.74 L 238.71 397.65 L 237.99 397.44 L 237.76 397.45 L 237.74 397.58 L 237.78 397.81 L 237.62 397.86 L 237.38 397.79 L 237.32 397.82 L 237.48 398.19 L 237.41 398.45 L 237.43 398.51 L 237.52 398.59 L 237.68 398.63 L 237.92 398.72 L 238.18 398.93 L 238.37 398.97 L 238.81 399.14 L 239.27 399.43 L 239.43 399.58 L 239.45 399.83 L 239.67 400.07 L 240.32 400.47 L 240.8 400.69 L 240.75 400.54 L 240.6 400.37 L 240.44 400.17 L 240.49 400.1 L 240.58 400.06 L 240.78 400.18 L 240.94 400.3 L 241.09 400.32 L 241.65 400.65 L 241.76 400.76 L 241.99 401.02 L 242.14 401.09 L 242.29 401.13 L 242.07 400.89 L 241.88 400.45 L 242.04 400.4 L 242.15 400.4 L 242.41 400.58 L 242.94 400.86 L 243.14 400.93 L 243.28 400.99 L 243.37 400.98 L 243.12 400.8 L 242.83 400.62 L 242.65 400.36 L 242.49 400.2 L 242.09 399.89 L 241.35 399.37 L 241.03 399.18 L 240.69 398.89 L 240.7 398.79 L 240.92 398.88 L 241.09 398.89 L 241.28 398.95 L 241.48 399.02 L 241.63 399.17 L 241.78 399.22 L 241.83 399.18 L 241.85 399.11 L 242.13 398.93 L 242.09 398.88 L 241.97 398.82 L 241.81 398.74 L 241.72 398.67 L 241.61 398.64 L 241.47 398.66 L 241.32 398.63 L 241.06 398.44 L 240.92 398.28 L 240.71 398.17 L 240.59 398.13 L 240.56 398.08 L 240.61 398.05 L 240.7 397.93 L 241.01 397.81 L 241.06 397.71 L 241.13 397.7 L 241.24 397.74 L 241.72 397.97 L 242.15 398.16 L 242.49 398.35 L 242.57 398.33 L 242.57 398.26 L 242.46 398.13 L 242.38 398.04 L 242.09 397.76 L 241.74 397.38 L 241.54 397.2 L 241.39 397.11 L 241.08 397.03 L 240.78 397 L 240.34 396.74 L 239.94 396.71 L 239.5 396.44 L 239.3 396.45 L 238.97 396.32 L 238.45 396.25 L 238.21 396.16 L 238.12 396.17 L 237.98 396.15 L 237.99 396.1 L 238.1 396.06 L 238.31 396.03 L 238.43 395.9 L 238.49 395.68 L 238.34 395.71 L 238.14 395.55 L 237.94 395.43 L 237.7 395.25 L 237.75 395.13 L 237.82 395.06 L 238.24 395.18 L 238.34 395.28 L 238.4 395.46 L 238.52 395.52 L 238.62 395.5 L 238.67 395.33 L 238.39 395.09 L 238.17 394.95 L 237.7 394.68 L 237.36 394.55 L 237.13 394.42 L 236.67 394.06 L 235.81 393.59 L 235.61 393.41 L 235.37 393.05 L 235.26 392.84 L 235.11 392.7 L 234.99 392.55 L 235.1 392.43 L 235.14 392.32 L 235.3 392.27 L 235.38 392.43 L 235.37 392.51 L 235.62 392.71 L 236.15 392.88 L 236.67 393.03 L 236.94 393.31 L 237.25 393.52 L 237.76 393.62 L 237.79 393.59 L 237.77 393.53 L 237.2 393.32 L 237.07 393.23 L 236.79 393 L 236.77 392.9 L 237.25 392.94 L 237.92 393.35 L 238.21 393.46 L 238.22 393.39 L 238.19 393.31 L 237.97 393.12 L 237.81 393.04 L 237.55 392.95 L 237.23 392.79 L 237.16 392.69 L 237.24 392.58 L 237.41 392.58 L 237.76 392.68 L 237.98 392.71 L 238.22 392.84 L 238.54 392.96 L 238.27 392.76 L 237.98 392.59 L 237.52 392.44 L 237.36 392.47 L 237.22 392.46 L 237.04 392.32 L 237 392.17 L 236.67 392 L 236.52 391.89 L 236.42 391.73 L 236.73 391.69 L 237 391.71 L 237.14 391.54 L 237.15 391.21 L 237.25 391.11 L 237.4 391.13 L 237.74 391.25 L 237.95 391.26 L 238.1 390.96 L 238.22 390.87 L 238.59 390.98 L 238.7 390.94 L 239.09 391.04 L 239.79 391.06 L 240.19 391.2 L 240.32 391.29 L 240.34 391.25 L 240.39 391.23 L 240.37 391.03 L 240.37 390.89 L 240.39 390.71 L 240.35 390.6 L 240.27 390.51 L 240.18 390.45 L 240.11 390.38 L 240.02 390.27 L 239.85 390.05 L 240 389.76 L 240.1 389.72 L 240.04 389.6 L 239.81 389.35 L 239.59 389.14 L 239.52 389.13 L 239.38 389.08 L 239.27 389.02 L 239.12 388.95 L 238.93 388.92 L 238.87 388.86 L 238.83 388.79 L 238.83 388.71 L 239.05 388.62 L 239.04 388.57 L 238.98 388.45 L 238.93 388.32 L 238.96 388.27 L 239.07 388.26 L 239.26 388.2 L 239.37 388.15 L 239.45 388.04 L 239.46 387.96 L 239.74 387.88 L 239.8 387.83 L 239.91 387.85 L 240.14 387.97 L 240.48 388.13 L 240.63 388.18 L 240.68 388.14 L 240.77 388.06 L 240.9 388.04 L 241.02 388.04 L 241.03 387.98 L 241.1 387.95 L 241.37 387.97 L 241.16 387.79 L 240.58 387.43 L 240.12 387.11 L 239.9 387 L 239.5 386.87 L 239.51 386.23 L 239.61 386.19 L 239.67 386.09 L 239.16 385.42 L 238.9 384.99 L 238.9 384.87 L 238.93 384.77 L 238.86 384.42 L 239.12 384.31 L 239.45 384.37 L 239.4 384.07 L 238.98 383.45 L 238.89 383.3 L 238.64 382.81 L 238.02 382 L 237.96 381.78 L 237.97 381.4 L 237.9 381.21 L 237.78 381.25 L 237.72 381.15 L 237.71 381.05 L 237.56 380.84 L 237.53 380.74 L 237.51 380.57 L 237.24 380.29 L 237.21 380.15 L 237.25 380.07 L 237.49 380.09 L 237.5 380.24 L 237.64 380.38 L 237.81 380.57 L 237.83 380.69 L 238.57 380.35 L 238.52 380.15 L 238.44 379.97 L 238.18 379.5 L 238.12 379.38 L 238.02 379.2 L 237.82 379.06 L 237.56 378.92 Z  M 215.04 391.6 L 215.03 391.59 L 215.03 391.58 L 215.04 391.58 L 215.06 391.6 L 215.04 391.6 Z  M 210.48 386.4 L 210.57 386.36 L 210.67 386.46 L 210.74 386.6 L 210.65 386.63 L 210.51 386.53 L 210.48 386.4 Z  M 195.96 392.87 L 195.91 392.99 L 195.86 393.04 L 195.8 393.07 L 195.73 393.08 L 195.64 393.02 L 195.55 392.93 L 195.46 392.85 L 195.41 392.81 L 195.32 392.69 L 195.31 392.62 L 195.32 392.56 L 195.45 392.56 L 195.76 392.6 L 195.87 392.66 L 195.92 392.7 L 195.95 392.79 L 195.99 392.84 L 195.96 392.87 Z  M 200.6 379.31 L 200.75 379.52 L 200.93 379.64 L 201.02 379.74 L 201.08 379.84 L 200.97 379.87 L 200.77 379.84 L 200.5 379.69 L 200.41 379.73 L 200.36 379.78 L 200.44 379.94 L 200.55 380.13 L 200.65 380.23 L 200.78 380.3 L 200.96 380.46 L 201.18 380.67 L 201.29 380.76 L 201.29 380.81 L 201.24 380.85 L 201.14 380.83 L 200.81 380.59 L 200.67 380.5 L 200.56 380.5 L 200.44 380.59 L 200.31 380.77 L 200.2 380.78 L 200.09 380.77 L 199.9 380.65 L 199.64 380.43 L 199.49 380.28 L 199.45 380.3 L 199.24 380.28 L 199.22 380.35 L 199.42 380.59 L 199.65 380.89 L 199.73 381.09 L 199.78 381.46 L 199.82 381.62 L 199.87 381.72 L 199.94 381.81 L 200.11 381.96 L 200.28 382.11 L 200.31 382.2 L 200.23 382.26 L 200.07 382.18 L 199.9 382.02 L 199.53 381.83 L 199.46 381.64 L 199.4 381.59 L 199.01 381.54 L 198.77 381.42 L 198.37 381.2 L 198.25 381.1 L 197.97 380.76 L 197.89 380.68 L 197.83 380.64 L 197.74 380.65 L 197.71 380.79 L 197.75 380.99 L 197.68 381.22 L 197.7 381.27 L 197.94 381.45 L 198 381.53 L 198.07 381.87 L 198.12 381.97 L 198.04 382.2 L 197.99 382.29 L 197.53 382.2 L 197.43 382.19 L 197.36 382.31 L 197.22 382.43 L 196.96 382.57 L 196.77 382.53 L 196.66 382.47 L 196.55 382.38 L 196.32 382.23 L 196.14 382.15 L 195.98 382.05 L 195.79 381.95 L 195.65 381.86 L 195.46 381.53 L 195.31 381.43 L 195.14 381.27 L 195.07 381.17 L 195.01 381.14 L 194.65 381.13 L 194.41 381.18 L 194.31 381.32 L 194.31 381.51 L 194.33 381.56 L 194.36 381.59 L 194.58 381.74 L 194.59 381.92 L 194.51 382.08 L 194.39 382.12 L 194.3 382.1 L 194.15 381.92 L 194.2 381.84 L 194.2 381.7 L 194.09 381.53 L 194.01 381.41 L 193.78 381.29 L 193.71 381.2 L 193.64 381.02 L 193.55 380.87 L 193.5 380.73 L 193.54 380.49 L 193.57 380.25 L 193.42 380.02 L 193.2 379.74 L 193.18 379.67 L 193.33 379.46 L 193.35 379.39 L 193.31 379.29 L 193.28 378.94 L 193.25 378.6 L 193.21 378.49 L 193.2 378.42 L 193.16 378.37 L 193.09 378.34 L 192.96 378.33 L 192.84 378.23 L 192.82 378.04 L 192.88 377.91 L 193.02 377.89 L 193.12 377.93 L 193.17 377.99 L 193.28 378.04 L 193.41 378.04 L 193.52 378 L 193.6 377.92 L 193.56 377.75 L 193.51 377.62 L 193.61 377.45 L 193.81 377.5 L 194.23 377.46 L 194.49 377.38 L 194.6 377.27 L 194.83 377.23 L 195.02 377.26 L 195.04 377.25 L 195.08 377.23 L 195.08 377.18 L 195.19 377.12 L 195.18 377.08 L 195.14 377.04 L 195.09 377.02 L 194.93 377.07 L 194.84 377.04 L 194.76 376.97 L 194.71 376.83 L 194.75 376.7 L 194.84 376.66 L 194.94 376.68 L 195.3 376.85 L 195.35 376.85 L 195.35 376.81 L 195.38 376.78 L 195.47 376.81 L 195.65 376.93 L 195.68 376.95 L 196.08 376.84 L 196.18 376.83 L 196.65 377 L 197.14 377.19 L 197.22 377.22 L 197.46 377.33 L 197.61 377.56 L 197.76 377.95 L 197.82 377.99 L 197.87 378.05 L 197.94 378.11 L 198.02 378.19 L 198.11 378.27 L 198.22 378.34 L 198.3 378.41 L 198.35 378.51 L 198.37 378.57 L 198.44 378.56 L 198.71 378.58 L 198.95 378.65 L 199.06 378.74 L 199.18 378.85 L 199.51 378.97 L 199.83 379.04 L 199.89 378.99 L 199.89 378.59 L 200.06 378.63 L 200.28 378.82 L 200.36 378.92 L 200.6 379.31 Z  M 169.74 369.51 L 170 369.64 L 169.95 369.78 L 170.02 369.93 L 170.02 369.99 L 169.95 370.04 L 169.86 370.06 L 169.25 369.83 L 169.18 369.86 L 169.16 369.72 L 169.31 369.57 L 169.32 369.41 L 169.74 369.51 Z  M 142.04 332.97 L 141.82 333 L 141.76 332.67 L 141.85 332.57 L 142.13 332.58 L 142.16 332.73 L 142.04 332.97 Z  M 185.45 329.73 L 185.38 329.79 L 185.33 329.77 L 185.27 329.53 L 185.26 329.42 L 185.36 329.31 L 185.41 329.33 L 185.45 329.73 Z  M 189.13 338.43 L 189.06 338.1 L 188.74 337.59 L 188.49 337.07 L 188.49 336.8 L 188.54 336.57 L 188.54 336.06 L 188.63 335.68 L 188.92 335.49 L 189.17 335.62 L 189.08 335.29 L 189.16 335.2 L 189.31 335.27 L 189.71 335.55 L 189.6 335.68 L 189.68 336.03 L 189.57 336.1 L 189.5 336.23 L 190 337.3 L 190.44 337.68 L 190.34 337.75 L 190.28 337.88 L 190.29 338.06 L 190.4 338.45 L 190.19 338.7 L 190.15 338.87 L 190.15 339.24 L 190.33 339.75 L 190.26 339.99 L 190.08 340.06 L 189.98 339.63 L 189.96 339.28 L 189.68 339.06 L 189.4 338.7 L 189.13 338.43 Z  M 189.66 335.41 L 189.45 335.2 L 189.48 334.84 L 189.79 334.83 L 189.92 334.89 L 189.67 335.12 L 189.78 335.42 L 189.66 335.41 Z  M 187.01 338.39 L 186.98 338.59 L 187.12 338.83 L 187.16 338.93 L 187.38 340.01 L 187.65 340.68 L 187.61 340.86 L 188.4 343.25 L 188.43 343.49 L 188.33 343.48 L 188.1 343.18 L 187.65 342.41 L 187.47 342.01 L 187.14 340.56 L 187.27 340.42 L 187.07 339.52 L 186.94 339.12 L 186.87 338.75 L 186.77 338.42 L 186.76 338.29 L 186.92 338.34 L 187.01 338.39 Z  M 184.8 327.05 L 184.83 327.1 L 184.75 327.28 L 184.74 327.4 L 184.77 327.58 L 184.62 327.37 L 184.62 327.33 L 184.56 327.12 L 184.61 326.99 L 184.8 327.05 Z  M 204.55 401.52 L 204.62 401.58 L 204.61 401.61 L 204.48 401.6 L 204.33 401.63 L 204.23 401.54 L 204.19 401.48 L 204.16 401.42 L 204.38 401.52 L 204.55 401.52 Z  M 205.11 398.75 L 205.28 398.88 L 205.36 399.05 L 205.41 399.22 L 205.5 399.41 L 205.62 399.62 L 205.6 399.76 L 205.54 399.85 L 205.12 399.75 L 204.92 399.74 L 204.82 399.69 L 204.56 399.48 L 204.42 399.42 L 204.28 399.41 L 204.25 399.48 L 204.24 399.61 L 204.06 399.51 L 203.94 399.51 L 203.83 399.44 L 203.74 399.35 L 203.85 398.71 L 203.92 398.56 L 204.19 398.36 L 204.27 398.37 L 204.3 398.46 L 204.34 398.5 L 204.43 398.53 L 204.48 398.59 L 204.49 398.66 L 204.57 398.76 L 204.8 398.81 L 204.89 398.72 L 205 398.73 L 205.11 398.75 Z  M 206.15 398.18 L 206.2 398.22 L 206.28 398.35 L 206.27 398.38 L 205.53 398.21 L 205.34 398.2 L 205.26 398.17 L 205.13 398.04 L 205.08 397.97 L 205.39 397.89 L 205.75 397.95 L 206.15 398.18 Z  M 203.72 400.69 L 203.85 400.79 L 203.88 401.05 L 203.84 401.09 L 203.92 401.23 L 203.63 401.23 L 203.52 401.19 L 203.42 401.03 L 203.47 401 L 203.36 400.89 L 203.32 400.77 L 203.57 400.63 L 203.72 400.69 Z  M 176.42 356.87 L 176.25 356.9 L 176.23 356.79 L 176.34 356.69 L 176.43 356.68 L 176.42 356.87 Z  M 174.13 358.04 L 174.02 358 L 174.33 357.79 L 174.57 357.7 L 174.63 357.72 L 174.29 357.99 L 174.13 358.04 Z  M 173.95 358.68 L 173.88 358.64 L 173.93 358.36 L 174.09 358.35 L 173.95 358.68 Z  M 174.17 359.57 L 174.09 359.51 L 173.99 359.29 L 174.02 358.89 L 174.32 359.33 L 174.33 359.63 L 174.17 359.57 Z  M 175.84 364.76 L 175.78 364.68 L 175.91 364.6 L 176.22 364.58 L 176.55 364.76 L 176.63 364.82 L 176.7 364.88 L 176.53 364.99 L 176.1 364.78 L 175.99 364.86 L 175.84 364.76 Z  M 174.74 357.63 L 174.69 357.59 L 174.77 357.55 L 175.08 357.5 L 175.21 357.53 L 175.23 357.55 L 174.9 357.66 L 174.74 357.63 Z  M 175.68 357.42 L 175.6 357.4 L 175.59 357.36 L 175.76 357.24 L 175.85 357.25 L 175.68 357.42 Z  M 229.92 403.7 L 230 403.75 L 230.01 403.77 L 229.94 403.81 L 229.79 403.77 L 229.73 403.73 L 229.83 403.68 L 229.92 403.7 Z  M 230.63 403.99 L 230.74 404.04 L 230.75 404.11 L 230.59 404.13 L 230.36 404.05 L 230.16 403.85 L 230.35 403.87 L 230.63 403.99 Z  M 199.65 346.47 L 199.68 346.79 L 199.54 346.77 L 199.49 346.25 L 199.4 345.92 L 199.21 345.46 L 199.18 345.31 L 199.3 345.52 L 199.47 345.87 L 199.65 346.47 Z  M 220.02 394.06 L 219.95 394.04 L 219.89 394.01 L 219.84 393.92 L 220.04 393.95 L 220.08 393.99 L 220.07 394.03 L 220.02 394.06 Z  M 227.62 398.92 L 227.78 398.96 L 227.78 399.08 L 227.89 399.33 L 227.93 399.43 L 228.08 400.06 L 228.16 400.19 L 228.27 400.34 L 228.35 400.47 L 228.41 400.6 L 228.5 400.75 L 228.67 400.92 L 228.77 401 L 228.87 401.05 L 228.99 401.09 L 229.13 401.16 L 229.11 401.24 L 229.34 401.37 L 229.5 401.44 L 229.6 401.52 L 229.68 401.6 L 229.65 401.79 L 229.67 401.88 L 229.73 401.99 L 229.81 402.1 L 229.92 402.2 L 230.01 402.29 L 229.82 402.31 L 229.59 402.27 L 229.43 402.33 L 229.07 402.25 L 228.95 402.25 L 228.83 402.21 L 228.28 401.9 L 227.96 401.78 L 227.66 401.69 L 227.47 401.71 L 227.29 401.75 L 227.06 401.71 L 226.49 401.52 L 225.94 401.38 L 225.67 401.28 L 225.51 401.2 L 225.38 401.16 L 225.12 401.14 L 224.8 401.03 L 224.71 401.04 L 224.54 401.08 L 224.44 401.08 L 224.3 401.05 L 223.97 400.92 L 223.65 400.73 L 223.53 400.64 L 223.37 400.38 L 223.24 400.13 L 223.26 400.05 L 223.32 399.99 L 223.31 399.91 L 223.28 399.82 L 223.7 400.04 L 223.85 400.08 L 223.92 400.06 L 223.98 399.95 L 223.9 399.85 L 223.95 399.7 L 224.16 399.67 L 224.27 399.68 L 224.43 399.78 L 224.55 399.8 L 224.65 399.8 L 225.16 399.97 L 225.28 399.99 L 225.37 399.99 L 225.53 399.86 L 225.68 399.8 L 226.1 399.8 L 226.26 399.71 L 226.4 399.69 L 226.53 399.57 L 226.56 399.41 L 226.62 399.37 L 226.7 399.35 L 226.92 399.32 L 227.18 399.32 L 227.24 399.28 L 227.23 399.18 L 227.28 399.12 L 227.41 399.14 L 227.52 398.95 L 227.62 398.92 Z  M 224.98 402.83 L 225.03 402.87 L 224.97 402.9 L 224.8 402.85 L 224.7 402.76 L 224.69 402.73 L 224.86 402.75 L 224.98 402.83 Z  M 209.73 389.89 L 209.75 389.96 L 209.9 390.1 L 209.65 390 L 209.49 390.1 L 209.35 390.1 L 209.22 390 L 209.19 389.93 L 209.38 389.89 L 209.42 389.85 L 209.55 389.85 L 209.53 389.75 L 209.68 389.84 L 209.73 389.89 Z  M 214.53 398.94 L 214.64 398.98 L 214.75 399.2 L 214.51 399.07 L 214.38 398.94 L 214.35 398.9 L 214.53 398.94 Z  M 213.59 395.37 L 213.73 395.49 L 213.81 395.63 L 213.86 395.73 L 213.96 396.05 L 214.22 396.29 L 214.43 396.43 L 214.6 396.6 L 214.76 396.81 L 215.85 398.08 L 216.01 398.3 L 216.16 398.5 L 216.1 398.57 L 215.88 398.54 L 215.58 398.46 L 215.49 398.48 L 215.43 398.53 L 215.33 398.51 L 215.2 398.46 L 215.56 398.89 L 215.63 399.08 L 215.6 399.21 L 215.48 399.24 L 215.31 399.22 L 215.2 399.24 L 215.04 399.17 L 214.83 399.04 L 214.56 398.88 L 214.24 398.69 L 214.05 398.51 L 213.63 398.1 L 213.57 398.01 L 213.53 397.91 L 213.37 397.72 L 213.2 397.56 L 213.17 397.5 L 213.29 397.55 L 213.32 397.52 L 213.23 397.43 L 213.1 397.28 L 212.89 397.16 L 212.71 397.14 L 212.56 397.01 L 212.45 396.87 L 212.44 396.77 L 212.35 396.65 L 212 396.29 L 211.77 396.17 L 211.53 395.97 L 211.36 395.85 L 211.14 395.73 L 210.93 395.64 L 210.76 395.54 L 210.49 395.27 L 210.3 395.04 L 210.25 394.94 L 210.29 394.95 L 210.51 395.04 L 210.62 395.05 L 210.82 395.06 L 210.95 394.99 L 211.06 394.86 L 211.14 394.7 L 211.08 394.29 L 211.18 394.19 L 211.18 394.07 L 211.09 393.94 L 211.13 393.89 L 211.34 394 L 211.47 394 L 211.74 394.08 L 211.91 394.17 L 212.09 394.28 L 212.2 394.33 L 212.29 394.35 L 212.33 394.38 L 212.3 394.41 L 212.37 394.56 L 212.45 394.6 L 212.61 394.66 L 212.83 394.79 L 213.59 395.37 Z  M 210.12 394.75 L 210.03 394.75 L 209.99 394.67 L 209.91 394.5 L 209.95 394.43 L 210.03 394.47 L 210.08 394.57 L 210.07 394.63 L 210.12 394.75 Z  M 143.89 359.74 L 143.46 359.72 L 143.49 359.53 L 143.6 359.57 L 143.87 359.54 L 144 359.59 L 144.25 359.9 L 144.33 360.01 L 144.08 359.89 L 143.89 359.74 Z  M 152.54 369 L 152.44 369.04 L 152.22 369.28 L 152.02 369.27 L 151.88 368.79 L 151.99 368.52 L 151.97 368.46 L 151.84 368.44 L 151.41 368.69 L 151.32 368.85 L 151.15 368.93 L 151.08 368.71 L 151.1 368.39 L 151.13 368.24 L 151.17 368.17 L 151.13 367.99 L 151.24 367.76 L 150.69 368.29 L 150.43 368.28 L 150.29 368.18 L 150.15 368.26 L 149.87 368.01 L 149.8 367.57 L 149.82 367.38 L 149.92 367.26 L 149.99 367.1 L 149.92 366.92 L 149.8 366.89 L 149.3 367.01 L 149.02 367.02 L 148.93 366.89 L 148.86 366.74 L 148.92 366.45 L 149.03 366.39 L 149.17 366.39 L 149.35 366.43 L 149.51 366.5 L 149.77 366.4 L 149.52 366.27 L 149.24 365.95 L 149.06 365.86 L 149.06 365.69 L 149.12 365.58 L 149.11 365.23 L 149.15 365.17 L 149.55 365.02 L 149.92 364.78 L 150.23 364.48 L 149.87 364.39 L 149.62 364.24 L 149.69 364.61 L 149.66 364.76 L 149.32 364.89 L 149.16 364.88 L 148.9 364.8 L 148.88 364.85 L 148.89 364.94 L 148.76 365.14 L 148.52 365.23 L 148.6 364.87 L 148.59 364.29 L 148.55 364.12 L 148.45 363.81 L 148.31 363.69 L 148.17 363.63 L 148 362.99 L 148.02 362.87 L 148.19 362.82 L 148.26 362.71 L 148.32 362.7 L 148.35 362.65 L 148.33 362.45 L 148.05 362.37 L 147.81 362.34 L 147.25 362.5 L 147.16 362.5 L 147.05 362.45 L 146.94 362.38 L 146.74 362.19 L 146.66 362.15 L 146.52 362.17 L 146.44 362.25 L 146.34 362.26 L 146.18 362.18 L 146.16 361.95 L 145.93 361.93 L 145.77 362 L 145.56 361.97 L 145.46 361.83 L 145.42 361.69 L 145.23 361.58 L 145.09 361.43 L 145.13 361.33 L 145.26 361.34 L 145.39 361.19 L 145.64 361.09 L 145.3 361.01 L 145.13 360.93 L 145 360.78 L 144.92 360.64 L 145.04 360.38 L 145.27 360.23 L 145.13 360.09 L 145.03 359.93 L 144.69 359.93 L 144.47 360.09 L 144.27 359.78 L 144.13 359.49 L 144.01 359.31 L 143.84 359.12 L 143.76 359.22 L 143.53 358.95 L 143.33 358.77 L 143.21 358.93 L 143.03 358.68 L 142.96 358.5 L 143.01 358.4 L 143.15 358.42 L 143.35 358.39 L 143.45 358.22 L 143.71 358.14 L 144.2 358.12 L 144.8 358.44 L 144.83 358.36 L 144.77 358.11 L 144.81 358.07 L 145.37 358.1 L 145.76 358.19 L 145.81 358.14 L 145.57 357.89 L 145.33 357.72 L 145.28 357.46 L 145.32 357.28 L 145.36 357.18 L 145.53 357.05 L 145.56 356.94 L 145.4 356.62 L 145.33 356.34 L 144.82 356.57 L 144.02 356.34 L 143.95 356.11 L 143.98 355.97 L 144.12 355.85 L 144.06 355.73 L 144.09 355.62 L 144.09 355.34 L 143.79 355.03 L 143.65 354.78 L 143.66 354.61 L 143.54 354.38 L 143.47 354.2 L 143.69 354.1 L 143.82 353.91 L 143.92 353.92 L 144.19 353.84 L 144.34 353.89 L 144.12 353.62 L 144.27 353.55 L 144.38 353.6 L 144.55 353.79 L 144.72 353.9 L 144.9 354.11 L 144.96 354.29 L 144.96 354.43 L 145.14 354.54 L 145.18 354.8 L 145.25 354.68 L 145.28 354.42 L 145.14 354.23 L 144.93 354 L 144.72 353.79 L 144.58 353.55 L 144.59 353.39 L 144.83 353.27 L 144.51 353.02 L 144.61 352.98 L 144.76 353.02 L 145.08 353.2 L 145.38 353.34 L 145.66 353.45 L 145.67 353.73 L 145.58 353.94 L 145.63 354.15 L 145.81 354.29 L 145.99 354.31 L 146.02 354.15 L 145.86 353.68 L 145.95 353.64 L 146.1 353.66 L 146.3 353.57 L 146.57 353.3 L 146.76 353.27 L 147.1 353.34 L 147.3 353.31 L 147.7 353.61 L 148.15 354.09 L 148.72 354.55 L 149.31 354.93 L 149.51 355.19 L 149.5 355.34 L 149.41 355.54 L 149.55 355.73 L 149.62 355.61 L 149.71 355.55 L 150.04 355.55 L 150.27 355.72 L 150.54 355.99 L 150.75 356.21 L 150.9 356.46 L 150.76 356.4 L 150.52 356.19 L 150.36 356.1 L 150.22 356.06 L 150.48 356.36 L 150.76 356.76 L 150.83 356.79 L 150.98 356.78 L 151.18 357.2 L 151.08 357.34 L 150.89 357.42 L 150.94 357.57 L 151.04 357.76 L 151.13 358.05 L 151.09 358.23 L 150.88 358.23 L 150.61 358.13 L 150.79 358.27 L 150.94 358.41 L 150.84 358.49 L 150.68 358.48 L 150.68 358.59 L 150.82 358.77 L 151.04 359.01 L 151.27 359.17 L 151.63 359.54 L 152.02 359.96 L 152.31 360.2 L 152.57 360.51 L 152.67 360.67 L 152.9 360.94 L 152.93 361.05 L 153.16 361.3 L 153.68 361.82 L 153.96 362.11 L 154.49 362.74 L 154.6 363 L 154.66 363.24 L 154.8 363.52 L 154.97 363.81 L 155.3 364.28 L 155.49 364.85 L 155.5 365 L 155.45 365.1 L 156 365.44 L 155.93 365.64 L 155.74 365.72 L 155.42 365.67 L 155.28 365.7 L 155.24 365.84 L 155.24 365.93 L 155.17 365.9 L 154.83 365.61 L 155.01 365.93 L 154.95 366.06 L 154.69 366.07 L 154.36 366.22 L 154.27 366.33 L 154.32 366.48 L 154.4 366.65 L 154.42 366.76 L 154.39 366.82 L 154.17 366.99 L 154.15 367.04 L 154.21 367.32 L 154.15 367.5 L 154.03 367.57 L 153.77 367.45 L 153.63 367.36 L 153.53 367.33 L 153.33 367.37 L 153.43 367.41 L 153.56 367.5 L 153.75 367.7 L 153.89 367.91 L 153.86 368.02 L 153.76 368.06 L 153.73 368.3 L 153.51 368.4 L 153.53 368.61 L 152.93 369.06 L 152.88 369.08 L 152.7 369.01 L 152.54 369 Z  M 250.41 402.52 L 250.46 402.51 L 250.5 402.6 L 250.66 402.81 L 250.73 402.93 L 250.8 403.03 L 250.71 403.1 L 250.53 403.13 L 250.16 403.15 L 249.84 403.23 L 249.27 403.41 L 248.66 403.54 L 248.55 403.52 L 248.44 403.4 L 248.35 403.32 L 248.25 403.27 L 248.01 403.24 L 247.74 403.18 L 246.88 403.17 L 246.66 403.14 L 246.39 403.21 L 246.28 403.22 L 246.17 403.18 L 246.06 403.12 L 245.82 402.89 L 245.65 402.66 L 245.66 402.6 L 245.75 402.66 L 245.85 402.68 L 245.86 402.6 L 245.76 402.5 L 245.71 402.4 L 245.8 402.43 L 245.97 402.58 L 246.1 402.6 L 246.23 402.6 L 246.37 402.58 L 246.4 402.56 L 246.39 402.44 L 246.5 402.42 L 246.66 402.53 L 246.58 402.59 L 246.59 402.62 L 246.63 402.64 L 246.76 402.68 L 246.87 402.64 L 246.95 402.73 L 247.04 402.8 L 247.14 402.83 L 247.22 402.83 L 247.35 402.8 L 247.47 402.75 L 247.57 402.68 L 247.69 402.63 L 248.17 402.6 L 248.45 402.7 L 248.77 402.67 L 249.11 402.7 L 249.23 402.64 L 249.45 402.57 L 249.53 402.6 L 249.74 402.87 L 249.83 402.95 L 249.94 402.98 L 249.99 402.95 L 250 402.85 L 250.16 402.76 L 250.39 402.73 L 250.41 402.52 Z  M 237.2 398.74 L 237.56 398.92 L 237.38 398.89 L 237.35 399.05 L 237.02 398.91 L 236.76 398.76 L 236.67 398.7 L 236.65 398.53 L 236.9 398.67 L 237.06 398.68 L 237.2 398.74 Z  M 243.33 401.25 L 243.63 401.39 L 243.66 401.51 L 243.72 401.6 L 243.5 401.56 L 243.37 401.48 L 243.19 401.29 L 243.15 401.19 L 243.15 401.15 L 243.33 401.25 Z  M 241.35 397.92 L 241.33 397.98 L 241.25 397.99 L 241.18 397.97 L 241.12 397.94 L 241.13 397.91 L 241.1 397.83 L 241.12 397.8 L 241.18 397.8 L 241.24 397.83 L 241.35 397.92 Z  M 232.78 395.47 L 232.93 395.59 L 232.65 395.54 L 232.41 395.45 L 232.04 395.19 L 231.5 394.92 L 231.42 394.83 L 231.46 394.75 L 231.64 394.67 L 231.77 394.71 L 231.87 394.75 L 231.94 394.81 L 231.92 394.95 L 231.94 395.01 L 232.13 395.1 L 232.17 395.14 L 232.39 395.34 L 232.51 395.42 L 232.68 395.46 L 232.78 395.47 Z  M 239.67 396.06 L 239.93 396.13 L 240.03 396.13 L 240.49 396.25 L 240.88 396.24 L 240.97 396.28 L 241.13 396.4 L 241.29 396.49 L 241.38 396.57 L 241.41 396.66 L 241.69 396.92 L 242 397.15 L 242.25 397.26 L 242.45 397.27 L 242.61 397.24 L 242.69 397.29 L 242.87 397.5 L 242.87 397.6 L 242.83 397.63 L 242.76 397.61 L 242.67 397.56 L 242.6 397.55 L 242.51 397.55 L 242.36 397.48 L 242.08 397.38 L 241.99 397.31 L 241.89 397.2 L 241.74 397.13 L 241.54 396.99 L 241.44 396.95 L 241.33 396.88 L 241.3 396.85 L 241.03 396.86 L 240.82 396.88 L 240.56 396.82 L 240.3 396.59 L 240.14 396.54 L 240.01 396.49 L 239.86 396.41 L 239.55 396.26 L 239.24 396.14 L 238.98 396.07 L 238.73 396.04 L 238.64 396.13 L 238.54 396.12 L 238.48 396.08 L 238.58 395.95 L 238.69 395.73 L 238.82 395.65 L 238.9 395.63 L 239.22 395.77 L 239.51 395.99 L 239.67 396.06 Z  M 236.5 398.22 L 236.15 398.15 L 236.14 398.21 L 236.04 398.2 L 235.89 398.09 L 235.86 398.04 L 235.75 397.98 L 235.69 397.95 L 235.67 398.06 L 235.63 398.08 L 235.55 398 L 235.42 397.74 L 235.43 397.7 L 235.58 397.77 L 235.61 397.73 L 235.54 397.59 L 235.43 397.46 L 235.42 397.42 L 235.67 397.6 L 235.91 397.84 L 236.06 397.87 L 236.41 398.07 L 236.5 398.18 L 236.5 398.22 Z  M 235.69 397.44 L 235.73 397.49 L 235.8 397.55 L 235.91 397.61 L 236.01 397.68 L 235.95 397.72 L 235.67 397.53 L 235.5 397.39 L 235.54 397.38 L 235.6 397.39 L 235.69 397.44 Z  M 234.93 396.61 L 235.06 396.7 L 235.35 397.04 L 235.36 397.11 L 235.32 397.13 L 235.25 397.13 L 235.21 397.14 L 235.2 397.19 L 235.05 397.02 L 234.92 396.81 L 234.88 396.67 L 234.93 396.61 Z  M 247.06 399.67 L 247.05 399.63 L 247.13 399.53 L 247.14 399.42 L 247.3 399.47 L 247.21 399.53 L 247.16 399.74 L 247.03 399.77 L 246.97 399.76 L 247.03 399.72 L 247.06 399.67 Z  M 244.24 398.11 L 244.38 398.17 L 244.63 398.17 L 244.74 398.23 L 244.79 398.37 L 244.67 398.36 L 244.38 398.24 L 244.26 398.19 L 244.18 398.13 L 244.24 398.11 Z  M 240.52 393.04 L 240.62 392.98 L 240.69 393.1 L 240.69 393.18 L 240.75 393.32 L 240.88 393.5 L 240.79 393.52 L 240.7 393.49 L 240.62 393.42 L 240.54 393.34 L 240.5 393.34 L 240.55 393.45 L 240.55 393.49 L 240.46 393.51 L 240.3 393.47 L 240.2 393.34 L 240.05 393.19 L 240.02 393.14 L 240.31 393.09 L 240.49 393.19 L 240.54 393.11 L 240.52 393.04 Z  M 240.28 392.05 L 240.14 392.13 L 239.77 391.97 L 239.92 391.87 L 240.06 391.91 L 240.18 391.97 L 240.28 392.05 Z  M 249.27 399.22 L 249.47 399.27 L 249.32 399.43 L 249.3 399.5 L 249.12 399.53 L 249.06 399.64 L 249.01 399.65 L 248.99 399.54 L 249.04 399.39 L 249.2 399.24 L 249.27 399.22 Z  M 247.26 400.72 L 247.12 400.69 L 247.13 400.65 L 247.11 400.59 L 247.05 400.52 L 246.98 400.48 L 246.98 400.46 L 247.15 400.52 L 247.24 400.6 L 247.26 400.72 Z  M 245.3 398.57 L 245.16 398.6 L 245.03 398.44 L 245.05 398.4 L 245.31 398.45 L 245.34 398.5 L 245.3 398.57 Z  M 246.34 399.45 L 246.26 399.54 L 246.06 399.45 L 245.86 399.28 L 245.9 398.99 L 245.98 399.01 L 246.08 399.07 L 246.28 399.3 L 246.34 399.45 Z  M 248.37 399.95 L 248.5 400.02 L 248.42 400.08 L 248.42 400.19 L 248.26 400.14 L 248.18 400.04 L 248.31 400.06 L 248.34 399.99 L 248.26 399.93 L 248.37 399.95 Z  M 248.52 399.05 L 248.33 398.93 L 248.52 398.99 L 248.68 399.06 L 248.73 399.07 L 248.77 399.12 L 248.77 399.16 L 248.63 399.21 L 248.52 399.05 Z  M 251.49 401.86 L 251.66 402.01 L 251.59 402.05 L 251.62 402.16 L 251.48 402.08 L 251.41 401.97 L 251.19 401.81 L 251.12 401.55 L 251.01 401.43 L 251.06 401.36 L 251.22 401.56 L 251.28 401.74 L 251.49 401.86 Z  M 239.38 395.42 L 239.05 395.19 L 239.53 395.36 L 239.52 395.44 L 239.38 395.42 Z  M 244.23 394.96 L 244.37 395.03 L 244.28 395.1 L 244.15 395.11 L 243.67 395.05 L 243.48 394.94 L 243.56 394.73 L 243.54 394.65 L 243.39 394.68 L 243.39 394.91 L 243.04 394.85 L 242.88 394.78 L 242.82 394.73 L 242.77 394.53 L 242.97 394.51 L 243.04 394.46 L 243.12 394.38 L 243.04 394.29 L 243.33 394.23 L 243.53 394.34 L 243.61 394.47 L 244.02 394.65 L 244.22 394.78 L 244.35 394.91 L 244.37 394.95 L 244.22 394.89 L 244.13 394.87 L 244.23 394.96 Z  M 246.35 399.99 L 246.24 399.93 L 246.24 399.86 L 246.55 399.98 L 246.59 400.07 L 246.59 400.1 L 246.35 399.99 Z  M 246.05 397.98 L 246.25 397.95 L 246.37 397.86 L 246.41 397.85 L 246.42 397.97 L 246.36 398.1 L 246.14 398.21 L 246.07 398.23 L 246.02 398.15 L 246.05 397.98 Z  M 247.4 397.67 L 247.28 397.81 L 247.17 397.79 L 246.97 397.71 L 246.78 397.72 L 246.7 397.7 L 246.7 397.57 L 246.82 397.49 L 246.95 397.47 L 247.21 397.51 L 247.26 397.5 L 247.38 397.51 L 247.51 397.63 L 247.4 397.67 Z  M 244.55 396.08 L 244.61 396.2 L 244.66 396.24 L 244.97 396.58 L 244.93 396.64 L 245 396.74 L 245.02 396.77 L 244.96 396.91 L 244.64 396.76 L 244.56 396.71 L 244.63 396.63 L 244.6 396.51 L 244.44 396.39 L 244.09 396.21 L 243.96 396.08 L 244.19 395.98 L 244.46 396.08 L 244.55 396.08 Z  M 238.24 391.61 L 238.29 391.71 L 238.38 391.81 L 238.23 391.92 L 237.89 391.79 L 237.81 391.7 L 237.77 391.5 L 237.79 391.44 L 237.97 391.43 L 238.16 391.55 L 238.24 391.61 Z  M 240.96 395.5 L 241.16 395.56 L 241.3 395.69 L 241.59 395.82 L 241.46 395.9 L 241.4 395.89 L 241.38 395.82 L 241.36 395.8 L 241.08 395.7 L 240.97 395.54 L 240.96 395.5 Z  M 244.83 399.52 L 244.88 399.51 L 245.09 399.65 L 245.07 399.71 L 245.05 399.73 L 244.93 399.65 L 244.85 399.57 L 244.83 399.52 Z  M 243.68 398.71 L 243.81 398.78 L 243.85 398.92 L 243.81 399 L 243.72 398.85 L 243.61 398.78 L 243.59 398.72 L 243.61 398.66 L 243.68 398.71 Z  M 239.63 395.24 L 239.58 395.27 L 239.5 395.09 L 239.57 394.98 L 239.64 395.14 L 239.63 395.24 Z  M 244.42 398.62 L 244.33 398.49 L 244.42 398.51 L 244.59 398.72 L 244.55 398.73 L 244.49 398.7 L 244.42 398.62 Z  M 243.7 397.66 L 243.77 397.76 L 243.93 397.88 L 244.02 397.96 L 244.09 398.1 L 243.82 397.96 L 243.58 397.87 L 243.45 397.78 L 243.31 397.73 L 243.17 397.6 L 243.23 397.53 L 243.27 397.52 L 243.52 397.67 L 243.7 397.66 Z  M 245.59 399.16 L 245.68 399.27 L 245.72 399.3 L 245.73 399.47 L 245.61 399.47 L 245.5 399.41 L 245.44 399.25 L 245.51 399.15 L 245.59 399.16 Z  M 250.84 399.83 L 250.68 399.75 L 250.64 399.71 L 250.67 399.64 L 250.7 399.62 L 250.75 399.66 L 250.82 399.74 L 250.85 399.8 L 250.84 399.83 Z  M 251.58 399.98 L 251.67 399.96 L 251.77 400.08 L 251.9 400.42 L 251.91 400.59 L 252.06 400.71 L 251.89 400.77 L 251.89 401.02 L 251.81 401.08 L 251.76 401.08 L 251.63 400.99 L 251.51 400.77 L 251.33 400.64 L 251.27 400.58 L 251.29 400.48 L 251.25 400.35 L 251.3 400.2 L 251.58 399.98 Z  M 245.18 400.23 L 244.9 400.33 L 244.81 400.19 L 244.79 400.14 L 244.96 400.19 L 244.97 400.15 L 244.95 400.12 L 245.05 400.07 L 245.15 400.18 L 245.18 400.23 Z  M 243.15 398.24 L 243.24 398.31 L 243.3 398.47 L 243.28 398.58 L 243.13 398.43 L 243.06 398.27 L 243.15 398.24 Z  M 244.21 399.35 L 244.14 399.24 L 244.17 399.18 L 244.28 399.21 L 244.33 399.26 L 244.39 399.35 L 244.35 399.39 L 244.21 399.35 Z  M 182.59 352.1 L 182.85 352.35 L 182.9 352.43 L 182.61 352.47 L 182.39 352.32 L 182.25 352.29 L 182.19 352.08 L 182.22 352 L 182.59 352.1 Z  M 176.64 351.63 L 176.79 351.67 L 176.92 351.82 L 176.91 351.93 L 176.72 351.94 L 176.55 351.85 L 176.52 351.75 L 176.57 351.66 L 176.64 351.63 Z  M 186.58 352.1 L 186.34 351.63 L 186.24 351.49 L 186.25 351.32 L 186.12 351.08 L 186.16 350.82 L 186.32 350.79 L 186.5 350.99 L 186.67 351.13 L 187.05 351.25 L 187.14 351.32 L 187.23 351.42 L 187.22 351.63 L 187.23 351.73 L 187.37 351.89 L 187.69 352.04 L 187.91 352.31 L 187.95 352.46 L 187.58 352.25 L 187.37 352.28 L 187.46 352.65 L 187.37 352.68 L 186.83 352.39 L 186.68 352.23 L 186.58 352.1 Z  M 175.8 350.71 L 175.92 350.95 L 176.01 351.08 L 176.52 351.05 L 176.53 351.17 L 176.09 351.3 L 176.18 351.57 L 176.18 351.66 L 175.83 351.06 L 175.63 350.39 L 175.73 350.4 L 175.75 350.58 L 175.8 350.71 Z  M 182.6 384.74 L 182.26 384.57 L 182.06 384.39 L 182.01 384.34 L 182.31 384.45 L 182.75 384.69 L 182.92 384.95 L 182.6 384.74 Z  M 208.05 390.37 L 207.97 390.24 L 207.84 390.12 L 207.56 389.8 L 207.45 389.61 L 207.53 389.58 L 207.7 389.67 L 207.77 389.76 L 207.99 389.97 L 208.12 390.11 L 208.41 390.48 L 208.53 390.58 L 208.66 390.64 L 208.76 390.72 L 209.69 391.66 L 209.75 391.74 L 209.89 392.15 L 209.95 392.27 L 210.37 392.73 L 210.45 392.86 L 210.49 393 L 210.73 393.41 L 210.79 393.6 L 210.29 393.43 L 210.02 393.37 L 209.84 393.28 L 209.72 393.22 L 209.67 393.12 L 209.66 393.01 L 209.6 392.93 L 209.33 392.88 L 209.19 392.83 L 209.1 392.73 L 209.01 392.56 L 208.86 392.43 L 208.76 392.46 L 208.65 392.45 L 208.58 392.38 L 208.56 392.29 L 208.54 392.16 L 208.42 392.04 L 208.27 391.99 L 208.08 391.91 L 207.92 391.77 L 207.9 391.66 L 207.95 391.59 L 207.74 391.45 L 207.68 391.46 L 207.6 391.43 L 207.58 391.36 L 207.57 391.25 L 207.42 390.93 L 207.46 390.76 L 207.67 390.62 L 207.72 390.57 L 207.69 390.45 L 207.71 390.37 L 207.82 390.36 L 207.95 390.39 L 208.05 390.43 L 208.05 390.37 Z  M 185.73 293.28 L 185.43 293.15 L 185.3 292.7 L 185.41 292.47 L 185.68 292.37 L 186.15 292.57 L 186.24 292.68 L 186.03 292.78 L 186 293.03 L 185.73 293.28 Z  M 189.24 321.86 L 189.3 321.79 L 189.16 321.57 L 189.13 321.48 L 189.37 321.64 L 189.55 321.83 L 189.48 321.88 L 189.72 322.08 L 189.79 322.18 L 189.65 322.21 L 189.32 321.96 L 189.24 321.86 Z  M 189.55 323.48 L 189.39 323.55 L 189.21 323.41 L 189.2 323.29 L 189.28 323.15 L 189.42 323.15 L 189.52 323.3 L 189.55 323.48 Z  M 204.53 305.58 L 204.66 305.79 L 204.72 306.01 L 204.73 306.69 L 204.78 307.22 L 204.81 307.98 L 204.77 308.52 L 204.55 309.5 L 204.14 310.71 L 204.08 311.07 L 203.92 311.71 L 203.71 312.96 L 203.64 313.24 L 203.46 314.23 L 203.33 314.54 L 203.25 314.84 L 203.07 315.77 L 202.76 316.48 L 202.46 317.13 L 202.41 317.46 L 202.3 317.71 L 202.15 317.95 L 202.1 318.09 L 201.88 318.97 L 201.58 320.17 L 201.52 320.2 L 201.39 320.4 L 201.11 320.46 L 201.03 320.61 L 200.4 320.24 L 200.32 320.22 L 200.08 320.34 L 199.94 320.66 L 199.49 320.78 L 199.28 320.89 L 199.19 321.04 L 199.02 320.72 L 198.93 320.31 L 198.92 320.03 L 198.86 319.85 L 198.79 319.88 L 198.8 320.29 L 198.9 320.76 L 198.83 321.01 L 198.5 321.13 L 198 320.78 L 197.83 320.8 L 198.04 321.06 L 198.23 321.34 L 198.29 321.51 L 198.09 321.49 L 197.95 321.68 L 197.87 321.95 L 197.78 321.96 L 197.51 321.61 L 197.35 321.8 L 197.25 322.03 L 196.88 322.13 L 196.77 322.44 L 196.43 322.67 L 196.2 322.69 L 195.78 322.96 L 195.76 323.34 L 195.66 323.49 L 195.4 323.39 L 194.81 323.62 L 194.27 323.9 L 194 323.91 L 193.68 323.84 L 193.54 324.18 L 193.42 324.64 L 193.15 324.82 L 193.01 324.77 L 193 324.54 L 193.12 324.29 L 193.14 323.96 L 193.05 323.69 L 192.9 323.59 L 192.74 323.57 L 192.44 323.31 L 192.01 322.72 L 191.91 322.7 L 191.92 322.86 L 192.07 323.32 L 192.07 323.46 L 192.02 323.57 L 191.96 323.69 L 191.87 323.75 L 191.49 323.77 L 191.34 323.54 L 191.3 323.44 L 191.23 323.13 L 191.15 323.08 L 191.1 322.84 L 191.2 322.85 L 191.29 322.8 L 191.29 322.67 L 191.23 322.52 L 191.06 322.5 L 191.01 322.4 L 190.96 321.96 L 190.93 321.84 L 190.87 321.82 L 190.81 321.88 L 190.2 321.79 L 189.29 321.29 L 189.11 321.28 L 188.8 320.8 L 188.66 320.87 L 188.54 321.18 L 188.27 320.97 L 188.02 320.84 L 187.87 320.62 L 187.73 320.29 L 187.55 319.9 L 187.31 319.44 L 187 318.78 L 186.83 318.26 L 186.82 317.86 L 186.78 317.6 L 186.6 316.96 L 186.32 316.22 L 186.18 315.97 L 186.13 315.79 L 186.25 315.79 L 186.17 315.64 L 186.08 315.56 L 185.95 315.4 L 185.97 315.31 L 186.12 315.29 L 186.11 315.24 L 186.09 315.16 L 185.81 314.72 L 185.71 314.51 L 185.31 313.88 L 184.89 313.29 L 184.45 312.86 L 184.27 312.12 L 184.13 311.44 L 183.99 311.12 L 183.8 310.73 L 183.3 310.32 L 183.03 309.7 L 182.71 309.04 L 182.59 308.63 L 182.54 308.31 L 182.54 307.99 L 182.76 306.96 L 182.61 306.43 L 182.98 306.37 L 182.64 305.91 L 182.51 305.65 L 182.39 305.34 L 182.88 305.09 L 183.14 305.25 L 183.56 305.01 L 183.85 304.56 L 183.77 304.33 L 183.63 304.13 L 183.41 303.75 L 183.44 303.64 L 183.63 303.71 L 183.49 303.52 L 183.43 303.31 L 183.64 303.39 L 183.73 302.8 L 183.6 302.35 L 184.01 302.09 L 184.29 301.16 L 184.46 300.86 L 184.65 300.64 L 184.9 299.69 L 185.12 299.64 L 185.05 299.01 L 185.25 298.16 L 185.36 298.04 L 185.35 297.28 L 185.66 296.37 L 185.7 295.23 L 185.78 294.82 L 185.72 294.39 L 185.93 294.34 L 186.04 294.01 L 186.41 293.77 L 186.85 293.81 L 187.07 293.95 L 187.22 293.89 L 187.1 293.51 L 186.92 293.27 L 186.95 293.04 L 187.13 292.85 L 187 292.46 L 186.89 292.23 L 186.62 291.93 L 186.53 291.22 L 186.35 290.45 L 186.2 289.54 L 185.85 289.07 L 184.75 288.3 L 184.59 288.33 L 184.36 288.24 L 184 287.62 L 183.96 287.07 L 183.92 286.87 L 183.84 286.88 L 183.78 287.16 L 183.56 287.47 L 183.14 287.26 L 182.97 287.32 L 182.42 287.51 L 181.89 287.19 L 181.71 287.37 L 181.33 287.4 L 180.92 287.55 L 180.84 287.82 L 180.75 287.94 L 180.25 287.58 L 179.71 286.98 L 179.55 287.47 L 179.39 287.56 L 179.12 287.15 L 178.96 287.08 L 178.92 287.23 L 178.94 287.61 L 178.91 287.91 L 178.93 288.1 L 179.1 288.85 L 179.12 289.02 L 178.72 288.95 L 178.79 289.14 L 178.9 289.24 L 178.97 289.36 L 178.87 289.53 L 178.5 289.53 L 178.51 289.71 L 178.68 289.97 L 178.66 290.22 L 178.61 290.31 L 178.21 290.49 L 177.95 290.46 L 177.91 290.62 L 177.95 290.82 L 178.05 291.02 L 178.19 291.11 L 178.26 291.24 L 178.32 291.51 L 178.24 291.56 L 177.85 291.1 L 177.78 291.13 L 177.9 291.37 L 178.13 291.63 L 178.29 291.9 L 178.45 292.22 L 178.51 292.47 L 178.4 293.28 L 178.25 293.8 L 178.16 294.26 L 178.17 294.74 L 178.38 294.97 L 178.65 295.3 L 178.95 295.95 L 179.26 296.53 L 179.7 297.07 L 179.74 297.39 L 179.75 297.64 L 179.46 298.21 L 179.19 299.05 L 179.28 301.15 L 179.18 301.44 L 178.8 301.81 L 178.73 302.16 L 178.5 302.57 L 177.97 302.95 L 177.84 303.44 L 177.88 303.93 L 177.74 303.98 L 177.54 303.8 L 177.3 303.67 L 177.38 303.99 L 177.47 304.22 L 177.05 303.89 L 177.01 304.22 L 177.08 304.75 L 176.88 305.48 L 176.36 305.39 L 176.35 305.51 L 176.51 305.6 L 176.57 305.71 L 176.5 305.77 L 176.37 305.77 L 176.22 305.93 L 176.08 305.92 L 176.14 306.26 L 176.18 306.66 L 175.97 306.85 L 175.84 306.89 L 175.86 307.12 L 176.28 307.14 L 176.32 307.34 L 176.38 307.53 L 176.41 307.73 L 176.05 308.06 L 176.06 308.3 L 176.01 308.45 L 175.81 308.45 L 175.77 308.32 L 175.74 308.17 L 175.44 308.2 L 175.23 307.87 L 175.2 307.96 L 175.33 308.23 L 175.51 308.5 L 175.75 308.9 L 175.77 309.16 L 175.74 309.3 L 175.84 309.41 L 176.03 309.49 L 176.16 309.64 L 176.01 309.79 L 175.95 310.28 L 175.7 310.31 L 175.66 310.62 L 175.5 310.64 L 175.29 310.45 L 175.02 310.31 L 175.06 310.59 L 175.13 310.82 L 175.46 311.37 L 175.86 311.79 L 176.14 311.96 L 176.03 312.1 L 176.03 312.38 L 176.23 313.26 L 176.29 313.6 L 176.44 314.21 L 176.69 314.7 L 176.83 314.95 L 177.06 315.27 L 176.77 315.25 L 176.4 315.08 L 176.6 315.48 L 176.61 315.97 L 176.81 316.38 L 176.96 316.65 L 177.09 317.1 L 177.23 317.23 L 177.38 317.49 L 177.39 317.7 L 177.49 317.86 L 177.75 318.45 L 178.19 319.37 L 178.25 319.56 L 178.75 320.34 L 178.83 320.62 L 178.96 320.97 L 179.33 321.29 L 179.54 321.26 L 179.74 321.24 L 179.85 321.32 L 180.04 321.55 L 180.22 321.82 L 180.38 321.79 L 180.55 321.54 L 180.71 321.47 L 181.01 321.9 L 181.58 322.44 L 181.87 322.68 L 182.25 322.79 L 182.78 323.22 L 182.97 323.78 L 183.19 323.95 L 183.67 324.13 L 183.94 324.41 L 184.12 324.65 L 184.31 324.85 L 184.71 325.45 L 184.83 325.83 L 184.74 325.97 L 184.55 326.41 L 184.52 326.72 L 184.48 326.91 L 184.3 327.34 L 184.2 327.43 L 184.16 327.64 L 184.08 327.74 L 183.95 327.7 L 183.71 328.11 L 183.38 328.03 L 183.18 327.86 L 182.91 327.12 L 182.76 326.89 L 182.65 326.77 L 182.53 326.92 L 182.69 327.2 L 182.38 327.24 L 181.97 327.03 L 182.15 327.5 L 181.33 327.17 L 181.19 327.28 L 180.82 327.11 L 180.75 327.36 L 180.49 327.3 L 180.21 327.03 L 180.22 327.54 L 179.83 327.72 L 179.44 327.83 L 179.72 327.98 L 180.67 327.86 L 181 327.96 L 181.32 327.85 L 181.81 328.2 L 182.08 328.27 L 182.56 328.68 L 182.64 328.55 L 182.86 328.55 L 183.12 328.66 L 183.74 328.59 L 183.81 328.27 L 184.16 328.3 L 184.29 328.21 L 184.32 328.01 L 184.44 327.96 L 184.58 327.98 L 184.64 327.83 L 184.72 327.76 L 184.86 327.82 L 185.14 328.16 L 184.98 328.37 L 184.81 328.39 L 184.99 328.97 L 185 329.23 L 184.98 329.35 L 184.71 329.63 L 184.6 329.96 L 184.42 330.23 L 184.26 330.19 L 184.19 330.46 L 183.89 330.79 L 183.86 331.21 L 183.53 331.61 L 183.41 331.92 L 182.72 332 L 182.03 331.99 L 181.89 332.15 L 182.12 332.17 L 182.34 332.29 L 182.49 332.22 L 182.94 332.25 L 183.2 332.3 L 183.7 332.74 L 183.58 332.92 L 183.29 333.08 L 183.75 333.72 L 184.08 334.15 L 184.07 334.43 L 184.67 335.62 L 184.48 335.66 L 184.65 336.16 L 184.84 336.4 L 185.13 336.98 L 185.36 337.33 L 185.62 337.64 L 185.76 337.98 L 185.86 338.79 L 186.06 339.15 L 186.23 339.36 L 186.46 339.7 L 186.67 340.38 L 186.87 340.93 L 187 341.4 L 187.03 341.97 L 187.13 342.39 L 187.52 343.68 L 187.51 343.94 L 187.43 344.15 L 187.12 343.99 L 186.88 343.92 L 186.65 343.95 L 186.37 344.14 L 185.77 344.1 L 185.26 344.2 L 185.19 344.34 L 185.53 344.78 L 185.37 344.86 L 185.1 344.75 L 185.02 344.92 L 184.98 345.1 L 184.93 345.53 L 184.98 345.78 L 185.22 346.23 L 185.6 346.62 L 186.01 347.08 L 186.01 347.68 L 185.84 347.72 L 185.21 347.63 L 184.47 348.08 L 183.44 347.9 L 183.37 347.58 L 183.23 347.36 L 183.08 347.01 L 182.89 346.65 L 182.75 346.41 L 182.53 346.16 L 182.12 345.85 L 180.98 344.77 L 180.56 344.3 L 180.34 344.1 L 180.41 344.09 L 180.95 344.3 L 181.03 344.26 L 181.07 344.15 L 180.73 343.79 L 180.54 343.63 L 180.32 343.39 L 180.51 343.29 L 180.69 343.29 L 180.65 342.99 L 180.31 342.53 L 180.05 342.41 L 179.86 342.36 L 179.16 341.65 L 178.64 341.29 L 177.26 339.85 L 176.49 338.82 L 176.36 338.94 L 176.02 338.49 L 175.71 338.06 L 175.53 337.74 L 175.14 337.58 L 175 337.36 L 174.4 336.34 L 174.01 336.24 L 173.5 335.68 L 172.89 334.58 L 172.57 334.4 L 172.44 334.47 L 172.3 334.19 L 172.21 333.93 L 171.57 332.9 L 171.05 331.95 L 170.82 331.67 L 170.6 331.33 L 170.49 331.03 L 170.47 330.86 L 170.65 330.79 L 170.97 331.03 L 171.47 331.67 L 171.67 331.75 L 171.78 331.55 L 171.68 331.06 L 171.4 330.33 L 171.15 329.63 L 170.67 328.89 L 170.23 328.25 L 170.12 328.05 L 170.17 327.46 L 170.05 326.99 L 169.94 326.54 L 169.99 326.38 L 170.14 326.33 L 170.31 326.23 L 170.42 325.91 L 170.46 325.5 L 170.47 325.12 L 170.19 324.38 L 170.02 324.02 L 169.97 323.74 L 169.8 323.2 L 169.49 322.67 L 168.89 321.88 L 168.11 320.75 L 167.78 320.13 L 167.86 320 L 168.05 319.87 L 168.49 319.8 L 168.51 319.72 L 168.43 319.44 L 168.37 319.05 L 168.36 318.77 L 168.26 318.36 L 168.14 318 L 167.65 317.47 L 167.07 316.93 L 166.76 316.76 L 166.15 316.32 L 165.69 315.94 L 165.22 314.39 L 164.87 313.22 L 164.78 312.94 L 164.61 312.5 L 163.46 310.63 L 163.31 310.2 L 163.2 309.81 L 162.9 309.16 L 162.65 308.56 L 162.66 308.38 L 162.69 308.03 L 162.34 307.52 L 162.31 307.47 L 161.53 306.19 L 161.52 304.84 L 161.19 304.17 L 161.29 303.65 L 161.39 302.47 L 161.45 301.8 L 161.47 301.68 L 161.6 301.38 L 161.91 301.01 L 162.33 300.81 L 162.54 300.8 L 163.42 300.98 L 164.11 301.12 L 164.15 300.93 L 164.16 300.55 L 164.15 300.01 L 163.97 299.42 L 163.63 298.56 L 163.37 298.04 L 162.82 297.72 L 162.18 297.28 L 162.31 295.74 L 162.41 294.66 L 162.46 293.03 L 162.43 292.35 L 162.47 292.08 L 161.92 289.56 L 161.83 288.84 L 161.82 288.46 L 161.72 288.08 L 161.49 287.43 L 160.96 285.96 L 161.75 285.73 L 161.99 285.62 L 162.2 285.43 L 162.58 284.94 L 162.72 284.52 L 162.24 283.12 L 162.43 282.62 L 162.77 280.91 L 163.2 279.25 L 163.43 278.61 L 163.41 278.31 L 163.33 277.81 L 163 277.05 L 162.73 276.57 L 162.19 275.67 L 162.21 275.02 L 162.44 274.89 L 162.73 274.62 L 162.89 274.06 L 162.9 273.98 L 162.94 271.77 L 163.61 270.62 L 163.85 269.99 L 164.47 270.44 L 165.39 271.1 L 165.57 270.07 L 165.62 269.68 L 165.64 269.12 L 165.43 268.14 L 165.21 266.86 L 165.16 266.34 L 165.45 266.1 L 165.61 266.03 L 166.58 266.54 L 166.8 266.52 L 167.23 266.58 L 167.73 266.8 L 168.81 267.39 L 169.26 267.63 L 169.49 267.67 L 169.64 267.38 L 169.94 266.63 L 169.24 266.1 L 169.57 265.53 L 169.69 264.96 L 169.77 264.26 L 169.72 263.44 L 169.64 263 L 169.47 262.7 L 169 261.95 L 169.84 261.82 L 170.13 261.78 L 170.21 261.49 L 170.7 261.46 L 171.13 261.71 L 171.21 261.6 L 171.23 261.37 L 170.94 260.44 L 170.94 260.2 L 171.08 259.9 L 171.34 259.66 L 171.77 259.62 L 172.08 259.64 L 172.15 259.67 L 172.72 260.68 L 173.24 261.67 L 173.5 262.08 L 174.16 263.26 L 174.44 263.93 L 174.57 264.42 L 174.77 264.41 L 175.51 264.61 L 176.13 264.77 L 176.33 265.04 L 176.73 264.97 L 177.01 264.72 L 177.52 264.39 L 177.62 264.01 L 177.75 263.6 L 178.08 263.65 L 178.49 263.96 L 178.95 264.38 L 179.34 264.56 L 179.86 264.85 L 180.14 265.24 L 180.47 265.34 L 180.75 264.94 L 180.8 263.86 L 180.9 263.38 L 181.1 263.02 L 181.36 262.86 L 181.57 262.8 L 181.7 262.52 L 181.85 261.9 L 181.8 261.15 L 181.6 259.8 L 181.59 259.35 L 181.69 258.61 L 181.74 256.63 L 181.79 256.06 L 181.9 255.7 L 182.07 255.49 L 182.36 254.88 L 182.75 253.67 L 182.87 253.56 L 183.22 253.5 L 183.67 253.53 L 184.09 253.74 L 184.13 253.72 L 184.3 253.61 L 184.59 253.23 L 185.09 252.47 L 185.43 252.26 L 185.75 252.28 L 186.18 253.09 L 186.77 253.99 L 187.13 254.43 L 188.1 255.23 L 188.93 255.75 L 189.54 257.5 L 189.4 258.2 L 189.32 258.44 L 189.01 259.14 L 188.71 260.12 L 188.74 260.62 L 188.94 261.12 L 189.15 261.45 L 189.01 261.56 L 188.59 261.99 L 188.34 262.27 L 188.02 262.49 L 188.14 262.76 L 188.72 262.8 L 188.82 262.88 L 188.9 263.02 L 188.94 263.24 L 188.93 263.6 L 188.58 265.59 L 188.62 266.01 L 188.98 267.14 L 189.47 268.47 L 190.42 269.03 L 191.12 269.47 L 191.7 270.54 L 192.61 271.93 L 193.05 272.44 L 193.1 272.6 L 193.16 273.57 L 192.9 274.54 L 192.64 275.35 L 192.4 276.33 L 192.23 277.15 L 192.07 278.13 L 192.09 278.45 L 192.14 278.74 L 192.27 279.07 L 192.95 280.22 L 193.25 280.81 L 193.59 281.44 L 193.92 282.12 L 194.15 282.73 L 194.46 283.33 L 194.64 283.63 L 194.92 284.04 L 195.28 284.67 L 195.47 285.16 L 196.2 286.86 L 196.34 287.29 L 196.39 287.61 L 196.27 287.7 L 195.95 287.76 L 195.65 287.99 L 195.65 288.06 L 195.97 288.45 L 195.93 289.13 L 196.14 290.1 L 196.05 290.61 L 196.06 290.72 L 196.09 290.82 L 196.15 290.9 L 196.59 291.01 L 196.66 291.15 L 196.73 291.43 L 196.76 291.69 L 196.61 291.89 L 196.46 292.18 L 196.48 292.44 L 196.55 292.67 L 196.73 293.06 L 196.99 293.51 L 197.24 293.78 L 197.96 294.02 L 198.1 294.23 L 198.21 294.54 L 198.28 294.83 L 198.14 295.43 L 198.21 295.66 L 198.48 296.19 L 198.77 296.7 L 199.54 297.23 L 199.84 297.52 L 199.97 297.76 L 200.11 298.15 L 200.22 298.57 L 200.28 298.94 L 200.23 299.43 L 200.05 300.39 L 199.71 300.78 L 199.7 300.86 L 199.93 301.15 L 201.08 302.29 L 201.77 302.81 L 202.69 303.51 L 203.32 304.06 L 203.59 304.47 L 203.93 304.92 L 204.27 305.28 L 204.53 305.58 Z  M 190.61 322.49 L 190.7 322.72 L 190.84 322.85 L 190.96 323.05 L 190.74 323.07 L 190.57 322.9 L 190.43 322.69 L 190.26 322.55 L 190.08 322.44 L 190.08 322.28 L 190.02 322.05 L 190.09 321.96 L 190.41 322.07 L 190.5 322.01 L 190.75 322.29 L 190.61 322.49 Z  M 189.63 322.97 L 189.83 322.94 L 189.91 323.27 L 189.78 323.48 L 189.68 323.44 L 189.56 323.12 L 189.63 322.97 Z  M 188 321.51 L 187.77 321.26 L 187.53 320.84 L 187.51 320.74 L 187.56 320.64 L 187.73 320.87 L 188.2 321.21 L 188.28 321.47 L 188.12 321.45 L 188 321.51 Z  M 181.57 305.03 L 181.6 305.15 L 181.66 305.26 L 181.78 305.22 L 181.88 304.99 L 182.03 305.09 L 182.12 305.4 L 182.04 305.39 L 182 305.34 L 181.95 305.52 L 181.97 305.63 L 181.87 305.71 L 181.54 305.42 L 181.23 304.93 L 181.56 304.91 L 181.57 305.03 Z  M 193.17 329.52 L 193.94 329.29 L 193.91 329.02 L 193.95 328.72 L 194.07 328.68 L 194.21 328.74 L 194.33 328.95 L 194.39 329.04 L 194.83 329.13 L 195.15 329.48 L 195.4 329.91 L 195.24 329.96 L 195.19 330.22 L 195.04 330.13 L 194.93 330.02 L 194.98 330.6 L 194.78 330.71 L 194.58 330.62 L 194.5 330.41 L 194.1 329.86 L 193.81 329.72 L 193.5 329.73 L 193.17 329.52 Z  M 196.75 331.27 L 196.61 331.34 L 196.03 331.02 L 196.02 330.77 L 196.09 330.67 L 196.5 330.79 L 196.72 331.15 L 196.75 331.27 Z  M 194.08 331.71 L 194.32 331.85 L 194.41 331.65 L 194.48 331.62 L 194.63 331.67 L 194.59 331.3 L 194.83 331.15 L 194.93 331.03 L 195.09 331.05 L 195.29 331.15 L 195.41 331.1 L 195.51 331.01 L 195.84 331.06 L 196.81 331.61 L 196.94 331.77 L 196.57 331.88 L 196.57 332.07 L 196.53 332.21 L 196.44 332.26 L 196.37 332.54 L 196.22 332.81 L 196.24 332.96 L 195.75 332.97 L 195.54 333.09 L 195.46 333.39 L 195.63 333.93 L 195.68 334.35 L 195.6 334.51 L 195.44 334.55 L 195.33 334.4 L 195.27 334.25 L 195.33 333.63 L 195.31 333.43 L 195.1 333.36 L 194.85 333.17 L 194.42 332.96 L 194.28 332.77 L 194.34 332.75 L 194.39 332.69 L 194.39 332.52 L 194.34 332.33 L 193.83 331.8 L 193.91 331.7 L 194.08 331.71 Z  M 182.69 351.52 L 181.49 351.01 L 181.19 350.5 L 181.1 350.3 L 181.46 350.21 L 181.82 350.44 L 182.32 350.66 L 182.55 350.62 L 182.77 350.71 L 182.91 350.87 L 183.16 351.24 L 183.06 351.36 L 182.85 351.35 L 182.69 351.52 Z  M 179.96 349.92 L 179.62 349.98 L 179.15 349.85 L 178.43 349.59 L 178.28 349.41 L 178.14 349.32 L 177.66 348.78 L 177.24 348.1 L 177.45 347.98 L 177.82 347.59 L 177.99 347.62 L 178.23 347.78 L 178.39 347.77 L 178.48 347.5 L 178.53 347.51 L 178.75 347.73 L 179.14 348.2 L 179.63 348.72 L 179.7 348.95 L 179.92 349.24 L 180.06 349.54 L 179.96 349.92 Z  M 179.96 350.63 L 180.24 350.76 L 180.23 350.82 L 180.13 350.88 L 179.92 350.8 L 179.46 350.49 L 179.37 350.4 L 179.54 350.44 L 179.81 350.6 L 179.96 350.63 Z  M 177.65 346.49 L 177.54 346.23 L 177.35 346 L 177.32 345.85 L 177.7 346.17 L 177.85 346.33 L 177.9 346.53 L 177.99 346.76 L 178.01 346.84 L 177.83 346.77 L 177.65 346.49 Z  M 182.41 347.33 L 182.2 347.08 L 182.2 346.92 L 182.18 346.78 L 182.22 346.78 L 182.37 346.91 L 182.53 347.13 L 182.46 347.34 L 182.41 347.33 Z  M 179.48 346.74 L 179.43 346.15 L 179.34 346.02 L 179.28 345.86 L 179.54 345.77 L 179.81 345.97 L 179.99 346.32 L 180.27 346.76 L 180.52 346.86 L 180.6 346.87 L 180.48 346.54 L 180.44 346.37 L 180.46 346.27 L 180.31 345.97 L 180.16 345.79 L 179.98 345.66 L 180.11 345.25 L 180.29 344.92 L 180.48 344.88 L 180.73 344.93 L 180.98 345.01 L 181.14 345.08 L 181.28 345.22 L 181.34 345.56 L 181.41 345.74 L 181.84 346.32 L 182.11 346.76 L 182.13 346.9 L 182.11 346.99 L 181.97 347.1 L 181.87 347.24 L 181.85 347.48 L 181.98 347.79 L 182.23 348.01 L 182.52 348.11 L 182.84 348.53 L 182.79 348.76 L 182.46 349.02 L 182.72 349.53 L 182.98 349.92 L 183.15 350.21 L 183.35 350.61 L 183.1 350.83 L 182.49 350.25 L 182.34 350.01 L 182.09 349.74 L 181.93 349.5 L 181.61 349.12 L 181.2 349.05 L 181.06 349.05 L 180.91 349.15 L 180.85 349.12 L 180.3 348.62 L 179.97 348.02 L 179.67 347.73 L 179.57 347.6 L 179.48 347.44 L 179.31 347.33 L 179.15 347.28 L 178.88 346.95 L 178.97 346.85 L 179.34 346.85 L 179.43 346.82 L 179.48 346.74 Z  M 183.78 349.74 L 183.94 349.86 L 183.9 349.93 L 183.57 349.92 L 183.42 350.25 L 183.23 350.17 L 183.16 349.98 L 183.16 349.91 L 183.22 349.82 L 183.23 349.69 L 183.14 349.51 L 183.27 349.6 L 183.51 349.61 L 183.65 349.66 L 183.78 349.74 Z  M 174.97 340.06 L 174.6 339.93 L 174.6 339.7 L 174.85 339.57 L 175.05 339.58 L 174.97 339.82 L 174.99 339.94 L 174.97 340.06 Z  M 180.57 350.88 L 180.49 350.77 L 180.49 350.54 L 180.42 350.28 L 180.41 349.87 L 180.27 349.4 L 180.32 349.41 L 180.51 349.81 L 180.9 350.96 L 180.97 351.17 L 180.9 351.2 L 180.57 350.88 Z  M 178.92 350.34 L 179.24 350.66 L 179.31 350.75 L 179.14 350.83 L 178.97 350.74 L 178.76 350.72 L 178.28 350.08 L 178.28 350.04 L 178.4 350.07 L 178.92 350.34 Z  M 188.33 349.08 L 187.76 348.82 L 187.47 348.24 L 187.42 347.98 L 188.53 348.55 L 188.68 348.79 L 188.75 349.08 L 188.72 349.16 L 188.33 349.08 Z  M 262.91 401.04 L 263 401.22 L 263.14 401.33 L 263.38 401.46 L 263.44 401.49 L 263.57 401.59 L 263.41 401.65 L 263.24 401.68 L 263.12 401.68 L 263.03 401.7 L 262.99 402.04 L 262.91 402.16 L 262.77 402.25 L 262.6 402.3 L 262.51 402.32 L 262.46 402.37 L 262.46 402.45 L 262.51 402.52 L 262.53 402.58 L 262.42 402.58 L 262.28 402.47 L 262.16 402.43 L 261.99 402.48 L 261.9 402.49 L 261.5 402.42 L 261.37 402.39 L 261.24 402.3 L 260.8 401.99 L 260.56 401.75 L 260.76 401.8 L 260.84 401.71 L 260.86 401.57 L 260.98 401.5 L 261.09 401.51 L 261.21 401.52 L 261.35 401.46 L 261.27 401.26 L 261.12 401.05 L 261.47 401.07 L 261.8 401.07 L 262.05 401.05 L 262.27 400.99 L 262.83 400.67 L 262.92 400.51 L 263.02 400.45 L 263.15 400.31 L 263.34 400.22 L 263.29 400.37 L 262.91 401.04 Z  M 211.54 383.41 L 211.52 383.3 L 211.42 383.19 L 211.05 382.86 L 211.08 382.8 L 211.12 382.78 L 211.34 383.02 L 211.49 383.15 L 211.76 383.29 L 211.95 383.57 L 212.3 383.95 L 212.4 384.04 L 212.48 384.12 L 212.55 384.23 L 212.34 384.11 L 212.09 383.88 L 211.64 383.52 L 211.54 383.41 Z  M 218.88 387.44 L 219.09 387.36 L 219.35 387.37 L 219.51 387.46 L 220.2 387.45 L 220.46 387.47 L 220.36 387.51 L 219.59 387.59 L 219.32 387.57 L 218.96 387.47 L 218.88 387.44 Z  M 219.19 387.24 L 218.92 387.23 L 218.74 387.16 L 218.69 387.1 L 218.63 386.98 L 218.9 386.96 L 219.37 386.98 L 219.54 387.06 L 219.55 387.11 L 219.45 387.2 L 219.19 387.24 Z  M 222.23 388.15 L 221.74 388.1 L 220.9 387.85 L 220.44 387.78 L 220.56 387.74 L 220.72 387.71 L 221.95 388.04 L 221.75 387.93 L 221.84 387.87 L 221.97 387.89 L 222.16 388.02 L 222.37 388.1 L 222.72 388.23 L 222.96 388.34 L 223.46 388.53 L 223.56 388.55 L 223.77 388.59 L 223.85 388.68 L 224 388.78 L 224.17 388.89 L 223.66 388.7 L 223.14 388.47 L 222.23 388.15 Z  M 212.94 384.05 L 212.84 383.96 L 213.05 384.08 L 213.21 384.15 L 213.3 384.16 L 213.66 384.34 L 214.06 384.57 L 214.46 384.77 L 214.43 384.78 L 214.41 384.82 L 214.42 384.9 L 214.2 384.78 L 214.02 384.7 L 213.86 384.6 L 213.6 384.49 L 213.42 384.34 L 212.94 384.05 Z  M 221.55 388.23 L 221.92 388.27 L 222.29 388.4 L 221.42 388.27 L 221.48 388.24 L 221.55 388.23 Z  M 214.36 385.44 L 214.22 385.34 L 214.48 385.45 L 215.31 385.9 L 215.37 385.94 L 215.39 385.96 L 215.27 385.94 L 215.26 385.95 L 214.36 385.44 Z  M 215.26 385.65 L 215.52 385.72 L 215.79 385.9 L 215.65 385.88 L 215.44 385.77 L 215.26 385.65 Z  M 219.91 388.01 L 219.81 387.92 L 220.18 387.94 L 220.38 387.88 L 220.63 387.9 L 220.83 387.96 L 220.89 387.99 L 220.73 388.02 L 220.51 388.01 L 220.36 388.12 L 220.13 388.11 L 220.02 388.06 L 219.91 388.01 Z  M 212.57 383.78 L 212.47 383.71 L 212.43 383.64 L 212.41 383.57 L 212.53 383.56 L 212.6 383.63 L 212.86 383.78 L 213 383.89 L 212.75 383.81 L 212.57 383.78 Z  M 215.18 385.61 L 214.83 385.47 L 214.65 385.37 L 214.59 385.32 L 215.08 385.53 L 215.18 385.61 Z  M 211.68 383.11 L 211.48 383 L 211.42 382.95 L 211.46 382.8 L 211.36 382.58 L 211.57 382.69 L 211.89 382.91 L 212.01 382.97 L 212.34 383.2 L 212.17 383.28 L 211.98 383.19 L 211.89 383.11 L 211.68 383.11 Z "/>
  
</svg>